%FSLAX25Y25*%
%MOIN*%
G70*
G01*
G75*
%ADD10C,0.02000*%
%ADD11C,0.01500*%
%ADD12C,0.00600*%
%ADD13C,0.01000*%
%ADD14C,0.03000*%
%ADD15C,0.00800*%
%ADD16C,0.02500*%
%ADD17R,0.02362X0.02756*%
%ADD18O,0.05906X0.01575*%
%ADD19R,0.06299X0.10630*%
%ADD20R,0.05512X0.08661*%
%ADD21R,0.05512X0.03543*%
%ADD22R,0.04331X0.05118*%
%ADD23C,0.05906*%
%ADD24R,0.03937X0.12205*%
%ADD25R,0.03937X0.03937*%
%ADD26R,0.05118X0.03150*%
%ADD27R,0.11024X0.08268*%
%ADD28R,0.03543X0.03740*%
%ADD29R,0.03543X0.03740*%
%ADD30O,0.05906X0.00984*%
%ADD31O,0.00984X0.05906*%
%ADD32R,0.03937X0.01378*%
%ADD33O,0.00984X0.02756*%
%ADD34O,0.02756X0.00984*%
%ADD35R,0.10236X0.10630*%
%ADD36R,0.02362X0.03150*%
%ADD37R,0.03150X0.03150*%
%ADD38R,0.03150X0.02362*%
%ADD39R,0.04331X0.03937*%
%ADD40R,0.03150X0.05118*%
%ADD41R,0.08268X0.11024*%
%ADD42R,0.02756X0.02362*%
%ADD43R,0.03500X0.02800*%
%ADD44R,0.02800X0.03500*%
%ADD45R,0.05512X0.06693*%
%ADD46C,0.04724*%
%ADD47R,0.03740X0.03543*%
%ADD48R,0.03740X0.03543*%
%ADD49R,0.07087X0.06299*%
%ADD50R,0.17500X0.26100*%
%ADD51R,0.08900X0.23700*%
%ADD52R,0.37800X0.08900*%
%ADD53R,0.18600X0.12500*%
%ADD54R,0.05300X0.15000*%
%ADD55R,0.08700X0.14600*%
%ADD56R,0.18300X0.06800*%
%ADD57R,0.03100X0.10500*%
%ADD58R,0.27600X0.08000*%
%ADD59R,0.20600X0.13700*%
%ADD60R,0.06700X0.23500*%
%ADD61R,0.10900X0.06800*%
%ADD62R,0.07900X0.07000*%
%ADD63R,0.14900X0.03900*%
%ADD64R,0.05900X0.18900*%
%ADD65R,0.06800X0.03800*%
%ADD66R,0.08500X0.03500*%
%ADD67C,0.07087*%
%ADD68C,0.15748*%
%ADD69R,0.05906X0.05906*%
%ADD70R,0.05906X0.05906*%
%ADD71C,0.01969*%
%ADD72C,0.01575*%
%ADD73C,0.02559*%
%ADD74C,0.02362*%
G04:AMPARAMS|DCode=75|XSize=157.48mil|YSize=118.11mil|CornerRadius=0mil|HoleSize=0mil|Usage=FLASHONLY|Rotation=0.000|XOffset=0mil|YOffset=0mil|HoleType=Round|Shape=Octagon|*
%AMOCTAGOND75*
4,1,8,0.07874,-0.02953,0.07874,0.02953,0.04921,0.05906,-0.04921,0.05906,-0.07874,0.02953,-0.07874,-0.02953,-0.04921,-0.05906,0.04921,-0.05906,0.07874,-0.02953,0.0*
%
%ADD75OCTAGOND75*%

%ADD76O,0.15748X0.11811*%
%ADD77R,0.62400X0.08800*%
%ADD78R,0.10500X0.18500*%
D17*
X31263Y48900D02*
D03*
X35200D02*
D03*
X31263Y53100D02*
D03*
X35200D02*
D03*
X148163Y1500D02*
D03*
X152100D02*
D03*
X59537Y89700D02*
D03*
X55600D02*
D03*
X36763Y73400D02*
D03*
X40700D02*
D03*
X26663Y73800D02*
D03*
X30600D02*
D03*
X25795Y57616D02*
D03*
X21858D02*
D03*
X35551Y57286D02*
D03*
X39488D02*
D03*
X35551Y61486D02*
D03*
X39488D02*
D03*
X101563Y70100D02*
D03*
X105500D02*
D03*
X85037Y90200D02*
D03*
X81100D02*
D03*
X96363Y79300D02*
D03*
X100300D02*
D03*
X49837Y27000D02*
D03*
X45900D02*
D03*
X49863Y22400D02*
D03*
X53800D02*
D03*
X101563Y74500D02*
D03*
X105500D02*
D03*
X56751Y28386D02*
D03*
X60688D02*
D03*
X96963Y97600D02*
D03*
X100900D02*
D03*
X114837Y97400D02*
D03*
X110900D02*
D03*
X6637Y86600D02*
D03*
X2700D02*
D03*
X6637Y82100D02*
D03*
X2700D02*
D03*
X41237Y86400D02*
D03*
X37300D02*
D03*
X29437Y102100D02*
D03*
X25500D02*
D03*
X34600Y107100D02*
D03*
X38537D02*
D03*
X158600Y62300D02*
D03*
X154663D02*
D03*
X150700D02*
D03*
X146763D02*
D03*
X168200Y68400D02*
D03*
X172137D02*
D03*
X119200Y70000D02*
D03*
X115263D02*
D03*
X155400Y94000D02*
D03*
X159337D02*
D03*
D18*
X140583Y40220D02*
D03*
X163417Y50457D02*
D03*
X140583D02*
D03*
Y47898D02*
D03*
Y45339D02*
D03*
Y42779D02*
D03*
X163417Y47898D02*
D03*
Y45339D02*
D03*
Y42779D02*
D03*
Y40220D02*
D03*
Y32543D02*
D03*
Y35102D02*
D03*
Y37661D02*
D03*
X140583Y35102D02*
D03*
Y37661D02*
D03*
Y32543D02*
D03*
D19*
X165389Y5900D02*
D03*
X177200D02*
D03*
X172389Y100600D02*
D03*
X184200D02*
D03*
X172489Y87100D02*
D03*
X184300D02*
D03*
D20*
X149500Y84861D02*
D03*
D21*
Y94900D02*
D03*
D22*
X140598Y1900D02*
D03*
X133600D02*
D03*
X12402Y103900D02*
D03*
X19400D02*
D03*
X7002Y72400D02*
D03*
X14000D02*
D03*
D23*
X92913Y24022D02*
D03*
X121613Y57522D02*
D03*
X102313Y21522D02*
D03*
X115213Y64222D02*
D03*
X187813Y5122D02*
D03*
X174016Y29947D02*
D03*
X155026Y20447D02*
D03*
X5626Y115347D02*
D03*
X163228Y112205D02*
D03*
X153228D02*
D03*
X133900Y20690D02*
D03*
D24*
X149868Y72400D02*
D03*
X141600D02*
D03*
D25*
X133607Y120900D02*
D03*
X146993D02*
D03*
X140300Y117357D02*
D03*
D26*
X192800Y57651D02*
D03*
Y62572D02*
D03*
Y92100D02*
D03*
Y87179D02*
D03*
Y82257D02*
D03*
Y77336D02*
D03*
Y72415D02*
D03*
Y67494D02*
D03*
D27*
X205398Y47612D02*
D03*
Y102139D02*
D03*
D28*
X-9800Y92800D02*
D03*
X7300Y55900D02*
D03*
D29*
X-2320Y92800D02*
D03*
X-6060Y102643D02*
D03*
X14780Y55900D02*
D03*
X11040Y65742D02*
D03*
D30*
X46788Y74086D02*
D03*
Y72117D02*
D03*
Y70149D02*
D03*
Y68180D02*
D03*
Y66212D02*
D03*
Y64243D02*
D03*
Y62275D02*
D03*
Y60306D02*
D03*
Y58338D02*
D03*
Y56369D02*
D03*
Y54401D02*
D03*
Y52432D02*
D03*
Y50464D02*
D03*
Y48495D02*
D03*
Y46527D02*
D03*
Y44558D02*
D03*
X94032D02*
D03*
Y46527D02*
D03*
Y48495D02*
D03*
Y50464D02*
D03*
Y52432D02*
D03*
Y54401D02*
D03*
Y56369D02*
D03*
Y58338D02*
D03*
Y60306D02*
D03*
Y62275D02*
D03*
Y64243D02*
D03*
Y66212D02*
D03*
Y68180D02*
D03*
Y70149D02*
D03*
Y72117D02*
D03*
Y74086D02*
D03*
D31*
X55647Y35700D02*
D03*
X57615D02*
D03*
X59583D02*
D03*
X61552D02*
D03*
X63520D02*
D03*
X65489D02*
D03*
X67457D02*
D03*
X69426D02*
D03*
X71394D02*
D03*
X73363D02*
D03*
X75331D02*
D03*
X77300D02*
D03*
X79268D02*
D03*
X81237D02*
D03*
X83205D02*
D03*
X85174D02*
D03*
Y82944D02*
D03*
X83205D02*
D03*
X81237D02*
D03*
X79268D02*
D03*
X77300D02*
D03*
X75331D02*
D03*
X73363D02*
D03*
X71394D02*
D03*
X69426D02*
D03*
X67457D02*
D03*
X65489D02*
D03*
X63520D02*
D03*
X61552D02*
D03*
X59583D02*
D03*
X57615D02*
D03*
X55647D02*
D03*
D32*
X124055Y37735D02*
D03*
Y35176D02*
D03*
Y32616D02*
D03*
Y30057D02*
D03*
X112638D02*
D03*
Y32616D02*
D03*
Y35176D02*
D03*
Y37735D02*
D03*
X124055Y51435D02*
D03*
Y48876D02*
D03*
Y46316D02*
D03*
Y43758D02*
D03*
X112638D02*
D03*
Y46316D02*
D03*
Y48876D02*
D03*
Y51435D02*
D03*
D33*
X15579Y97271D02*
D03*
Y81129D02*
D03*
X17547Y97271D02*
D03*
X19516D02*
D03*
X21484D02*
D03*
X23453D02*
D03*
X25421D02*
D03*
Y81129D02*
D03*
X23453D02*
D03*
X21484D02*
D03*
X19516D02*
D03*
X17547D02*
D03*
D34*
X28571Y92153D02*
D03*
Y88216D02*
D03*
X12429Y84279D02*
D03*
Y86247D02*
D03*
Y88216D02*
D03*
Y90184D02*
D03*
Y92153D02*
D03*
Y94121D02*
D03*
X28571D02*
D03*
Y90184D02*
D03*
Y86247D02*
D03*
Y84279D02*
D03*
D35*
X20500Y89200D02*
D03*
D36*
X163280Y81017D02*
D03*
X155800D02*
D03*
X159540D02*
D03*
Y69600D02*
D03*
X155800D02*
D03*
X163280D02*
D03*
D37*
X115082Y80800D02*
D03*
Y88240D02*
D03*
D38*
X125318D02*
D03*
Y84500D02*
D03*
Y80760D02*
D03*
D39*
X30520Y68714D02*
D03*
X21858D02*
D03*
Y62415D02*
D03*
X30520D02*
D03*
D40*
X80451Y17000D02*
D03*
X85372D02*
D03*
X114900D02*
D03*
X109979D02*
D03*
X105058D02*
D03*
X100136D02*
D03*
X95215D02*
D03*
X90294D02*
D03*
D41*
X70412Y4402D02*
D03*
X124939D02*
D03*
D42*
X133600Y115337D02*
D03*
Y111400D02*
D03*
X140300Y112137D02*
D03*
Y108200D02*
D03*
X129000Y49437D02*
D03*
Y45500D02*
D03*
X107500Y49537D02*
D03*
Y45600D02*
D03*
X69400Y89663D02*
D03*
Y93600D02*
D03*
X63488Y93723D02*
D03*
Y89786D02*
D03*
X39400Y53237D02*
D03*
Y49300D02*
D03*
X27000Y52837D02*
D03*
Y48900D02*
D03*
X129200Y35937D02*
D03*
Y32000D02*
D03*
X107400Y35837D02*
D03*
Y31900D02*
D03*
X77288Y25249D02*
D03*
Y29186D02*
D03*
X82288Y25249D02*
D03*
Y29186D02*
D03*
X87088Y25249D02*
D03*
Y29186D02*
D03*
X1100Y59637D02*
D03*
Y55700D02*
D03*
X-7000Y32137D02*
D03*
Y28200D02*
D03*
X-14800Y96737D02*
D03*
Y92800D02*
D03*
X-7000Y35863D02*
D03*
Y39800D02*
D03*
X182000Y40637D02*
D03*
Y36700D02*
D03*
X168000Y60700D02*
D03*
Y64637D02*
D03*
X163300Y60700D02*
D03*
Y64637D02*
D03*
X163800Y90000D02*
D03*
Y86063D02*
D03*
X130300Y86700D02*
D03*
Y82763D02*
D03*
D43*
X5500Y98599D02*
D03*
Y92300D02*
D03*
X163417Y21083D02*
D03*
Y27383D02*
D03*
X135100Y88900D02*
D03*
Y82601D02*
D03*
X140600Y88900D02*
D03*
Y82601D02*
D03*
D44*
X41299Y81900D02*
D03*
X35000D02*
D03*
X35701Y91300D02*
D03*
X42000D02*
D03*
X179001Y66900D02*
D03*
X185300D02*
D03*
X172501Y60600D02*
D03*
X178800D02*
D03*
X115400Y75400D02*
D03*
X121699D02*
D03*
D45*
X151800Y102200D02*
D03*
X162824D02*
D03*
D46*
X170400Y39800D02*
D03*
D47*
X33700Y111600D02*
D03*
D48*
Y119080D02*
D03*
X23857Y115340D02*
D03*
D49*
X142900Y22505D02*
D03*
Y10695D02*
D03*
D67*
X-14700Y44000D02*
D03*
Y34000D02*
D03*
Y24000D02*
D03*
X600Y43900D02*
D03*
Y33900D02*
D03*
Y23900D02*
D03*
D68*
X-11600Y6900D02*
D03*
X203000D02*
D03*
X-11600Y115200D02*
D03*
X203000D02*
D03*
D69*
X174016Y19947D02*
D03*
X155026Y10447D02*
D03*
X133900Y10847D02*
D03*
D70*
X15626Y115347D02*
D03*
X173228Y112205D02*
D03*
M02*
