%FSLAX25Y25*%
%MOIN*%
G70*
G01*
G75*
G04 Layer_Color=32896*
%ADD10C,0.02000*%
%ADD11C,0.01500*%
%ADD12C,0.00600*%
%ADD13C,0.01000*%
%ADD14C,0.03000*%
%ADD15C,0.00800*%
%ADD16C,0.02500*%
%ADD17R,0.02362X0.02756*%
%ADD18O,0.05906X0.01575*%
%ADD19R,0.06299X0.10630*%
%ADD20R,0.05512X0.08661*%
%ADD21R,0.05512X0.03543*%
%ADD22R,0.04331X0.05118*%
%ADD23C,0.05906*%
%ADD24R,0.03937X0.12205*%
%ADD25R,0.03937X0.03937*%
%ADD26R,0.05118X0.03150*%
%ADD27R,0.11024X0.08268*%
%ADD28R,0.03543X0.03740*%
%ADD29R,0.03543X0.03740*%
%ADD30O,0.05906X0.00984*%
%ADD31O,0.00984X0.05906*%
%ADD32R,0.03937X0.01378*%
%ADD33O,0.00984X0.02756*%
%ADD34O,0.02756X0.00984*%
%ADD35R,0.10236X0.10630*%
%ADD36R,0.02362X0.03150*%
%ADD37R,0.03150X0.03150*%
%ADD38R,0.03150X0.02362*%
%ADD39R,0.04331X0.03937*%
%ADD40R,0.03150X0.05118*%
%ADD41R,0.08268X0.11024*%
%ADD42R,0.02756X0.02362*%
%ADD43R,0.03500X0.02800*%
%ADD44R,0.02800X0.03500*%
%ADD45R,0.05512X0.06693*%
%ADD46C,0.04724*%
%ADD47R,0.03740X0.03543*%
%ADD48R,0.03740X0.03543*%
%ADD49R,0.07087X0.06299*%
%ADD50R,0.17500X0.26100*%
%ADD51R,0.08900X0.23700*%
%ADD52R,0.37800X0.08900*%
%ADD53R,0.18600X0.12500*%
%ADD54R,0.05300X0.15000*%
%ADD55R,0.08700X0.14600*%
%ADD56R,0.18300X0.06800*%
%ADD57R,0.03100X0.10500*%
%ADD58R,0.27600X0.08000*%
%ADD59R,0.20600X0.13700*%
%ADD60R,0.06700X0.23500*%
%ADD61R,0.10900X0.06800*%
%ADD62R,0.07900X0.07000*%
%ADD63R,0.14900X0.03900*%
%ADD64R,0.05900X0.18900*%
%ADD65R,0.06800X0.03800*%
%ADD66R,0.08500X0.03500*%
%ADD67C,0.07087*%
%ADD68C,0.15748*%
%ADD69R,0.05906X0.05906*%
%ADD70R,0.05906X0.05906*%
%ADD71C,0.01969*%
%ADD72C,0.01575*%
%ADD73C,0.02559*%
%ADD74C,0.02362*%
G04:AMPARAMS|DCode=75|XSize=157.48mil|YSize=118.11mil|CornerRadius=0mil|HoleSize=0mil|Usage=FLASHONLY|Rotation=0.000|XOffset=0mil|YOffset=0mil|HoleType=Round|Shape=Octagon|*
%AMOCTAGOND75*
4,1,8,0.07874,-0.02953,0.07874,0.02953,0.04921,0.05906,-0.04921,0.05906,-0.07874,0.02953,-0.07874,-0.02953,-0.04921,-0.05906,0.04921,-0.05906,0.07874,-0.02953,0.0*
%
%ADD75OCTAGOND75*%

%ADD76O,0.15748X0.11811*%
%ADD77R,0.62400X0.08800*%
%ADD78R,0.10500X0.18500*%
%ADD79C,0.00394*%
%ADD80C,0.00984*%
%ADD81C,0.00984*%
%ADD82C,0.00787*%
%ADD83C,0.00591*%
%ADD84C,0.00500*%
%ADD85C,0.00300*%
%ADD86R,0.03984X0.12820*%
%ADD87O,0.05506X0.01175*%
%ADD88C,0.00100*%
%ADD89R,0.03162X0.03556*%
%ADD90O,0.06706X0.02375*%
%ADD91R,0.07099X0.11430*%
%ADD92R,0.06312X0.09461*%
%ADD93R,0.06312X0.04343*%
%ADD94R,0.05131X0.05918*%
%ADD95C,0.06706*%
%ADD96R,0.04737X0.13005*%
%ADD97R,0.04737X0.04737*%
%ADD98R,0.05918X0.03950*%
%ADD99R,0.11824X0.09068*%
%ADD100R,0.04343X0.04540*%
%ADD101R,0.04343X0.04540*%
%ADD102O,0.06706X0.01784*%
%ADD103O,0.01784X0.06706*%
%ADD104R,0.04737X0.02178*%
%ADD105O,0.01784X0.03556*%
%ADD106O,0.03556X0.01784*%
%ADD107R,0.11036X0.11430*%
%ADD108R,0.03162X0.03950*%
%ADD109R,0.03950X0.03950*%
%ADD110R,0.03950X0.03162*%
%ADD111R,0.05131X0.04737*%
%ADD112R,0.03950X0.05918*%
%ADD113R,0.09068X0.11824*%
%ADD114R,0.03556X0.03162*%
%ADD115R,0.04300X0.03600*%
%ADD116R,0.03600X0.04300*%
%ADD117R,0.06312X0.07493*%
%ADD118C,0.05524*%
%ADD119R,0.04540X0.04343*%
%ADD120R,0.04540X0.04343*%
%ADD121R,0.07887X0.07099*%
%ADD122C,0.07887*%
%ADD123C,0.16548*%
%ADD124R,0.06706X0.06706*%
%ADD125R,0.06706X0.06706*%
%ADD126C,0.02769*%
%ADD127C,0.02375*%
%ADD128C,0.03359*%
%ADD129C,0.03162*%
G04:AMPARAMS|DCode=130|XSize=165.48mil|YSize=126.11mil|CornerRadius=0mil|HoleSize=0mil|Usage=FLASHONLY|Rotation=0.000|XOffset=0mil|YOffset=0mil|HoleType=Round|Shape=Octagon|*
%AMOCTAGOND130*
4,1,8,0.08274,-0.03153,0.08274,0.03153,0.05121,0.06306,-0.05121,0.06306,-0.08274,0.03153,-0.08274,-0.03153,-0.05121,-0.06306,0.05121,-0.06306,0.08274,-0.03153,0.0*
%
%ADD130OCTAGOND130*%

%ADD131O,0.16548X0.12611*%
%ADD132C,0.01200*%
D13*
X146498Y15768D02*
G03*
X146498Y15768I-12598J0D01*
G01*
D84*
X42900Y76899D02*
X40900Y73900D01*
Y76899D02*
X42900Y73900D01*
X40229Y76899D02*
Y73900D01*
Y76899D02*
X39229D01*
X38801Y76757D01*
X38515Y76471D01*
X38372Y76185D01*
X38230Y75757D01*
Y75043D01*
X38372Y74614D01*
X38515Y74329D01*
X38801Y74043D01*
X39229Y73900D01*
X40229D01*
X35273D02*
X36416Y76899D01*
X37558Y73900D01*
X37130Y74900D02*
X35702D01*
X46400Y84499D02*
X44400Y81500D01*
Y84499D02*
X46400Y81500D01*
X41587Y83785D02*
X41730Y84071D01*
X42015Y84356D01*
X42301Y84499D01*
X42872D01*
X43158Y84356D01*
X43444Y84071D01*
X43586Y83785D01*
X43729Y83357D01*
Y82643D01*
X43586Y82214D01*
X43444Y81928D01*
X43158Y81643D01*
X42872Y81500D01*
X42301D01*
X42015Y81643D01*
X41730Y81928D01*
X41587Y82214D01*
X40744Y84499D02*
Y81500D01*
X39030D01*
X19686Y69299D02*
X21114D01*
X21257Y68014D01*
X21114Y68157D01*
X20686Y68300D01*
X20257D01*
X19829Y68157D01*
X19543Y67871D01*
X19400Y67443D01*
Y67157D01*
X19543Y66729D01*
X19829Y66443D01*
X20257Y66300D01*
X20686D01*
X21114Y66443D01*
X21257Y66586D01*
X21400Y66871D01*
X18729Y69299D02*
X17586Y66300D01*
X16444Y69299D02*
X17586Y66300D01*
X45358Y92885D02*
X45500Y93171D01*
X45786Y93457D01*
X46072Y93599D01*
X46643D01*
X46929Y93457D01*
X47214Y93171D01*
X47357Y92885D01*
X47500Y92457D01*
Y91743D01*
X47357Y91314D01*
X47214Y91028D01*
X46929Y90743D01*
X46643Y90600D01*
X46072D01*
X45786Y90743D01*
X45500Y91028D01*
X45358Y91314D01*
Y91743D01*
X46072D02*
X45358D01*
X44672Y93599D02*
Y90600D01*
Y93599D02*
X42673Y90600D01*
Y93599D02*
Y90600D01*
X41844Y93599D02*
Y90600D01*
Y93599D02*
X40844D01*
X40416Y93457D01*
X40130Y93171D01*
X39987Y92885D01*
X39845Y92457D01*
Y91743D01*
X39987Y91314D01*
X40130Y91028D01*
X40416Y90743D01*
X40844Y90600D01*
X41844D01*
X77000Y63071D02*
X77286Y63357D01*
X77715Y63499D01*
X78286D01*
X78714Y63357D01*
X79000Y63071D01*
Y62785D01*
X78857Y62500D01*
X78714Y62357D01*
X78429Y62214D01*
X77572Y61928D01*
X77286Y61785D01*
X77143Y61643D01*
X77000Y61357D01*
Y60928D01*
X77286Y60643D01*
X77715Y60500D01*
X78286D01*
X78714Y60643D01*
X79000Y60928D01*
X74187Y62785D02*
X74330Y63071D01*
X74615Y63357D01*
X74901Y63499D01*
X75472D01*
X75758Y63357D01*
X76043Y63071D01*
X76186Y62785D01*
X76329Y62357D01*
Y61643D01*
X76186Y61214D01*
X76043Y60928D01*
X75758Y60643D01*
X75472Y60500D01*
X74901D01*
X74615Y60643D01*
X74330Y60928D01*
X74187Y61214D01*
X73344Y63499D02*
Y60500D01*
X71630D01*
X71016Y63499D02*
X69445D01*
X70302Y62357D01*
X69873D01*
X69588Y62214D01*
X69445Y62071D01*
X69302Y61643D01*
Y61357D01*
X69445Y60928D01*
X69731Y60643D01*
X70159Y60500D01*
X70587D01*
X71016Y60643D01*
X71159Y60786D01*
X71302Y61071D01*
X76900Y56371D02*
X77186Y56656D01*
X77615Y56799D01*
X78186D01*
X78614Y56656D01*
X78900Y56371D01*
Y56085D01*
X78757Y55800D01*
X78614Y55657D01*
X78329Y55514D01*
X77472Y55228D01*
X77186Y55085D01*
X77043Y54943D01*
X76900Y54657D01*
Y54229D01*
X77186Y53943D01*
X77615Y53800D01*
X78186D01*
X78614Y53943D01*
X78900Y54229D01*
X76229Y56799D02*
Y53800D01*
Y56799D02*
X75229D01*
X74801Y56656D01*
X74515Y56371D01*
X74372Y56085D01*
X74230Y55657D01*
Y54943D01*
X74372Y54514D01*
X74515Y54229D01*
X74801Y53943D01*
X75229Y53800D01*
X76229D01*
X71273D02*
X72416Y56799D01*
X73558Y53800D01*
X73130Y54800D02*
X71702D01*
X70288Y56799D02*
X68717D01*
X69573Y55657D01*
X69145D01*
X68859Y55514D01*
X68717Y55371D01*
X68574Y54943D01*
Y54657D01*
X68717Y54229D01*
X69002Y53943D01*
X69431Y53800D01*
X69859D01*
X70288Y53943D01*
X70430Y54086D01*
X70573Y54371D01*
X82958Y42085D02*
X83100Y42371D01*
X83386Y42656D01*
X83672Y42799D01*
X84243D01*
X84529Y42656D01*
X84814Y42371D01*
X84957Y42085D01*
X85100Y41657D01*
Y40943D01*
X84957Y40514D01*
X84814Y40229D01*
X84529Y39943D01*
X84243Y39800D01*
X83672D01*
X83386Y39943D01*
X83100Y40229D01*
X82958Y40514D01*
Y40943D01*
X83672D02*
X82958D01*
X82272Y42799D02*
Y39800D01*
Y42799D02*
X80273Y39800D01*
Y42799D02*
Y39800D01*
X79444Y42799D02*
Y39800D01*
Y42799D02*
X78444D01*
X78016Y42656D01*
X77730Y42371D01*
X77587Y42085D01*
X77444Y41657D01*
Y40943D01*
X77587Y40514D01*
X77730Y40229D01*
X78016Y39943D01*
X78444Y39800D01*
X79444D01*
X81200Y48799D02*
Y45800D01*
X79200Y48799D02*
Y45800D01*
X81200Y47371D02*
X79200D01*
X78372Y48799D02*
Y45800D01*
Y48799D02*
X77372D01*
X76944Y48656D01*
X76658Y48371D01*
X76515Y48085D01*
X76372Y47657D01*
Y46943D01*
X76515Y46514D01*
X76658Y46229D01*
X76944Y45943D01*
X77372Y45800D01*
X78372D01*
X75701Y48799D02*
Y45800D01*
Y48799D02*
X74416D01*
X73987Y48656D01*
X73844Y48514D01*
X73702Y48228D01*
Y47942D01*
X73844Y47657D01*
X73987Y47514D01*
X74416Y47371D01*
X75701D01*
X74701D02*
X73702Y45800D01*
X73030Y48799D02*
Y45800D01*
Y48799D02*
X72031D01*
X71602Y48656D01*
X71316Y48371D01*
X71174Y48085D01*
X71031Y47657D01*
Y46943D01*
X71174Y46514D01*
X71316Y46229D01*
X71602Y45943D01*
X72031Y45800D01*
X73030D01*
X70359Y48799D02*
X69217Y47371D01*
Y45800D01*
X68074Y48799D02*
X69217Y47371D01*
X67689Y48228D02*
X67403Y48371D01*
X66975Y48799D01*
Y45800D01*
X124586Y76399D02*
X126014D01*
X126157Y75114D01*
X126014Y75257D01*
X125586Y75400D01*
X125157D01*
X124729Y75257D01*
X124443Y74971D01*
X124300Y74543D01*
Y74257D01*
X124443Y73829D01*
X124729Y73543D01*
X125157Y73400D01*
X125586D01*
X126014Y73543D01*
X126157Y73686D01*
X126300Y73971D01*
X123629Y76399D02*
X122486Y73400D01*
X121344Y76399D02*
X122486Y73400D01*
D85*
X28650Y67051D02*
X30316Y69550D01*
Y67051D02*
X28650Y69550D01*
X31149Y67051D02*
Y69550D01*
X32399D01*
X32815Y69134D01*
Y67467D01*
X32399Y67051D01*
X31149D01*
X33648Y69550D02*
Y67884D01*
X34481Y67051D01*
X35315Y67884D01*
Y69550D01*
Y68300D01*
X33648D01*
X32250Y74351D02*
X33916Y76850D01*
Y74351D02*
X32250Y76850D01*
X36415Y74767D02*
X35999Y74351D01*
X35166D01*
X34749Y74767D01*
Y76433D01*
X35166Y76850D01*
X35999D01*
X36415Y76433D01*
X37248Y74351D02*
Y76850D01*
X38914D01*
X205600Y55300D02*
Y57799D01*
X204350D01*
X203934Y57383D01*
Y56550D01*
X204350Y56133D01*
X205600D01*
X203101Y55300D02*
X202268D01*
X202684D01*
Y57799D01*
X203101Y57383D01*
X201018D02*
X200602Y57799D01*
X199769D01*
X199352Y57383D01*
Y56966D01*
X199769Y56550D01*
X200185D01*
X199769D01*
X199352Y56133D01*
Y55717D01*
X199769Y55300D01*
X200602D01*
X201018Y55717D01*
X205200Y70700D02*
Y73199D01*
X203950D01*
X203534Y72783D01*
Y71950D01*
X203950Y71533D01*
X205200D01*
X202701Y70700D02*
X201868D01*
X202284D01*
Y73199D01*
X202701Y72783D01*
X200618Y70700D02*
X199785D01*
X200202D01*
Y73199D01*
X200618Y72783D01*
X142334Y12583D02*
X142750Y12999D01*
X143584D01*
X144000Y12583D01*
Y10916D01*
X143584Y10500D01*
X142750D01*
X142334Y10916D01*
X141501Y12583D02*
X141084Y12999D01*
X140251D01*
X139835Y12583D01*
Y12166D01*
X140251Y11750D01*
X140668D01*
X140251D01*
X139835Y11333D01*
Y10916D01*
X140251Y10500D01*
X141084D01*
X141501Y10916D01*
X137336Y10500D02*
X139002D01*
X137336Y12166D01*
Y12583D01*
X137752Y12999D01*
X138585D01*
X139002Y12583D01*
X130584Y83449D02*
X132250D01*
Y82200D01*
X131417Y82616D01*
X131000D01*
X130584Y82200D01*
Y81366D01*
X131000Y80950D01*
X131834D01*
X132250Y81366D01*
X129751Y83449D02*
Y81783D01*
X128918Y80950D01*
X128085Y81783D01*
Y83449D01*
X88816Y34467D02*
X88400Y34051D01*
X87567D01*
X87150Y34467D01*
Y36134D01*
X87567Y36550D01*
X88400D01*
X88816Y36134D01*
Y35300D01*
X87983D01*
X89649Y36550D02*
Y34051D01*
X91315Y36550D01*
Y34051D01*
X92148D02*
Y36550D01*
X93398D01*
X93814Y36134D01*
Y34467D01*
X93398Y34051D01*
X92148D01*
X83550Y40451D02*
Y42950D01*
Y41700D01*
X85216D01*
Y40451D01*
Y42950D01*
X86049Y40451D02*
Y42950D01*
X87299D01*
X87715Y42533D01*
Y40867D01*
X87299Y40451D01*
X86049D01*
X88548Y42950D02*
Y40451D01*
X89798D01*
X90215Y40867D01*
Y41700D01*
X89798Y42117D01*
X88548D01*
X89381D02*
X90215Y42950D01*
X91048Y40451D02*
Y42950D01*
X92297D01*
X92714Y42533D01*
Y40867D01*
X92297Y40451D01*
X91048D01*
X93547D02*
Y40867D01*
X94380Y41700D01*
X95213Y40867D01*
Y40451D01*
X94380Y41700D02*
Y42950D01*
X96046D02*
X96879D01*
X96463D01*
Y40451D01*
X96046Y40867D01*
X82116Y54067D02*
X81700Y53651D01*
X80866D01*
X80450Y54067D01*
Y54484D01*
X80866Y54900D01*
X81700D01*
X82116Y55317D01*
Y55734D01*
X81700Y56150D01*
X80866D01*
X80450Y55734D01*
X84615Y54067D02*
X84199Y53651D01*
X83366D01*
X82949Y54067D01*
Y55734D01*
X83366Y56150D01*
X84199D01*
X84615Y55734D01*
X85448Y53651D02*
Y56150D01*
X87115D01*
X87948Y54067D02*
X88364Y53651D01*
X89197D01*
X89614Y54067D01*
Y54484D01*
X89197Y54900D01*
X88781D01*
X89197D01*
X89614Y55317D01*
Y55734D01*
X89197Y56150D01*
X88364D01*
X87948Y55734D01*
X82916Y47667D02*
X82500Y47251D01*
X81666D01*
X81250Y47667D01*
Y48084D01*
X81666Y48500D01*
X82500D01*
X82916Y48917D01*
Y49334D01*
X82500Y49750D01*
X81666D01*
X81250Y49334D01*
X83749Y47251D02*
Y49750D01*
X84999D01*
X85415Y49334D01*
Y47667D01*
X84999Y47251D01*
X83749D01*
X86248Y49750D02*
Y48084D01*
X87081Y47251D01*
X87915Y48084D01*
Y49750D01*
Y48500D01*
X86248D01*
X88748Y47667D02*
X89164Y47251D01*
X89997D01*
X90414Y47667D01*
Y48084D01*
X89997Y48500D01*
X89581D01*
X89997D01*
X90414Y48917D01*
Y49334D01*
X89997Y49750D01*
X89164D01*
X88748Y49334D01*
D132*
X121300Y15768D02*
X146317D01*
X125100Y9569D02*
X129100D01*
X127200Y7269D02*
Y11269D01*
X134050Y28319D02*
X146200Y16169D01*
X128800Y27369D02*
X140400Y15768D01*
X124250Y23419D02*
X131900Y15768D01*
X122000Y18170D02*
X124300Y15869D01*
M02*
