%FSLAX25Y25*%
%MOIN*%
G70*
G01*
G75*
%ADD10C,0.00500*%
%ADD11C,0.00667*%
D10*
X-16472Y44000D02*
X-12928D01*
X-14700Y42228D02*
Y45772D01*
X-16472Y34000D02*
X-12928D01*
X-14700Y32228D02*
Y35772D01*
X-16472Y24000D02*
X-12928D01*
X-14700Y22228D02*
Y25772D01*
X-1172Y43900D02*
X2372D01*
X600Y42128D02*
Y45672D01*
X-1172Y33900D02*
X2372D01*
X600Y32128D02*
Y35672D01*
X-1172Y23900D02*
X2372D01*
X600Y22128D02*
Y25672D01*
X-16521Y6900D02*
X-6679D01*
X-11600Y1979D02*
Y11821D01*
X198079Y6900D02*
X207921D01*
X203000Y1979D02*
Y11821D01*
X-16521Y115200D02*
X-6679D01*
X-11600Y110279D02*
Y120121D01*
X198079Y115200D02*
X207921D01*
X203000Y110279D02*
Y120121D01*
X172244Y19947D02*
X175787D01*
X174016Y18176D02*
Y21719D01*
X172244Y29947D02*
X175787D01*
X174016Y28176D02*
Y31719D01*
X153254Y10447D02*
X156798D01*
X155026Y8676D02*
Y12219D01*
X153254Y20447D02*
X156798D01*
X155026Y18676D02*
Y22219D01*
X13854Y115347D02*
X17398D01*
X15626Y113576D02*
Y117119D01*
X3854Y115347D02*
X7398D01*
X5626Y113576D02*
Y117119D01*
X171457Y112205D02*
X175000D01*
X173228Y110433D02*
Y113976D01*
X161457Y112205D02*
X165000D01*
X163228Y110433D02*
Y113976D01*
X151457Y112205D02*
X155000D01*
X153228Y110433D02*
Y113976D01*
X132128Y10847D02*
X135672D01*
X133900Y9076D02*
Y12619D01*
X132128Y20690D02*
X135672D01*
X133900Y18918D02*
Y22461D01*
X81510Y94600D02*
X82691D01*
X82100Y94010D02*
Y95191D01*
X78710Y97500D02*
X79891D01*
X79300Y96909D02*
Y98090D01*
X172709Y64600D02*
X173891D01*
X173300Y64009D02*
Y65191D01*
X159109Y73700D02*
X160291D01*
X159700Y73110D02*
Y74291D01*
X155509Y73700D02*
X156691D01*
X156100Y73110D02*
Y74291D01*
X102509Y33400D02*
X103691D01*
X103100Y32809D02*
Y33991D01*
X102409Y35600D02*
X103591D01*
X103000Y35009D02*
Y36191D01*
X8509Y15500D02*
X9691D01*
X9100Y14909D02*
Y16091D01*
X35209Y11900D02*
X36391D01*
X35800Y11309D02*
Y12491D01*
X21210Y120800D02*
X22390D01*
X21800Y120209D02*
Y121391D01*
X-1791Y109900D02*
X-610D01*
X-1200Y109309D02*
Y110491D01*
X-1591Y120700D02*
X-410D01*
X-1000Y120109D02*
Y121291D01*
X53409Y117300D02*
X54590D01*
X54000Y116709D02*
Y117891D01*
X48809Y117400D02*
X49991D01*
X49400Y116809D02*
Y117991D01*
X58009Y117200D02*
X59190D01*
X58600Y116609D02*
Y117791D01*
X45309Y87000D02*
X46491D01*
X45900Y86409D02*
Y87590D01*
X56109Y100500D02*
X57291D01*
X56700Y99910D02*
Y101091D01*
X63010Y117300D02*
X64191D01*
X63600Y116709D02*
Y117891D01*
X58947Y91937D02*
X60128D01*
X59537Y91347D02*
Y92528D01*
X106609Y73200D02*
X107791D01*
X107200Y72610D02*
Y73791D01*
X100010Y83000D02*
X101190D01*
X100600Y82410D02*
Y83591D01*
X100010Y85900D02*
X101190D01*
X100600Y85309D02*
Y86490D01*
X100010Y89100D02*
X101190D01*
X100600Y88510D02*
Y89691D01*
X126909Y85300D02*
X128091D01*
X127500Y84710D02*
Y85891D01*
X128809Y90400D02*
X129991D01*
X129400Y89810D02*
Y90991D01*
X145209Y106000D02*
X146391D01*
X145800Y105409D02*
Y106591D01*
X155009Y87600D02*
X156191D01*
X155600Y87010D02*
Y88191D01*
X154909Y90300D02*
X156091D01*
X155500Y89710D02*
Y90891D01*
X153009Y46100D02*
X154191D01*
X153600Y45509D02*
Y46691D01*
X123009Y40500D02*
X124191D01*
X123600Y39909D02*
Y41091D01*
X84210Y72700D02*
X85391D01*
X84800Y72110D02*
Y73290D01*
X79710Y72700D02*
X80891D01*
X80300Y72110D02*
Y73290D01*
X74809Y72900D02*
X75990D01*
X75400Y72309D02*
Y73491D01*
X57010Y40600D02*
X58191D01*
X57600Y40009D02*
Y41191D01*
X56510Y24900D02*
X57691D01*
X57100Y24309D02*
Y25490D01*
X106209Y51000D02*
X107391D01*
X106800Y50409D02*
Y51591D01*
X114209Y92700D02*
X115391D01*
X114800Y92110D02*
Y93291D01*
X144709Y116400D02*
X145891D01*
X145300Y115809D02*
Y116991D01*
X89009Y29400D02*
X90191D01*
X89600Y28809D02*
Y29991D01*
X68709Y95400D02*
X69890D01*
X69300Y94810D02*
Y95991D01*
X48609Y80600D02*
X49791D01*
X49200Y80010D02*
Y81191D01*
X51910Y74100D02*
X53091D01*
X52500Y73510D02*
Y74691D01*
X63209Y29100D02*
X64390D01*
X63800Y28509D02*
Y29691D01*
X50809Y29100D02*
X51990D01*
X51400Y28509D02*
Y29691D01*
X115609Y32600D02*
X116791D01*
X116200Y32009D02*
Y33191D01*
X116709Y32800D02*
X117891D01*
X117300Y32209D02*
Y33391D01*
X2210Y78600D02*
X3391D01*
X2800Y78009D02*
Y79190D01*
X51310Y110200D02*
X52491D01*
X51900Y109609D02*
Y110791D01*
X23110Y103900D02*
X24291D01*
X23700Y103309D02*
Y104491D01*
X31395Y57214D02*
X32576D01*
X31986Y56624D02*
Y57805D01*
X55010Y92900D02*
X56191D01*
X55600Y92309D02*
Y93490D01*
X74910Y103900D02*
X76091D01*
X75500Y103309D02*
Y104491D01*
X74910Y95500D02*
X76091D01*
X75500Y94910D02*
Y96091D01*
X178409Y63200D02*
X179591D01*
X179000Y62609D02*
Y63791D01*
X178409Y63200D02*
X179591D01*
X179000Y62609D02*
Y63791D01*
X177609Y63700D02*
X178791D01*
X178200Y63109D02*
Y64290D01*
X177709Y40637D02*
X178891D01*
X178300Y40047D02*
Y41228D01*
X176909Y41100D02*
X178091D01*
X177500Y40509D02*
Y41691D01*
X104759Y107850D02*
X105941D01*
X105350Y107259D02*
Y108441D01*
X105209Y108300D02*
X106391D01*
X105800Y107709D02*
Y108891D01*
X105309Y109500D02*
X106491D01*
X105900Y108909D02*
Y110091D01*
X16309Y72400D02*
X17491D01*
X16900Y71810D02*
Y72991D01*
X16309Y73800D02*
X17491D01*
X16900Y73210D02*
Y74391D01*
X25409Y13100D02*
X26591D01*
X26000Y12509D02*
Y13690D01*
X25409Y12100D02*
X26591D01*
X26000Y11509D02*
Y12691D01*
X145509Y45300D02*
X146691D01*
X146100Y44709D02*
Y45891D01*
X145509Y50500D02*
X146691D01*
X146100Y49909D02*
Y51091D01*
X58909Y77700D02*
X60091D01*
X59500Y77109D02*
Y78290D01*
X62410Y77600D02*
X63591D01*
X63000Y77009D02*
Y78190D01*
X197709Y68600D02*
X198891D01*
X198300Y68010D02*
Y69191D01*
X202109Y68500D02*
X203291D01*
X202700Y67909D02*
Y69090D01*
X206109Y68600D02*
X207291D01*
X206700Y68010D02*
Y69191D01*
X206010Y72900D02*
X207190D01*
X206600Y72309D02*
Y73491D01*
X202109Y72900D02*
X203291D01*
X202700Y72309D02*
Y73491D01*
X197809Y73000D02*
X198991D01*
X198400Y72409D02*
Y73590D01*
X206010Y76600D02*
X207190D01*
X206600Y76010D02*
Y77191D01*
X202009Y76500D02*
X203191D01*
X202600Y75910D02*
Y77091D01*
X197809Y76500D02*
X198991D01*
X198400Y75910D02*
Y77091D01*
X87609Y53900D02*
X88791D01*
X88200Y53310D02*
Y54491D01*
X87010Y57900D02*
X88191D01*
X87600Y57310D02*
Y58491D01*
X87809Y61600D02*
X88990D01*
X88400Y61010D02*
Y62191D01*
X99309Y50800D02*
X100490D01*
X99900Y50209D02*
Y51390D01*
X98610Y57000D02*
X99791D01*
X99200Y56410D02*
Y57591D01*
X98610Y60100D02*
X99791D01*
X99200Y59509D02*
Y60690D01*
X40409Y104500D02*
X41591D01*
X41000Y103909D02*
Y105091D01*
X30009Y82250D02*
X31191D01*
X30600Y81659D02*
Y82840D01*
X27209Y80000D02*
X28391D01*
X27800Y79409D02*
Y80590D01*
X108231Y97421D02*
X109412D01*
X108821Y96831D02*
Y98012D01*
X102809Y97400D02*
X103991D01*
X103400Y96810D02*
Y97991D01*
X98409Y63600D02*
X99590D01*
X99000Y63010D02*
Y64191D01*
X136609Y108200D02*
X137791D01*
X137200Y107609D02*
Y108791D01*
X133009Y108200D02*
X134191D01*
X133600Y107609D02*
Y108791D01*
X109388Y20979D02*
X110569D01*
X109979Y20388D02*
Y21569D01*
X114309Y20900D02*
X115491D01*
X114900Y20310D02*
Y21490D01*
X130409Y45500D02*
X131591D01*
X131000Y44909D02*
Y46091D01*
X130409Y49400D02*
X131591D01*
X131000Y48809D02*
Y49991D01*
X98613Y12200D02*
X100187D01*
X99400Y11413D02*
Y12987D01*
X101813Y12200D02*
X103387D01*
X102600Y11413D02*
Y12987D01*
X104813Y12300D02*
X106387D01*
X105600Y11513D02*
Y13087D01*
X98713Y9500D02*
X100287D01*
X99500Y8713D02*
Y10287D01*
X101913Y9500D02*
X103487D01*
X102700Y8713D02*
Y10287D01*
X104913Y9500D02*
X106487D01*
X105700Y8713D02*
Y10287D01*
X102113Y6600D02*
X103687D01*
X102900Y5813D02*
Y7387D01*
X105013Y6600D02*
X106587D01*
X105800Y5813D02*
Y7387D01*
X98813Y6600D02*
X100387D01*
X99600Y5813D02*
Y7387D01*
X129709Y78200D02*
X130891D01*
X130300Y77609D02*
Y78790D01*
X9709Y97800D02*
X10891D01*
X10300Y97210D02*
Y98391D01*
X9709Y81400D02*
X10891D01*
X10300Y80809D02*
Y81990D01*
X-6691Y52100D02*
X-5509D01*
X-6100Y51509D02*
Y52691D01*
X-4391Y55000D02*
X-3209D01*
X-3800Y54409D02*
Y55590D01*
X68410Y117200D02*
X69591D01*
X69000Y116609D02*
Y117791D01*
X23609Y72700D02*
X24791D01*
X24200Y72110D02*
Y73290D01*
X25709Y62200D02*
X26891D01*
X26300Y61610D02*
Y62791D01*
X17510Y53400D02*
X18690D01*
X18100Y52810D02*
Y53991D01*
X49309Y41000D02*
X50491D01*
X49900Y40409D02*
Y41591D01*
X50509Y37800D02*
X51691D01*
X51100Y37209D02*
Y38391D01*
X40109Y43300D02*
X41291D01*
X40700Y42709D02*
Y43891D01*
X4309Y60400D02*
X5491D01*
X4900Y59809D02*
Y60991D01*
X23110Y48900D02*
X24291D01*
X23700Y48309D02*
Y49491D01*
X40109Y69900D02*
X41291D01*
X40700Y69310D02*
Y70490D01*
X46009Y91800D02*
X47191D01*
X46600Y91210D02*
Y92391D01*
X36209Y100000D02*
X37391D01*
X36800Y99410D02*
Y100591D01*
X35809Y69600D02*
X36991D01*
X36400Y69010D02*
Y70191D01*
X78210Y5900D02*
X79391D01*
X78800Y5309D02*
Y6491D01*
X85009Y5700D02*
X86190D01*
X85600Y5109D02*
Y6291D01*
X93110Y5500D02*
X94291D01*
X93700Y4909D02*
Y6091D01*
X15609Y4300D02*
X16791D01*
X16200Y3709D02*
Y4891D01*
X25409Y4000D02*
X26591D01*
X26000Y3409D02*
Y4591D01*
X35909Y3900D02*
X37091D01*
X36500Y3309D02*
Y4491D01*
X80709Y110700D02*
X81890D01*
X81300Y110109D02*
Y111291D01*
X-17290Y76800D02*
X-16109D01*
X-16700Y76209D02*
Y77390D01*
X-17391Y66800D02*
X-16209D01*
X-16800Y66210D02*
Y67391D01*
X-17790Y104300D02*
X-16610D01*
X-17200Y103709D02*
Y104891D01*
X94109Y117000D02*
X95290D01*
X94700Y116409D02*
Y117591D01*
X104709Y116900D02*
X105891D01*
X105300Y116309D02*
Y117491D01*
X115009Y116700D02*
X116191D01*
X115600Y116109D02*
Y117291D01*
X153809Y120600D02*
X154991D01*
X154400Y120009D02*
Y121191D01*
X173909Y120500D02*
X175091D01*
X174500Y119909D02*
Y121091D01*
X190709Y120800D02*
X191891D01*
X191300Y120209D02*
Y121391D01*
X183909Y110900D02*
X185091D01*
X184500Y110309D02*
Y111491D01*
X183809Y115900D02*
X184991D01*
X184400Y115309D02*
Y116491D01*
X183809Y120800D02*
X184991D01*
X184400Y120209D02*
Y121391D01*
X190909Y115900D02*
X192091D01*
X191500Y115309D02*
Y116491D01*
X191109Y110900D02*
X192291D01*
X191700Y110309D02*
Y111491D01*
X191209Y101300D02*
X192391D01*
X191800Y100709D02*
Y101891D01*
X198309Y92000D02*
X199491D01*
X198900Y91409D02*
Y92590D01*
X203209Y92000D02*
X204391D01*
X203800Y91409D02*
Y92590D01*
X207909Y92000D02*
X209090D01*
X208500Y91409D02*
Y92590D01*
X198509Y87200D02*
X199691D01*
X199100Y86610D02*
Y87791D01*
X203309Y87100D02*
X204491D01*
X203900Y86510D02*
Y87691D01*
X208010Y87000D02*
X209191D01*
X208600Y86409D02*
Y87590D01*
X198709Y82200D02*
X199891D01*
X199300Y81609D02*
Y82790D01*
X203409Y81900D02*
X204591D01*
X204000Y81309D02*
Y82490D01*
X208010Y82000D02*
X209191D01*
X208600Y81410D02*
Y82591D01*
X198009Y57800D02*
X199191D01*
X198600Y57209D02*
Y58390D01*
X206809Y57400D02*
X207991D01*
X207400Y56810D02*
Y57990D01*
X206509Y49600D02*
X207691D01*
X207100Y49009D02*
Y50191D01*
X202209Y53600D02*
X203391D01*
X202800Y53009D02*
Y54190D01*
X188709Y51200D02*
X189891D01*
X189300Y50609D02*
Y51790D01*
X183309Y51200D02*
X184491D01*
X183900Y50609D02*
Y51790D01*
X207109Y39600D02*
X208291D01*
X207700Y39009D02*
Y40191D01*
X186009Y22200D02*
X187191D01*
X186600Y21610D02*
Y22791D01*
X194209Y21900D02*
X195391D01*
X194800Y21309D02*
Y22490D01*
X202509Y21700D02*
X203691D01*
X203100Y21110D02*
Y22290D01*
X192709Y1000D02*
X193891D01*
X193300Y410D02*
Y1591D01*
X180409Y14100D02*
X181591D01*
X181000Y13510D02*
Y14691D01*
X156809Y1300D02*
X157991D01*
X157400Y709D02*
Y1891D01*
X154609Y28000D02*
X155791D01*
X155200Y27409D02*
Y28591D01*
X145609Y28400D02*
X146791D01*
X146200Y27809D02*
Y28991D01*
X153209Y39200D02*
X154391D01*
X153800Y38609D02*
Y39791D01*
X153209Y33400D02*
X154391D01*
X153800Y32809D02*
Y33991D01*
X163009Y73700D02*
X164191D01*
X163600Y73110D02*
Y74291D01*
X143009Y92700D02*
X144191D01*
X143600Y92110D02*
Y93291D01*
X145109Y101000D02*
X146291D01*
X145700Y100409D02*
Y101591D01*
X137309Y92700D02*
X138491D01*
X137900Y92110D02*
Y93291D01*
X131509Y93000D02*
X132691D01*
X132100Y92409D02*
Y93590D01*
X137509Y97000D02*
X138691D01*
X138100Y96409D02*
Y97591D01*
X137709Y102500D02*
X138891D01*
X138300Y101909D02*
Y103091D01*
X141709Y97000D02*
X142891D01*
X142300Y96409D02*
Y97591D01*
X133409Y97100D02*
X134591D01*
X134000Y96509D02*
Y97690D01*
X159109Y76400D02*
X160291D01*
X159700Y75810D02*
Y76990D01*
X163009Y76600D02*
X164191D01*
X163600Y76010D02*
Y77191D01*
X124909Y69900D02*
X126091D01*
X125500Y69310D02*
Y70490D01*
X124809Y64600D02*
X125991D01*
X125400Y64009D02*
Y65191D01*
X127409Y56700D02*
X128591D01*
X128000Y56109D02*
Y57291D01*
X105809Y57300D02*
X106991D01*
X106400Y56709D02*
Y57890D01*
X105809Y64300D02*
X106991D01*
X106400Y63709D02*
Y64890D01*
X122609Y53300D02*
X123791D01*
X123200Y52710D02*
Y53891D01*
X120809Y64400D02*
X121991D01*
X121400Y63810D02*
Y64991D01*
X58609Y67600D02*
X59790D01*
X59200Y67010D02*
Y68190D01*
X58609Y61400D02*
X59790D01*
X59200Y60809D02*
Y61990D01*
X58710Y55100D02*
X59891D01*
X59300Y54510D02*
Y55690D01*
X58810Y48300D02*
X59991D01*
X59400Y47709D02*
Y48891D01*
X66710Y48000D02*
X67891D01*
X67300Y47409D02*
Y48591D01*
X66809Y55100D02*
X67990D01*
X67400Y54510D02*
Y55690D01*
X66710Y61300D02*
X67891D01*
X67300Y60710D02*
Y61891D01*
X66710Y67500D02*
X67891D01*
X67300Y66909D02*
Y68090D01*
X74910Y67500D02*
X76091D01*
X75500Y66909D02*
Y68090D01*
X74809Y61500D02*
X75990D01*
X75400Y60909D02*
Y62090D01*
X74709Y55100D02*
X75890D01*
X75300Y54510D02*
Y55690D01*
X74910Y48000D02*
X76091D01*
X75500Y47409D02*
Y48591D01*
X67010Y41600D02*
X68190D01*
X67600Y41009D02*
Y42191D01*
X84409Y67900D02*
X85590D01*
X85000Y67309D02*
Y68490D01*
X91210Y89600D02*
X92391D01*
X91800Y89009D02*
Y90191D01*
X91110Y83200D02*
X92291D01*
X91700Y82609D02*
Y83790D01*
X91710Y102000D02*
X92891D01*
X92300Y101409D02*
Y102591D01*
X57609Y3900D02*
X58790D01*
X58200Y3309D02*
Y4491D01*
X57509Y11700D02*
X58691D01*
X58100Y11109D02*
Y12291D01*
X64210Y17600D02*
X65390D01*
X64800Y17009D02*
Y18191D01*
X69510Y23000D02*
X70691D01*
X70100Y22410D02*
Y23591D01*
X-1791Y900D02*
X-610D01*
X-1200Y310D02*
Y1491D01*
X-1891Y8200D02*
X-709D01*
X-1300Y7609D02*
Y8791D01*
X-7491Y21000D02*
X-6309D01*
X-6900Y20410D02*
Y21590D01*
X-7491Y16200D02*
X-6309D01*
X-6900Y15609D02*
Y16791D01*
X10Y97900D02*
X1190D01*
X600Y97309D02*
Y98491D01*
X141309Y62200D02*
X142491D01*
X141900Y61610D02*
Y62791D01*
X130709Y64200D02*
X131891D01*
X131300Y63609D02*
Y64790D01*
X130809Y69900D02*
X131991D01*
X131400Y69310D02*
Y70490D01*
X198309Y49600D02*
X199491D01*
X198900Y49009D02*
Y50191D01*
M02*
