%FSLAX25Y25*%
%MOIN*%
G70*
G01*
G75*
G04 Layer_Color=16711935*
%ADD10C,0.02000*%
%ADD11C,0.01500*%
%ADD12C,0.00600*%
%ADD13C,0.01000*%
%ADD14C,0.03000*%
%ADD15C,0.00800*%
%ADD16C,0.02500*%
%ADD17R,0.02362X0.02756*%
%ADD18O,0.05906X0.01575*%
%ADD19R,0.06299X0.10630*%
%ADD20R,0.05512X0.08661*%
%ADD21R,0.05512X0.03543*%
%ADD22R,0.04331X0.05118*%
%ADD23C,0.05906*%
%ADD24R,0.03937X0.12205*%
%ADD25R,0.03937X0.03937*%
%ADD26R,0.05118X0.03150*%
%ADD27R,0.11024X0.08268*%
%ADD28R,0.03543X0.03740*%
%ADD29R,0.03543X0.03740*%
%ADD30O,0.05906X0.00984*%
%ADD31O,0.00984X0.05906*%
%ADD32R,0.03937X0.01378*%
%ADD33O,0.00984X0.02756*%
%ADD34O,0.02756X0.00984*%
%ADD35R,0.10236X0.10630*%
%ADD36R,0.02362X0.03150*%
%ADD37R,0.03150X0.03150*%
%ADD38R,0.03150X0.02362*%
%ADD39R,0.04331X0.03937*%
%ADD40R,0.03150X0.05118*%
%ADD41R,0.08268X0.11024*%
%ADD42R,0.02756X0.02362*%
%ADD43R,0.03500X0.02800*%
%ADD44R,0.02800X0.03500*%
%ADD45R,0.05512X0.06693*%
%ADD46C,0.04724*%
%ADD47R,0.03740X0.03543*%
%ADD48R,0.03740X0.03543*%
%ADD49R,0.07087X0.06299*%
%ADD50R,0.17500X0.26100*%
%ADD51R,0.08900X0.23700*%
%ADD52R,0.37800X0.08900*%
%ADD53R,0.18600X0.12500*%
%ADD54R,0.05300X0.15000*%
%ADD55R,0.08700X0.14600*%
%ADD56R,0.18300X0.06800*%
%ADD57R,0.03100X0.10500*%
%ADD58R,0.27600X0.08000*%
%ADD59R,0.20600X0.13700*%
%ADD60R,0.06700X0.23500*%
%ADD61R,0.10900X0.06800*%
%ADD62R,0.07900X0.07000*%
%ADD63R,0.14900X0.03900*%
%ADD64R,0.05900X0.18900*%
%ADD65R,0.06800X0.03800*%
%ADD66R,0.08500X0.03500*%
%ADD67C,0.07087*%
%ADD68C,0.15748*%
%ADD69R,0.05906X0.05906*%
%ADD70R,0.05906X0.05906*%
%ADD71C,0.01969*%
%ADD72C,0.01575*%
%ADD73C,0.02559*%
%ADD74C,0.02362*%
G04:AMPARAMS|DCode=75|XSize=157.48mil|YSize=118.11mil|CornerRadius=0mil|HoleSize=0mil|Usage=FLASHONLY|Rotation=0.000|XOffset=0mil|YOffset=0mil|HoleType=Round|Shape=Octagon|*
%AMOCTAGOND75*
4,1,8,0.07874,-0.02953,0.07874,0.02953,0.04921,0.05906,-0.04921,0.05906,-0.07874,0.02953,-0.07874,-0.02953,-0.04921,-0.05906,0.04921,-0.05906,0.07874,-0.02953,0.0*
%
%ADD75OCTAGOND75*%

%ADD76O,0.15748X0.11811*%
%ADD77R,0.62400X0.08800*%
%ADD78R,0.10500X0.18500*%
%ADD79C,0.00394*%
%ADD80C,0.00984*%
%ADD81C,0.00984*%
%ADD82C,0.00787*%
%ADD83C,0.00591*%
%ADD84C,0.00500*%
%ADD85C,0.00300*%
%ADD86R,0.03984X0.12820*%
%ADD87O,0.05506X0.01175*%
%ADD88C,0.00100*%
%ADD89R,0.03162X0.03556*%
%ADD90O,0.06706X0.02375*%
%ADD91R,0.07099X0.11430*%
%ADD92R,0.06312X0.09461*%
%ADD93R,0.06312X0.04343*%
%ADD94R,0.05131X0.05918*%
%ADD95C,0.06706*%
%ADD96R,0.04737X0.13005*%
%ADD97R,0.04737X0.04737*%
%ADD98R,0.05918X0.03950*%
%ADD99R,0.11824X0.09068*%
%ADD100R,0.04343X0.04540*%
%ADD101R,0.04343X0.04540*%
%ADD102O,0.06706X0.01784*%
%ADD103O,0.01784X0.06706*%
%ADD104R,0.04737X0.02178*%
%ADD105O,0.01784X0.03556*%
%ADD106O,0.03556X0.01784*%
%ADD107R,0.11036X0.11430*%
%ADD108R,0.03162X0.03950*%
%ADD109R,0.03950X0.03950*%
%ADD110R,0.03950X0.03162*%
%ADD111R,0.05131X0.04737*%
%ADD112R,0.03950X0.05918*%
%ADD113R,0.09068X0.11824*%
%ADD114R,0.03556X0.03162*%
%ADD115R,0.04300X0.03600*%
%ADD116R,0.03600X0.04300*%
%ADD117R,0.06312X0.07493*%
%ADD118C,0.05524*%
%ADD119R,0.04540X0.04343*%
%ADD120R,0.04540X0.04343*%
%ADD121R,0.07887X0.07099*%
%ADD122C,0.07887*%
%ADD123C,0.16548*%
%ADD124R,0.06706X0.06706*%
%ADD125R,0.06706X0.06706*%
%ADD126C,0.02769*%
%ADD127C,0.02375*%
%ADD128C,0.03359*%
%ADD129C,0.03162*%
G04:AMPARAMS|DCode=130|XSize=165.48mil|YSize=126.11mil|CornerRadius=0mil|HoleSize=0mil|Usage=FLASHONLY|Rotation=0.000|XOffset=0mil|YOffset=0mil|HoleType=Round|Shape=Octagon|*
%AMOCTAGOND130*
4,1,8,0.08274,-0.03153,0.08274,0.03153,0.05121,0.06306,-0.05121,0.06306,-0.08274,0.03153,-0.08274,-0.03153,-0.05121,-0.06306,0.05121,-0.06306,0.08274,-0.03153,0.0*
%
%ADD130OCTAGOND130*%

%ADD131O,0.16548X0.12611*%
D95*
X18822Y73987D02*
D03*
X34613Y83178D02*
D03*
X31013Y75878D02*
D03*
X35513Y92322D02*
D03*
X174016Y29947D02*
D03*
X155026Y20447D02*
D03*
X5626Y115347D02*
D03*
X163228Y112205D02*
D03*
X153228D02*
D03*
X133900Y20690D02*
D03*
D118*
X83000Y55500D02*
D03*
X82200Y61900D02*
D03*
X85300Y48700D02*
D03*
X88900Y42300D02*
D03*
X130500Y75200D02*
D03*
D122*
X-14700Y44000D02*
D03*
Y34000D02*
D03*
Y24000D02*
D03*
X600Y43900D02*
D03*
Y33900D02*
D03*
Y23900D02*
D03*
D123*
X-11600Y6900D02*
D03*
X203000D02*
D03*
X-11600Y115200D02*
D03*
X203000D02*
D03*
D124*
X174016Y19947D02*
D03*
X155026Y10447D02*
D03*
X133900Y10847D02*
D03*
D125*
X15626Y115347D02*
D03*
X173228Y112205D02*
D03*
D126*
X82100Y94600D02*
D03*
X79300Y97500D02*
D03*
X173300Y64600D02*
D03*
X159700Y73700D02*
D03*
X156100D02*
D03*
X103100Y33400D02*
D03*
X103000Y35600D02*
D03*
X9100Y15500D02*
D03*
X35800Y11900D02*
D03*
X21800Y120800D02*
D03*
X-1200Y109900D02*
D03*
X-1000Y120700D02*
D03*
X54000Y117300D02*
D03*
X49400Y117400D02*
D03*
X58600Y117200D02*
D03*
X45900Y87000D02*
D03*
X56700Y100500D02*
D03*
X63600Y117300D02*
D03*
X59537Y91937D02*
D03*
X107200Y73200D02*
D03*
X100600Y83000D02*
D03*
Y85900D02*
D03*
Y89100D02*
D03*
X127500Y85300D02*
D03*
X129400Y90400D02*
D03*
X145800Y106000D02*
D03*
X155600Y87600D02*
D03*
X155500Y90300D02*
D03*
X153600Y46100D02*
D03*
X123600Y40500D02*
D03*
X84800Y72700D02*
D03*
X80300D02*
D03*
X75400Y72900D02*
D03*
X57600Y40600D02*
D03*
X57100Y24900D02*
D03*
X106800Y51000D02*
D03*
X114800Y92700D02*
D03*
X145300Y116400D02*
D03*
X89600Y29400D02*
D03*
X69300Y95400D02*
D03*
X49200Y80600D02*
D03*
X52500Y74100D02*
D03*
X63800Y29100D02*
D03*
X51400D02*
D03*
X116200Y32600D02*
D03*
X117300Y32800D02*
D03*
X2800Y78600D02*
D03*
X51900Y110200D02*
D03*
X23700Y103900D02*
D03*
X31986Y57214D02*
D03*
X55600Y92900D02*
D03*
X75500Y103900D02*
D03*
Y95500D02*
D03*
X179000Y63200D02*
D03*
D03*
X178200Y63700D02*
D03*
X178300Y40637D02*
D03*
X177500Y41100D02*
D03*
X105350Y107850D02*
D03*
X105800Y108300D02*
D03*
X105900Y109500D02*
D03*
X16900Y72400D02*
D03*
Y73800D02*
D03*
X26000Y13100D02*
D03*
Y12100D02*
D03*
X146100Y45300D02*
D03*
Y50500D02*
D03*
X59500Y77700D02*
D03*
X63000Y77600D02*
D03*
X198300Y68600D02*
D03*
X202700Y68500D02*
D03*
X206700Y68600D02*
D03*
X206600Y72900D02*
D03*
X202700D02*
D03*
X198400Y73000D02*
D03*
X206600Y76600D02*
D03*
X202600Y76500D02*
D03*
X198400D02*
D03*
X88200Y53900D02*
D03*
X87600Y57900D02*
D03*
X88400Y61600D02*
D03*
X99200Y57000D02*
D03*
Y60100D02*
D03*
X41000Y104500D02*
D03*
X30600Y82250D02*
D03*
X27800Y80000D02*
D03*
X108821Y97421D02*
D03*
X103400Y97400D02*
D03*
X99000Y63600D02*
D03*
X137200Y108200D02*
D03*
X133600D02*
D03*
X109979Y20979D02*
D03*
X114900Y20900D02*
D03*
X131000Y45500D02*
D03*
Y49400D02*
D03*
X10300Y97800D02*
D03*
Y81400D02*
D03*
X-6100Y52100D02*
D03*
X-3800Y55000D02*
D03*
X69000Y117200D02*
D03*
X24200Y72700D02*
D03*
X26300Y62200D02*
D03*
X18100Y53400D02*
D03*
X49900Y41000D02*
D03*
X51100Y37800D02*
D03*
X40700Y43300D02*
D03*
X4900Y60400D02*
D03*
X23700Y48900D02*
D03*
X40700Y69900D02*
D03*
X46600Y91800D02*
D03*
X36800Y100000D02*
D03*
X36400Y69600D02*
D03*
X78800Y5900D02*
D03*
X85600Y5700D02*
D03*
X93700Y5500D02*
D03*
X16200Y4300D02*
D03*
X26000Y4000D02*
D03*
X36500Y3900D02*
D03*
X81300Y110700D02*
D03*
X-16700Y76800D02*
D03*
X-16800Y66800D02*
D03*
X-17200Y104300D02*
D03*
X94700Y117000D02*
D03*
X105300Y116900D02*
D03*
X115600Y116700D02*
D03*
X154400Y120600D02*
D03*
X174500Y120500D02*
D03*
X191300Y120800D02*
D03*
X184500Y110900D02*
D03*
X184400Y115900D02*
D03*
Y120800D02*
D03*
X191500Y115900D02*
D03*
X191700Y110900D02*
D03*
X191800Y101300D02*
D03*
X198900Y92000D02*
D03*
X203800D02*
D03*
X208500D02*
D03*
X199100Y87200D02*
D03*
X203900Y87100D02*
D03*
X208600Y87000D02*
D03*
X199300Y82200D02*
D03*
X204000Y81900D02*
D03*
X208600Y82000D02*
D03*
X198600Y57800D02*
D03*
X207400Y57400D02*
D03*
X207100Y49600D02*
D03*
X202800Y53600D02*
D03*
X189300Y51200D02*
D03*
X183900D02*
D03*
X207700Y39600D02*
D03*
X186600Y22200D02*
D03*
X194800Y21900D02*
D03*
X203100Y21700D02*
D03*
X193300Y1000D02*
D03*
X181000Y14100D02*
D03*
X157400Y1300D02*
D03*
X155200Y28000D02*
D03*
X146200Y28400D02*
D03*
X153800Y39200D02*
D03*
Y33400D02*
D03*
X163600Y73700D02*
D03*
X143600Y92700D02*
D03*
X145700Y101000D02*
D03*
X137900Y92700D02*
D03*
X132100Y93000D02*
D03*
X138100Y97000D02*
D03*
X138300Y102500D02*
D03*
X142300Y97000D02*
D03*
X134000Y97100D02*
D03*
X159700Y76400D02*
D03*
X163600Y76600D02*
D03*
X125500Y69900D02*
D03*
X125400Y64600D02*
D03*
X128000Y56700D02*
D03*
X106400Y57300D02*
D03*
Y64300D02*
D03*
X123200Y53300D02*
D03*
X121400Y64400D02*
D03*
X59200Y67600D02*
D03*
Y61400D02*
D03*
X59300Y55100D02*
D03*
X59400Y48300D02*
D03*
X67300Y48000D02*
D03*
X67400Y55100D02*
D03*
X67300Y61300D02*
D03*
Y67500D02*
D03*
X75500D02*
D03*
X75400Y61500D02*
D03*
X75300Y55100D02*
D03*
X75500Y48000D02*
D03*
X67600Y41600D02*
D03*
X85000Y67900D02*
D03*
X91800Y89600D02*
D03*
X91700Y83200D02*
D03*
X92300Y102000D02*
D03*
X58200Y3900D02*
D03*
X58100Y11700D02*
D03*
X64800Y17600D02*
D03*
X70100Y23000D02*
D03*
X-1200Y900D02*
D03*
X-1300Y8200D02*
D03*
X-6900Y21000D02*
D03*
Y16200D02*
D03*
X600Y97900D02*
D03*
X141900Y62200D02*
D03*
X131300Y64200D02*
D03*
X131400Y69900D02*
D03*
X198900Y49600D02*
D03*
D127*
X99900Y50800D02*
D03*
D128*
X99400Y12200D02*
D03*
X102600D02*
D03*
X105600Y12300D02*
D03*
X99500Y9500D02*
D03*
X102700D02*
D03*
X105700D02*
D03*
X102900Y6600D02*
D03*
X105800D02*
D03*
X99600D02*
D03*
D129*
X130300Y78200D02*
D03*
D130*
X202700Y71900D02*
D03*
D131*
X202800Y53600D02*
D03*
M02*
