%FSLAX25Y25*%
%MOIN*%
G70*
G01*
G75*
G04 Layer_Color=2752767*
%ADD10C,0.00500*%
%ADD11C,0.00667*%
D10*
X-16700Y42000D02*
Y46000D01*
X-12700D01*
Y42000D01*
X-16700D01*
Y32000D02*
Y36000D01*
X-12700D01*
Y32000D01*
X-16700D01*
Y22000D02*
Y26000D01*
X-12700D01*
Y22000D01*
X-16700D01*
X-1400Y41900D02*
Y45900D01*
X2600D01*
Y41900D01*
X-1400D01*
Y31900D02*
Y35900D01*
X2600D01*
Y31900D01*
X-1400D01*
Y21900D02*
Y25900D01*
X2600D01*
Y21900D01*
X-1400D01*
X172016Y17947D02*
Y21947D01*
X176016D01*
Y17947D01*
X172016D01*
Y27947D02*
Y31947D01*
X176016D01*
Y27947D01*
X172016D01*
X153026Y8447D02*
Y12447D01*
X157026D01*
Y8447D01*
X153026D01*
Y18447D02*
Y22447D01*
X157026D01*
Y18447D01*
X153026D01*
X13626Y113347D02*
Y117347D01*
X17626D01*
Y113347D01*
X13626D01*
X3626D02*
Y117347D01*
X7626D01*
Y113347D01*
X3626D01*
X171228Y110205D02*
Y114205D01*
X175228D01*
Y110205D01*
X171228D01*
X161228D02*
Y114205D01*
X165228D01*
Y110205D01*
X161228D01*
X151228D02*
Y114205D01*
X155228D01*
Y110205D01*
X151228D01*
X131900Y8847D02*
Y12847D01*
X135900D01*
Y8847D01*
X131900D01*
Y18690D02*
Y22690D01*
X135900D01*
Y18690D01*
X131900D01*
X82100Y92600D02*
X80100Y96600D01*
X84100D01*
X82100Y92600D01*
X79300Y95500D02*
X77300Y99500D01*
X81300D01*
X79300Y95500D01*
X173300Y62600D02*
X171300Y66600D01*
X175300D01*
X173300Y62600D01*
X159700Y71700D02*
X157700Y75700D01*
X161700D01*
X159700Y71700D01*
X156100D02*
X154100Y75700D01*
X158100D01*
X156100Y71700D01*
X103100Y31400D02*
X101100Y35400D01*
X105100D01*
X103100Y31400D01*
X103000Y33600D02*
X101000Y37600D01*
X105000D01*
X103000Y33600D01*
X9100Y13500D02*
X7100Y17500D01*
X11100D01*
X9100Y13500D01*
X35800Y9900D02*
X33800Y13900D01*
X37800D01*
X35800Y9900D01*
X21800Y118800D02*
X19800Y122800D01*
X23800D01*
X21800Y118800D01*
X-1200Y107900D02*
X-3200Y111900D01*
X800D01*
X-1200Y107900D01*
X-1000Y118700D02*
X-3000Y122700D01*
X1000D01*
X-1000Y118700D01*
X54000Y115300D02*
X52000Y119300D01*
X56000D01*
X54000Y115300D01*
X49400Y115400D02*
X47400Y119400D01*
X51400D01*
X49400Y115400D01*
X58600Y115200D02*
X56600Y119200D01*
X60600D01*
X58600Y115200D01*
X45900Y85000D02*
X43900Y89000D01*
X47900D01*
X45900Y85000D01*
X56700Y98500D02*
X54700Y102500D01*
X58700D01*
X56700Y98500D01*
X63600Y115300D02*
X61600Y119300D01*
X65600D01*
X63600Y115300D01*
X59537Y89937D02*
X57537Y93937D01*
X61537D01*
X59537Y89937D01*
X107200Y71200D02*
X105200Y75200D01*
X109200D01*
X107200Y71200D01*
X100600Y81000D02*
X98600Y85000D01*
X102600D01*
X100600Y81000D01*
Y83900D02*
X98600Y87900D01*
X102600D01*
X100600Y83900D01*
Y87100D02*
X98600Y91100D01*
X102600D01*
X100600Y87100D01*
X127500Y83300D02*
X125500Y87300D01*
X129500D01*
X127500Y83300D01*
X129400Y88400D02*
X127400Y92400D01*
X131400D01*
X129400Y88400D01*
X145800Y104000D02*
X143800Y108000D01*
X147800D01*
X145800Y104000D01*
X155600Y85600D02*
X153600Y89600D01*
X157600D01*
X155600Y85600D01*
X155500Y88300D02*
X153500Y92300D01*
X157500D01*
X155500Y88300D01*
X153600Y44100D02*
X151600Y48100D01*
X155600D01*
X153600Y44100D01*
X123600Y38500D02*
X121600Y42500D01*
X125600D01*
X123600Y38500D01*
X84800Y70700D02*
X82800Y74700D01*
X86800D01*
X84800Y70700D01*
X80300D02*
X78300Y74700D01*
X82300D01*
X80300Y70700D01*
X75400Y70900D02*
X73400Y74900D01*
X77400D01*
X75400Y70900D01*
X57600Y38600D02*
X55600Y42600D01*
X59600D01*
X57600Y38600D01*
X57100Y22900D02*
X55100Y26900D01*
X59100D01*
X57100Y22900D01*
X106800Y49000D02*
X104800Y53000D01*
X108800D01*
X106800Y49000D01*
X114800Y90700D02*
X112800Y94700D01*
X116800D01*
X114800Y90700D01*
X145300Y114400D02*
X143300Y118400D01*
X147300D01*
X145300Y114400D01*
X89600Y27400D02*
X87600Y31400D01*
X91600D01*
X89600Y27400D01*
X69300Y93400D02*
X67300Y97400D01*
X71300D01*
X69300Y93400D01*
X49200Y78600D02*
X47200Y82600D01*
X51200D01*
X49200Y78600D01*
X52500Y72100D02*
X50500Y76100D01*
X54500D01*
X52500Y72100D01*
X63800Y27100D02*
X61800Y31100D01*
X65800D01*
X63800Y27100D01*
X51400D02*
X49400Y31100D01*
X53400D01*
X51400Y27100D01*
X116200Y30600D02*
X114200Y34600D01*
X118200D01*
X116200Y30600D01*
X117300Y30800D02*
X115300Y34800D01*
X119300D01*
X117300Y30800D01*
X2800Y76600D02*
X800Y80600D01*
X4800D01*
X2800Y76600D01*
X51900Y108200D02*
X49900Y112200D01*
X53900D01*
X51900Y108200D01*
X23700Y101900D02*
X21700Y105900D01*
X25700D01*
X23700Y101900D01*
X31986Y55214D02*
X29986Y59214D01*
X33986D01*
X31986Y55214D01*
X55600Y90900D02*
X53600Y94900D01*
X57600D01*
X55600Y90900D01*
X75500Y101900D02*
X73500Y105900D01*
X77500D01*
X75500Y101900D01*
Y93500D02*
X73500Y97500D01*
X77500D01*
X75500Y93500D01*
X179000Y61200D02*
X177000Y65200D01*
X181000D01*
X179000Y61200D01*
X177000Y65200D01*
X181000D01*
X179000Y61200D01*
X178200Y61700D02*
X176200Y65700D01*
X180200D01*
X178200Y61700D01*
X178300Y38637D02*
X176300Y42637D01*
X180300D01*
X178300Y38637D01*
X177500Y39100D02*
X175500Y43100D01*
X179500D01*
X177500Y39100D01*
X105350Y105850D02*
X103350Y109850D01*
X107350D01*
X105350Y105850D01*
X105800Y106300D02*
X103800Y110300D01*
X107800D01*
X105800Y106300D01*
X105900Y107500D02*
X103900Y111500D01*
X107900D01*
X105900Y107500D01*
X16900Y70400D02*
X14900Y74400D01*
X18900D01*
X16900Y70400D01*
Y71800D02*
X14900Y75800D01*
X18900D01*
X16900Y71800D01*
X26000Y11100D02*
X24000Y15100D01*
X28000D01*
X26000Y11100D01*
Y10100D02*
X24000Y14100D01*
X28000D01*
X26000Y10100D01*
X146100Y43300D02*
X144100Y47300D01*
X148100D01*
X146100Y43300D01*
Y48500D02*
X144100Y52500D01*
X148100D01*
X146100Y48500D01*
X59500Y75700D02*
X57500Y79700D01*
X61500D01*
X59500Y75700D01*
X63000Y75600D02*
X61000Y79600D01*
X65000D01*
X63000Y75600D01*
X198300Y66600D02*
X196300Y70600D01*
X200300D01*
X198300Y66600D01*
X202700Y66500D02*
X200700Y70500D01*
X204700D01*
X202700Y66500D01*
X206700Y66600D02*
X204700Y70600D01*
X208700D01*
X206700Y66600D01*
X206600Y70900D02*
X204600Y74900D01*
X208600D01*
X206600Y70900D01*
X202700D02*
X200700Y74900D01*
X204700D01*
X202700Y70900D01*
X198400Y71000D02*
X196400Y75000D01*
X200400D01*
X198400Y71000D01*
X206600Y74600D02*
X204600Y78600D01*
X208600D01*
X206600Y74600D01*
X202600Y74500D02*
X200600Y78500D01*
X204600D01*
X202600Y74500D01*
X198400D02*
X196400Y78500D01*
X200400D01*
X198400Y74500D01*
X88200Y51900D02*
X86200Y55900D01*
X90200D01*
X88200Y51900D01*
X87600Y55900D02*
X85600Y59900D01*
X89600D01*
X87600Y55900D01*
X88400Y59600D02*
X86400Y63600D01*
X90400D01*
X88400Y59600D01*
X99900Y48800D02*
X97900Y52800D01*
X101900D01*
X99900Y48800D01*
X99200Y55000D02*
X97200Y59000D01*
X101200D01*
X99200Y55000D01*
Y58100D02*
X97200Y62100D01*
X101200D01*
X99200Y58100D01*
X41000Y102500D02*
X39000Y106500D01*
X43000D01*
X41000Y102500D01*
X30600Y80250D02*
X28600Y84250D01*
X32600D01*
X30600Y80250D01*
X27800Y78000D02*
X25800Y82000D01*
X29800D01*
X27800Y78000D01*
X108821Y95421D02*
X106821Y99421D01*
X110821D01*
X108821Y95421D01*
X103400Y95400D02*
X101400Y99400D01*
X105400D01*
X103400Y95400D01*
X99000Y61600D02*
X97000Y65600D01*
X101000D01*
X99000Y61600D01*
X137200Y106200D02*
X135200Y110200D01*
X139200D01*
X137200Y106200D01*
X133600D02*
X131600Y110200D01*
X135600D01*
X133600Y106200D01*
X109979Y18979D02*
X107979Y22979D01*
X111979D01*
X109979Y18979D01*
X114900Y18900D02*
X112900Y22900D01*
X116900D01*
X114900Y18900D01*
X131000Y43500D02*
X129000Y47500D01*
X133000D01*
X131000Y43500D01*
Y47400D02*
X129000Y51400D01*
X133000D01*
X131000Y47400D01*
X99400Y10200D02*
X100400Y11200D01*
X101400D01*
X100400Y12200D01*
X101400Y13200D01*
X100400D01*
X99400Y14200D01*
X98400Y13200D01*
X97400D01*
X98400Y12200D01*
X97400Y11200D01*
X98400D01*
X99400Y10200D01*
X102600D02*
X103600Y11200D01*
X104600D01*
X103600Y12200D01*
X104600Y13200D01*
X103600D01*
X102600Y14200D01*
X101600Y13200D01*
X100600D01*
X101600Y12200D01*
X100600Y11200D01*
X101600D01*
X102600Y10200D01*
X105600Y10300D02*
X106600Y11300D01*
X107600D01*
X106600Y12300D01*
X107600Y13300D01*
X106600D01*
X105600Y14300D01*
X104600Y13300D01*
X103600D01*
X104600Y12300D01*
X103600Y11300D01*
X104600D01*
X105600Y10300D01*
X99500Y7500D02*
X100500Y8500D01*
X101500D01*
X100500Y9500D01*
X101500Y10500D01*
X100500D01*
X99500Y11500D01*
X98500Y10500D01*
X97500D01*
X98500Y9500D01*
X97500Y8500D01*
X98500D01*
X99500Y7500D01*
X102700D02*
X103700Y8500D01*
X104700D01*
X103700Y9500D01*
X104700Y10500D01*
X103700D01*
X102700Y11500D01*
X101700Y10500D01*
X100700D01*
X101700Y9500D01*
X100700Y8500D01*
X101700D01*
X102700Y7500D01*
X105700D02*
X106700Y8500D01*
X107700D01*
X106700Y9500D01*
X107700Y10500D01*
X106700D01*
X105700Y11500D01*
X104700Y10500D01*
X103700D01*
X104700Y9500D01*
X103700Y8500D01*
X104700D01*
X105700Y7500D01*
X102900Y4600D02*
X103900Y5600D01*
X104900D01*
X103900Y6600D01*
X104900Y7600D01*
X103900D01*
X102900Y8600D01*
X101900Y7600D01*
X100900D01*
X101900Y6600D01*
X100900Y5600D01*
X101900D01*
X102900Y4600D01*
X105800D02*
X106800Y5600D01*
X107800D01*
X106800Y6600D01*
X107800Y7600D01*
X106800D01*
X105800Y8600D01*
X104800Y7600D01*
X103800D01*
X104800Y6600D01*
X103800Y5600D01*
X104800D01*
X105800Y4600D01*
X99600D02*
X100600Y5600D01*
X101600D01*
X100600Y6600D01*
X101600Y7600D01*
X100600D01*
X99600Y8600D01*
X98600Y7600D01*
X97600D01*
X98600Y6600D01*
X97600Y5600D01*
X98600D01*
X99600Y4600D01*
X130300Y76200D02*
X128300Y80200D01*
X132300D01*
X130300Y76200D01*
X10300Y95800D02*
X8300Y99800D01*
X12300D01*
X10300Y95800D01*
Y79400D02*
X8300Y83400D01*
X12300D01*
X10300Y79400D01*
X-6100Y50100D02*
X-8100Y54100D01*
X-4100D01*
X-6100Y50100D01*
X-3800Y53000D02*
X-5800Y57000D01*
X-1800D01*
X-3800Y53000D01*
X69000Y115200D02*
X67000Y119200D01*
X71000D01*
X69000Y115200D01*
X24200Y70700D02*
X22200Y74700D01*
X26200D01*
X24200Y70700D01*
X26300Y60200D02*
X24300Y64200D01*
X28300D01*
X26300Y60200D01*
X18100Y51400D02*
X16100Y55400D01*
X20100D01*
X18100Y51400D01*
X49900Y39000D02*
X47900Y43000D01*
X51900D01*
X49900Y39000D01*
X51100Y35800D02*
X49100Y39800D01*
X53100D01*
X51100Y35800D01*
X40700Y41300D02*
X38700Y45300D01*
X42700D01*
X40700Y41300D01*
X4900Y58400D02*
X2900Y62400D01*
X6900D01*
X4900Y58400D01*
X23700Y46900D02*
X21700Y50900D01*
X25700D01*
X23700Y46900D01*
X40700Y67900D02*
X38700Y71900D01*
X42700D01*
X40700Y67900D01*
X46600Y89800D02*
X44600Y93800D01*
X48600D01*
X46600Y89800D01*
X36800Y98000D02*
X34800Y102000D01*
X38800D01*
X36800Y98000D01*
X36400Y67600D02*
X34400Y71600D01*
X38400D01*
X36400Y67600D01*
X78800Y3900D02*
X76800Y7900D01*
X80800D01*
X78800Y3900D01*
X85600Y3700D02*
X83600Y7700D01*
X87600D01*
X85600Y3700D01*
X93700Y3500D02*
X91700Y7500D01*
X95700D01*
X93700Y3500D01*
X16200Y2300D02*
X14200Y6300D01*
X18200D01*
X16200Y2300D01*
X26000Y2000D02*
X24000Y6000D01*
X28000D01*
X26000Y2000D01*
X36500Y1900D02*
X34500Y5900D01*
X38500D01*
X36500Y1900D01*
X81300Y108700D02*
X79300Y112700D01*
X83300D01*
X81300Y108700D01*
X-16700Y74800D02*
X-18700Y78800D01*
X-14700D01*
X-16700Y74800D01*
X-16800Y64800D02*
X-18800Y68800D01*
X-14800D01*
X-16800Y64800D01*
X-17200Y102300D02*
X-19200Y106300D01*
X-15200D01*
X-17200Y102300D01*
X94700Y115000D02*
X92700Y119000D01*
X96700D01*
X94700Y115000D01*
X105300Y114900D02*
X103300Y118900D01*
X107300D01*
X105300Y114900D01*
X115600Y114700D02*
X113600Y118700D01*
X117600D01*
X115600Y114700D01*
X154400Y118600D02*
X152400Y122600D01*
X156400D01*
X154400Y118600D01*
X174500Y118500D02*
X172500Y122500D01*
X176500D01*
X174500Y118500D01*
X191300Y118800D02*
X189300Y122800D01*
X193300D01*
X191300Y118800D01*
X184500Y108900D02*
X182500Y112900D01*
X186500D01*
X184500Y108900D01*
X184400Y113900D02*
X182400Y117900D01*
X186400D01*
X184400Y113900D01*
Y118800D02*
X182400Y122800D01*
X186400D01*
X184400Y118800D01*
X191500Y113900D02*
X189500Y117900D01*
X193500D01*
X191500Y113900D01*
X191700Y108900D02*
X189700Y112900D01*
X193700D01*
X191700Y108900D01*
X191800Y99300D02*
X189800Y103300D01*
X193800D01*
X191800Y99300D01*
X198900Y90000D02*
X196900Y94000D01*
X200900D01*
X198900Y90000D01*
X203800D02*
X201800Y94000D01*
X205800D01*
X203800Y90000D01*
X208500D02*
X206500Y94000D01*
X210500D01*
X208500Y90000D01*
X199100Y85200D02*
X197100Y89200D01*
X201100D01*
X199100Y85200D01*
X203900Y85100D02*
X201900Y89100D01*
X205900D01*
X203900Y85100D01*
X208600Y85000D02*
X206600Y89000D01*
X210600D01*
X208600Y85000D01*
X199300Y80200D02*
X197300Y84200D01*
X201300D01*
X199300Y80200D01*
X204000Y79900D02*
X202000Y83900D01*
X206000D01*
X204000Y79900D01*
X208600Y80000D02*
X206600Y84000D01*
X210600D01*
X208600Y80000D01*
X198600Y55800D02*
X196600Y59800D01*
X200600D01*
X198600Y55800D01*
X207400Y55400D02*
X205400Y59400D01*
X209400D01*
X207400Y55400D01*
X207100Y47600D02*
X205100Y51600D01*
X209100D01*
X207100Y47600D01*
X202800Y51600D02*
X200800Y55600D01*
X204800D01*
X202800Y51600D01*
X189300Y49200D02*
X187300Y53200D01*
X191300D01*
X189300Y49200D01*
X183900D02*
X181900Y53200D01*
X185900D01*
X183900Y49200D01*
X207700Y37600D02*
X205700Y41600D01*
X209700D01*
X207700Y37600D01*
X186600Y20200D02*
X184600Y24200D01*
X188600D01*
X186600Y20200D01*
X194800Y19900D02*
X192800Y23900D01*
X196800D01*
X194800Y19900D01*
X203100Y19700D02*
X201100Y23700D01*
X205100D01*
X203100Y19700D01*
X193300Y-1000D02*
X191300Y3000D01*
X195300D01*
X193300Y-1000D01*
X181000Y12100D02*
X179000Y16100D01*
X183000D01*
X181000Y12100D01*
X157400Y-700D02*
X155400Y3300D01*
X159400D01*
X157400Y-700D01*
X155200Y26000D02*
X153200Y30000D01*
X157200D01*
X155200Y26000D01*
X146200Y26400D02*
X144200Y30400D01*
X148200D01*
X146200Y26400D01*
X153800Y37200D02*
X151800Y41200D01*
X155800D01*
X153800Y37200D01*
Y31400D02*
X151800Y35400D01*
X155800D01*
X153800Y31400D01*
X163600Y71700D02*
X161600Y75700D01*
X165600D01*
X163600Y71700D01*
X143600Y90700D02*
X141600Y94700D01*
X145600D01*
X143600Y90700D01*
X145700Y99000D02*
X143700Y103000D01*
X147700D01*
X145700Y99000D01*
X137900Y90700D02*
X135900Y94700D01*
X139900D01*
X137900Y90700D01*
X132100Y91000D02*
X130100Y95000D01*
X134100D01*
X132100Y91000D01*
X138100Y95000D02*
X136100Y99000D01*
X140100D01*
X138100Y95000D01*
X138300Y100500D02*
X136300Y104500D01*
X140300D01*
X138300Y100500D01*
X142300Y95000D02*
X140300Y99000D01*
X144300D01*
X142300Y95000D01*
X134000Y95100D02*
X132000Y99100D01*
X136000D01*
X134000Y95100D01*
X159700Y74400D02*
X157700Y78400D01*
X161700D01*
X159700Y74400D01*
X163600Y74600D02*
X161600Y78600D01*
X165600D01*
X163600Y74600D01*
X125500Y67900D02*
X123500Y71900D01*
X127500D01*
X125500Y67900D01*
X125400Y62600D02*
X123400Y66600D01*
X127400D01*
X125400Y62600D01*
X128000Y54700D02*
X126000Y58700D01*
X130000D01*
X128000Y54700D01*
X106400Y55300D02*
X104400Y59300D01*
X108400D01*
X106400Y55300D01*
Y62300D02*
X104400Y66300D01*
X108400D01*
X106400Y62300D01*
X123200Y51300D02*
X121200Y55300D01*
X125200D01*
X123200Y51300D01*
X121400Y62400D02*
X119400Y66400D01*
X123400D01*
X121400Y62400D01*
X59200Y65600D02*
X57200Y69600D01*
X61200D01*
X59200Y65600D01*
Y59400D02*
X57200Y63400D01*
X61200D01*
X59200Y59400D01*
X59300Y53100D02*
X57300Y57100D01*
X61300D01*
X59300Y53100D01*
X59400Y46300D02*
X57400Y50300D01*
X61400D01*
X59400Y46300D01*
X67300Y46000D02*
X65300Y50000D01*
X69300D01*
X67300Y46000D01*
X67400Y53100D02*
X65400Y57100D01*
X69400D01*
X67400Y53100D01*
X67300Y59300D02*
X65300Y63300D01*
X69300D01*
X67300Y59300D01*
Y65500D02*
X65300Y69500D01*
X69300D01*
X67300Y65500D01*
X75500D02*
X73500Y69500D01*
X77500D01*
X75500Y65500D01*
X75400Y59500D02*
X73400Y63500D01*
X77400D01*
X75400Y59500D01*
X75300Y53100D02*
X73300Y57100D01*
X77300D01*
X75300Y53100D01*
X75500Y46000D02*
X73500Y50000D01*
X77500D01*
X75500Y46000D01*
X67600Y39600D02*
X65600Y43600D01*
X69600D01*
X67600Y39600D01*
X85000Y65900D02*
X83000Y69900D01*
X87000D01*
X85000Y65900D01*
X91800Y87600D02*
X89800Y91600D01*
X93800D01*
X91800Y87600D01*
X91700Y81200D02*
X89700Y85200D01*
X93700D01*
X91700Y81200D01*
X92300Y100000D02*
X90300Y104000D01*
X94300D01*
X92300Y100000D01*
X58200Y1900D02*
X56200Y5900D01*
X60200D01*
X58200Y1900D01*
X58100Y9700D02*
X56100Y13700D01*
X60100D01*
X58100Y9700D01*
X64800Y15600D02*
X62800Y19600D01*
X66800D01*
X64800Y15600D01*
X70100Y21000D02*
X68100Y25000D01*
X72100D01*
X70100Y21000D01*
X-1200Y-1100D02*
X-3200Y2900D01*
X800D01*
X-1200Y-1100D01*
X-1300Y6200D02*
X-3300Y10200D01*
X700D01*
X-1300Y6200D01*
X-6900Y19000D02*
X-8900Y23000D01*
X-4900D01*
X-6900Y19000D01*
Y14200D02*
X-8900Y18200D01*
X-4900D01*
X-6900Y14200D01*
X600Y95900D02*
X-1400Y99900D01*
X2600D01*
X600Y95900D01*
X141900Y60200D02*
X139900Y64200D01*
X143900D01*
X141900Y60200D01*
X131300Y62200D02*
X129300Y66200D01*
X133300D01*
X131300Y62200D01*
X131400Y67900D02*
X129400Y71900D01*
X133400D01*
X131400Y67900D01*
X198900Y47600D02*
X196900Y51600D01*
X200900D01*
X198900Y47600D01*
D11*
X-9600Y6900D02*
G03*
X-9600Y6900I-2000J0D01*
G01*
X205000D02*
G03*
X205000Y6900I-2000J0D01*
G01*
X-9600Y115200D02*
G03*
X-9600Y115200I-2000J0D01*
G01*
X205000D02*
G03*
X205000Y115200I-2000J0D01*
G01*
M02*
