%FSLAX25Y25*%
%MOIN*%
G70*
G01*
G75*
G04 Layer_Color=8388736*
%ADD10C,0.02000*%
%ADD11C,0.01500*%
%ADD12C,0.00600*%
%ADD13C,0.01000*%
%ADD14C,0.03000*%
%ADD15C,0.00800*%
%ADD16C,0.02500*%
%ADD17R,0.02362X0.02756*%
%ADD18O,0.05906X0.01575*%
%ADD19R,0.06299X0.10630*%
%ADD20R,0.05512X0.08661*%
%ADD21R,0.05512X0.03543*%
%ADD22R,0.04331X0.05118*%
%ADD23C,0.05906*%
%ADD24R,0.03937X0.12205*%
%ADD25R,0.03937X0.03937*%
%ADD26R,0.05118X0.03150*%
%ADD27R,0.11024X0.08268*%
%ADD28R,0.03543X0.03740*%
%ADD29R,0.03543X0.03740*%
%ADD30O,0.05906X0.00984*%
%ADD31O,0.00984X0.05906*%
%ADD32R,0.03937X0.01378*%
%ADD33O,0.00984X0.02756*%
%ADD34O,0.02756X0.00984*%
%ADD35R,0.10236X0.10630*%
%ADD36R,0.02362X0.03150*%
%ADD37R,0.03150X0.03150*%
%ADD38R,0.03150X0.02362*%
%ADD39R,0.04331X0.03937*%
%ADD40R,0.03150X0.05118*%
%ADD41R,0.08268X0.11024*%
%ADD42R,0.02756X0.02362*%
%ADD43R,0.03500X0.02800*%
%ADD44R,0.02800X0.03500*%
%ADD45R,0.05512X0.06693*%
%ADD46C,0.04724*%
%ADD47R,0.03740X0.03543*%
%ADD48R,0.03740X0.03543*%
%ADD49R,0.07087X0.06299*%
%ADD50R,0.17500X0.26100*%
%ADD51R,0.08900X0.23700*%
%ADD52R,0.37800X0.08900*%
%ADD53R,0.18600X0.12500*%
%ADD54R,0.05300X0.15000*%
%ADD55R,0.08700X0.14600*%
%ADD56R,0.18300X0.06800*%
%ADD57R,0.03100X0.10500*%
%ADD58R,0.27600X0.08000*%
%ADD59R,0.20600X0.13700*%
%ADD60R,0.06700X0.23500*%
%ADD61R,0.10900X0.06800*%
%ADD62R,0.07900X0.07000*%
%ADD63R,0.14900X0.03900*%
%ADD64R,0.05900X0.18900*%
%ADD65R,0.06800X0.03800*%
%ADD66R,0.08500X0.03500*%
%ADD67C,0.07087*%
%ADD68C,0.15748*%
%ADD69R,0.05906X0.05906*%
%ADD70R,0.05906X0.05906*%
%ADD71C,0.01969*%
%ADD72C,0.01575*%
%ADD73C,0.02559*%
%ADD74C,0.02362*%
G04:AMPARAMS|DCode=75|XSize=157.48mil|YSize=118.11mil|CornerRadius=0mil|HoleSize=0mil|Usage=FLASHONLY|Rotation=0.000|XOffset=0mil|YOffset=0mil|HoleType=Round|Shape=Octagon|*
%AMOCTAGOND75*
4,1,8,0.07874,-0.02953,0.07874,0.02953,0.04921,0.05906,-0.04921,0.05906,-0.07874,0.02953,-0.07874,-0.02953,-0.04921,-0.05906,0.04921,-0.05906,0.07874,-0.02953,0.0*
%
%ADD75OCTAGOND75*%

%ADD76O,0.15748X0.11811*%
%ADD77R,0.62400X0.08800*%
%ADD78R,0.10500X0.18500*%
%ADD79C,0.00394*%
%ADD80C,0.00984*%
%ADD81C,0.00984*%
%ADD82C,0.00787*%
%ADD83C,0.00591*%
%ADD84C,0.00500*%
%ADD85C,0.00300*%
%ADD86R,0.03984X0.12820*%
%ADD87O,0.05506X0.01175*%
%ADD88C,0.00100*%
%ADD89R,0.03162X0.03556*%
%ADD90O,0.06706X0.02375*%
%ADD91R,0.07099X0.11430*%
%ADD92R,0.06312X0.09461*%
%ADD93R,0.06312X0.04343*%
%ADD94R,0.05131X0.05918*%
%ADD95C,0.06706*%
%ADD96R,0.04737X0.13005*%
%ADD97R,0.04737X0.04737*%
%ADD98R,0.05918X0.03950*%
%ADD99R,0.11824X0.09068*%
%ADD100R,0.04343X0.04540*%
%ADD101R,0.04343X0.04540*%
%ADD102O,0.06706X0.01784*%
%ADD103O,0.01784X0.06706*%
%ADD104R,0.04737X0.02178*%
%ADD105O,0.01784X0.03556*%
%ADD106O,0.03556X0.01784*%
%ADD107R,0.11036X0.11430*%
%ADD108R,0.03162X0.03950*%
%ADD109R,0.03950X0.03950*%
%ADD110R,0.03950X0.03162*%
%ADD111R,0.05131X0.04737*%
%ADD112R,0.03950X0.05918*%
%ADD113R,0.09068X0.11824*%
%ADD114R,0.03556X0.03162*%
%ADD115R,0.04300X0.03600*%
%ADD116R,0.03600X0.04300*%
%ADD117R,0.06312X0.07493*%
%ADD118C,0.05524*%
%ADD119R,0.04540X0.04343*%
%ADD120R,0.04540X0.04343*%
%ADD121R,0.07887X0.07099*%
%ADD122C,0.07887*%
%ADD123C,0.16548*%
%ADD124R,0.06706X0.06706*%
%ADD125R,0.06706X0.06706*%
%ADD126C,0.02769*%
%ADD127C,0.02375*%
%ADD128C,0.03359*%
%ADD129C,0.03162*%
D88*
X24261Y45204D02*
X30161D01*
X24161Y45104D02*
X30161D01*
X24161Y45004D02*
X30061D01*
X24161Y44904D02*
X30061D01*
X24161Y44804D02*
X30061D01*
X24161Y44704D02*
X30061D01*
X24061Y44604D02*
X30061D01*
X24061Y44504D02*
X29961D01*
X24061Y44404D02*
X29961D01*
X24061Y44304D02*
X29961D01*
X23961Y44204D02*
X29961D01*
X23961Y44104D02*
X29861D01*
X23961Y44004D02*
X29861D01*
X23961Y43904D02*
X29861D01*
X23861Y43804D02*
X29861D01*
X23861Y43704D02*
X29761D01*
X23861Y43604D02*
X29761D01*
X23861Y43504D02*
X29761D01*
X23761Y43404D02*
X29761D01*
X23761Y43304D02*
X29661D01*
X23761Y43204D02*
X29661D01*
X23761Y43104D02*
X29661D01*
X23661Y43004D02*
X29661D01*
X23661Y42904D02*
X29561D01*
X23661Y42804D02*
X29561D01*
X23661Y42704D02*
X29561D01*
X23661Y42604D02*
X29561D01*
X23561Y42504D02*
X29461D01*
X23561Y42404D02*
X29461D01*
X23561Y42304D02*
X29461D01*
X23561Y42204D02*
X29461D01*
X23461Y42104D02*
X29461D01*
X23461Y42004D02*
X29361D01*
X23461Y41904D02*
X29361D01*
X23461Y41804D02*
X29361D01*
X23361Y41704D02*
X29361D01*
X23361Y41604D02*
X29261D01*
X23361Y41504D02*
X29261D01*
X23361Y41404D02*
X29261D01*
X23261Y41304D02*
X29261D01*
X23261Y41204D02*
X29161D01*
X23261Y41104D02*
X29161D01*
X11361Y41004D02*
X21761D01*
X23261D02*
X29161D01*
X30661D02*
X36361D01*
X37761D02*
X43561D01*
X10961Y40904D02*
X21761D01*
X23161D02*
X29161D01*
X30561D02*
X36361D01*
X37761D02*
X43461D01*
X10661Y40804D02*
X21761D01*
X23161D02*
X29061D01*
X30561D02*
X36361D01*
X37761D02*
X43461D01*
X10361Y40704D02*
X21761D01*
X23161D02*
X29061D01*
X30561D02*
X36261D01*
X37761D02*
X43461D01*
X10161Y40604D02*
X21661D01*
X23161D02*
X29061D01*
X30561D02*
X36261D01*
X37661D02*
X43461D01*
X9961Y40504D02*
X21661D01*
X23061D02*
X29061D01*
X30461D02*
X36261D01*
X37661D02*
X43461D01*
X9861Y40404D02*
X21661D01*
X23061D02*
X28961D01*
X30461D02*
X36261D01*
X37661D02*
X43361D01*
X9661Y40304D02*
X21661D01*
X23061D02*
X28961D01*
X30461D02*
X36161D01*
X37661D02*
X43361D01*
X9561Y40204D02*
X21561D01*
X23061D02*
X28961D01*
X30461D02*
X36161D01*
X37561D02*
X43361D01*
X9461Y40104D02*
X21561D01*
X23061D02*
X28961D01*
X30361D02*
X36161D01*
X37561D02*
X43361D01*
X9361Y40004D02*
X21561D01*
X22961D02*
X28861D01*
X30361D02*
X36161D01*
X37561D02*
X43261D01*
X9261Y39904D02*
X21561D01*
X22961D02*
X28861D01*
X30361D02*
X36161D01*
X37561D02*
X43261D01*
X9161Y39804D02*
X21461D01*
X22961D02*
X28861D01*
X30361D02*
X36061D01*
X37461D02*
X43261D01*
X9061Y39704D02*
X21461D01*
X22961D02*
X28861D01*
X30261D02*
X36061D01*
X37461D02*
X43261D01*
X8961Y39604D02*
X21461D01*
X22861D02*
X28861D01*
X30261D02*
X36061D01*
X37461D02*
X43161D01*
X8961Y39504D02*
X21461D01*
X22861D02*
X28761D01*
X30261D02*
X36061D01*
X37461D02*
X43161D01*
X8861Y39404D02*
X21361D01*
X22861D02*
X28761D01*
X30261D02*
X35961D01*
X37461D02*
X43161D01*
X8761Y39304D02*
X21361D01*
X22861D02*
X28761D01*
X30161D02*
X35961D01*
X37361D02*
X43161D01*
X8761Y39204D02*
X21361D01*
X22761D02*
X28761D01*
X30161D02*
X35961D01*
X37361D02*
X43161D01*
X8661Y39104D02*
X21361D01*
X22761D02*
X28661D01*
X30161D02*
X35961D01*
X37361D02*
X43061D01*
X8661Y39004D02*
X21261D01*
X22761D02*
X28661D01*
X30161D02*
X35861D01*
X37361D02*
X43061D01*
X8561Y38904D02*
X21261D01*
X22761D02*
X28661D01*
X30061D02*
X35861D01*
X37261D02*
X43061D01*
X8561Y38804D02*
X21261D01*
X22661D02*
X28661D01*
X30061D02*
X35861D01*
X37261D02*
X43061D01*
X8461Y38704D02*
X21261D01*
X22661D02*
X28561D01*
X30061D02*
X35861D01*
X37261D02*
X42961D01*
X8461Y38604D02*
X21161D01*
X22661D02*
X28561D01*
X30061D02*
X35761D01*
X37261D02*
X42961D01*
X8361Y38504D02*
X21161D01*
X22661D02*
X28561D01*
X29961D02*
X35761D01*
X37161D02*
X42961D01*
X8361Y38404D02*
X21161D01*
X22561D02*
X28561D01*
X29961D02*
X35761D01*
X37161D02*
X42961D01*
X8361Y38304D02*
X21161D01*
X22561D02*
X28461D01*
X29961D02*
X35761D01*
X37161D02*
X42861D01*
X8261Y38204D02*
X21161D01*
X22561D02*
X28461D01*
X29961D02*
X35661D01*
X37161D02*
X42861D01*
X8261Y38104D02*
X21061D01*
X22561D02*
X28461D01*
X29861D02*
X35661D01*
X37061D02*
X42861D01*
X8261Y38004D02*
X21061D01*
X22461D02*
X28461D01*
X29861D02*
X35661D01*
X37061D02*
X42861D01*
X8261Y37904D02*
X21061D01*
X22461D02*
X28361D01*
X29861D02*
X35661D01*
X37061D02*
X42761D01*
X8161Y37804D02*
X15761D01*
X22461D02*
X28361D01*
X29861D02*
X35561D01*
X37061D02*
X42761D01*
X8161Y37704D02*
X15361D01*
X22461D02*
X28361D01*
X29861D02*
X35561D01*
X37061D02*
X42761D01*
X8161Y37604D02*
X15161D01*
X22461D02*
X28361D01*
X29761D02*
X35561D01*
X36961D02*
X42761D01*
X8161Y37504D02*
X15061D01*
X22361D02*
X28361D01*
X29761D02*
X35561D01*
X36961D02*
X42761D01*
X8061Y37404D02*
X14961D01*
X22361D02*
X28261D01*
X29761D02*
X35461D01*
X36961D02*
X42661D01*
X8061Y37304D02*
X14961D01*
X22361D02*
X28261D01*
X29761D02*
X35461D01*
X36961D02*
X42661D01*
X8061Y37204D02*
X14861D01*
X22361D02*
X28261D01*
X29661D02*
X35461D01*
X36861D02*
X42661D01*
X8061Y37104D02*
X14861D01*
X22261D02*
X28261D01*
X29661D02*
X35461D01*
X36861D02*
X42661D01*
X7961Y37004D02*
X14761D01*
X22261D02*
X28161D01*
X29661D02*
X35461D01*
X36861D02*
X42561D01*
X7961Y36904D02*
X14761D01*
X22261D02*
X28161D01*
X29661D02*
X35361D01*
X36861D02*
X42561D01*
X7961Y36804D02*
X14761D01*
X22261D02*
X28161D01*
X29561D02*
X35361D01*
X36761D02*
X42561D01*
X7961Y36704D02*
X14761D01*
X22161D02*
X28161D01*
X29561D02*
X35361D01*
X36761D02*
X42561D01*
X7861Y36604D02*
X14661D01*
X22161D02*
X28061D01*
X29561D02*
X35361D01*
X36761D02*
X42461D01*
X7861Y36504D02*
X14661D01*
X22161D02*
X28061D01*
X29561D02*
X35261D01*
X36761D02*
X42461D01*
X7861Y36404D02*
X14661D01*
X22161D02*
X28061D01*
X29461D02*
X35261D01*
X36661D02*
X42461D01*
X7861Y36304D02*
X14661D01*
X22061D02*
X28061D01*
X29461D02*
X35261D01*
X36661D02*
X42461D01*
X7761Y36204D02*
X14561D01*
X22061D02*
X27961D01*
X29461D02*
X35261D01*
X36661D02*
X42361D01*
X7761Y36104D02*
X14561D01*
X22061D02*
X27961D01*
X29461D02*
X35161D01*
X36661D02*
X42361D01*
X7761Y36004D02*
X14561D01*
X22061D02*
X27961D01*
X29361D02*
X35161D01*
X36661D02*
X42361D01*
X7761Y35904D02*
X14561D01*
X21961D02*
X27961D01*
X29361D02*
X35161D01*
X36561D02*
X42361D01*
X7761Y35804D02*
X14561D01*
X21961D02*
X27861D01*
X29361D02*
X35161D01*
X36561D02*
X42361D01*
X7661Y35704D02*
X14461D01*
X21961D02*
X27861D01*
X29361D02*
X35061D01*
X36561D02*
X42261D01*
X7661Y35604D02*
X14461D01*
X21961D02*
X27861D01*
X29261D02*
X35061D01*
X36561D02*
X42261D01*
X7661Y35504D02*
X14461D01*
X21961D02*
X27861D01*
X29261D02*
X35061D01*
X36461D02*
X42261D01*
X7661Y35404D02*
X14461D01*
X21861D02*
X27761D01*
X29261D02*
X35061D01*
X36461D02*
X42261D01*
X7561Y35304D02*
X14361D01*
X21861D02*
X27761D01*
X29261D02*
X34961D01*
X36461D02*
X42161D01*
X7561Y35204D02*
X14361D01*
X21861D02*
X27761D01*
X29161D02*
X34961D01*
X36461D02*
X42161D01*
X7561Y35104D02*
X14361D01*
X21861D02*
X27761D01*
X29161D02*
X34961D01*
X36361D02*
X42161D01*
X7561Y35004D02*
X14361D01*
X21761D02*
X27761D01*
X29161D02*
X34961D01*
X36361D02*
X42161D01*
X7461Y34904D02*
X14261D01*
X21761D02*
X27661D01*
X29161D02*
X34861D01*
X36361D02*
X42061D01*
X7461Y34804D02*
X14261D01*
X21761D02*
X27661D01*
X29061D02*
X34861D01*
X36361D02*
X42061D01*
X7461Y34704D02*
X14261D01*
X21761D02*
X27661D01*
X29061D02*
X34861D01*
X36261D02*
X42061D01*
X7461Y34604D02*
X14261D01*
X21661D02*
X27661D01*
X29061D02*
X34861D01*
X36261D02*
X42061D01*
X7361Y34504D02*
X14161D01*
X21661D02*
X27561D01*
X29061D02*
X34761D01*
X36261D02*
X41961D01*
X7361Y34404D02*
X14161D01*
X21661D02*
X27561D01*
X28961D02*
X34761D01*
X36261D02*
X41961D01*
X7361Y34304D02*
X14161D01*
X21661D02*
X27561D01*
X28961D02*
X34761D01*
X36261D02*
X41961D01*
X7361Y34204D02*
X14161D01*
X21561D02*
X27561D01*
X28961D02*
X34761D01*
X36161D02*
X41961D01*
X7261Y34104D02*
X14061D01*
X21561D02*
X27461D01*
X28961D02*
X34761D01*
X36161D02*
X41961D01*
X7261Y34004D02*
X14061D01*
X21561D02*
X27461D01*
X28861D02*
X34661D01*
X36161D02*
X41861D01*
X7261Y33904D02*
X14061D01*
X21561D02*
X27461D01*
X28861D02*
X34661D01*
X36161D02*
X41861D01*
X7261Y33804D02*
X14061D01*
X21461D02*
X27461D01*
X28861D02*
X34661D01*
X36061D02*
X41861D01*
X7161Y33704D02*
X13961D01*
X21461D02*
X27361D01*
X28861D02*
X34661D01*
X36061D02*
X41861D01*
X7161Y33604D02*
X13961D01*
X21461D02*
X27361D01*
X28761D02*
X34561D01*
X36061D02*
X41761D01*
X7161Y33504D02*
X13961D01*
X21461D02*
X27361D01*
X28761D02*
X34561D01*
X36061D02*
X41761D01*
X7161Y33404D02*
X13961D01*
X21361D02*
X27361D01*
X28761D02*
X34561D01*
X35961D02*
X41761D01*
X7161Y33304D02*
X13961D01*
X21361D02*
X27261D01*
X28761D02*
X34561D01*
X35961D02*
X41761D01*
X7061Y33204D02*
X13861D01*
X21361D02*
X27261D01*
X28661D02*
X34461D01*
X35961D02*
X41661D01*
X7061Y33104D02*
X13861D01*
X21261D02*
X27261D01*
X28661D02*
X34461D01*
X35961D02*
X41661D01*
X7061Y33004D02*
X13861D01*
X21261D02*
X27261D01*
X28661D02*
X34461D01*
X35861D02*
X41661D01*
X7061Y32904D02*
X13861D01*
X21161D02*
X27261D01*
X28661D02*
X34461D01*
X35861D02*
X41661D01*
X6961Y32804D02*
X13861D01*
X21061D02*
X27161D01*
X28561D02*
X34361D01*
X35861D02*
X41561D01*
X6961Y32704D02*
X13861D01*
X21061D02*
X27161D01*
X28561D02*
X34361D01*
X35861D02*
X41561D01*
X6961Y32604D02*
X13861D01*
X20961D02*
X27161D01*
X28561D02*
X34361D01*
X35861D02*
X41561D01*
X6961Y32504D02*
X13961D01*
X20861D02*
X27161D01*
X28561D02*
X34361D01*
X35761D02*
X41561D01*
X6861Y32404D02*
X14061D01*
X20661D02*
X27061D01*
X28461D02*
X34261D01*
X35761D02*
X41561D01*
X6861Y32304D02*
X14161D01*
X20461D02*
X27061D01*
X28461D02*
X34261D01*
X35761D02*
X41461D01*
X6861Y32204D02*
X27061D01*
X28461D02*
X34261D01*
X35761D02*
X41461D01*
X6861Y32104D02*
X27061D01*
X28461D02*
X34261D01*
X35661D02*
X41461D01*
X6861Y32004D02*
X26961D01*
X28461D02*
X34161D01*
X35661D02*
X41461D01*
X6861Y31904D02*
X26961D01*
X28361D02*
X34161D01*
X35661D02*
X41361D01*
X6761Y31804D02*
X26961D01*
X28361D02*
X34161D01*
X35661D02*
X41361D01*
X6761Y31704D02*
X26861D01*
X28361D02*
X34161D01*
X35561D02*
X41361D01*
X6761Y31604D02*
X26861D01*
X28361D02*
X34061D01*
X35561D02*
X41361D01*
X6761Y31504D02*
X26861D01*
X28261D02*
X34061D01*
X35561D02*
X41261D01*
X6761Y31404D02*
X26761D01*
X28261D02*
X34061D01*
X35561D02*
X41261D01*
X6761Y31304D02*
X26761D01*
X28261D02*
X34061D01*
X35461D02*
X41261D01*
X6761Y31204D02*
X26661D01*
X28261D02*
X34061D01*
X35461D02*
X41261D01*
X6761Y31104D02*
X26661D01*
X28161D02*
X33961D01*
X35461D02*
X41161D01*
X6761Y31004D02*
X26561D01*
X28161D02*
X33961D01*
X35461D02*
X41161D01*
X6761Y30904D02*
X26561D01*
X28161D02*
X33961D01*
X35361D02*
X41161D01*
X6761Y30804D02*
X26461D01*
X28161D02*
X33961D01*
X35361D02*
X41161D01*
X6761Y30704D02*
X26461D01*
X28061D02*
X33861D01*
X35361D02*
X41161D01*
X6861Y30604D02*
X26361D01*
X28061D02*
X33861D01*
X35361D02*
X41061D01*
X6861Y30504D02*
X26261D01*
X28061D02*
X33861D01*
X35361D02*
X41061D01*
X6861Y30404D02*
X26161D01*
X27961D02*
X33861D01*
X35261D02*
X41061D01*
X6861Y30304D02*
X26061D01*
X27961D02*
X33761D01*
X35261D02*
X41061D01*
X6961Y30204D02*
X26061D01*
X27961D02*
X33761D01*
X35261D02*
X40961D01*
X6961Y30104D02*
X25961D01*
X27861D02*
X33761D01*
X35261D02*
X40961D01*
X6961Y30004D02*
X25761D01*
X27761D02*
X33761D01*
X35161D02*
X40961D01*
X7061Y29904D02*
X25661D01*
X27761D02*
X33661D01*
X35161D02*
X40961D01*
X7161Y29804D02*
X25561D01*
X27661D02*
X33661D01*
X35161D02*
X40861D01*
X7261Y29704D02*
X25361D01*
X27661D02*
X33661D01*
X35161D02*
X40861D01*
X7261Y29604D02*
X25261D01*
X27561D02*
X33661D01*
X35061D02*
X40861D01*
X7461Y29504D02*
X25061D01*
X27461D02*
X33561D01*
X35061D02*
X40861D01*
X7561Y29404D02*
X24761D01*
X27361D02*
X33561D01*
X35061D02*
X40761D01*
X7761Y29304D02*
X24561D01*
X27261D02*
X33561D01*
X35061D02*
X40761D01*
X7961Y29204D02*
X24161D01*
X27161D02*
X33561D01*
X34961D02*
X40761D01*
X8461Y29104D02*
X23561D01*
X27061D02*
X33461D01*
X34961D02*
X40761D01*
X26961Y29004D02*
X33461D01*
X26761Y28904D02*
X33461D01*
X26661Y28804D02*
X33361D01*
X26461Y28704D02*
X33361D01*
X26261Y28604D02*
X33361D01*
X26061Y28504D02*
X33261D01*
X25861Y28404D02*
X33261D01*
X25661Y28304D02*
X33161D01*
X25261Y28204D02*
X33161D01*
X24861Y28104D02*
X33161D01*
X20061Y28004D02*
X33061D01*
X19961Y27904D02*
X33061D01*
X19961Y27804D02*
X32961D01*
X19861Y27704D02*
X32961D01*
X19861Y27604D02*
X32861D01*
X19861Y27504D02*
X32861D01*
X19761Y27404D02*
X32761D01*
X19761Y27304D02*
X32761D01*
X19761Y27204D02*
X32661D01*
X19661Y27104D02*
X32661D01*
X19661Y27004D02*
X32561D01*
X19661Y26904D02*
X32461D01*
X19561Y26804D02*
X32461D01*
X19561Y26704D02*
X32361D01*
X19561Y26604D02*
X32261D01*
X19461Y26504D02*
X32261D01*
X19461Y26404D02*
X32161D01*
X19461Y26304D02*
X32061D01*
X19361Y26204D02*
X31961D01*
X19361Y26104D02*
X31961D01*
X19361Y26004D02*
X31861D01*
X19261Y25904D02*
X31761D01*
X19261Y25804D02*
X31661D01*
X19261Y25704D02*
X31561D01*
X19161Y25604D02*
X31461D01*
X19161Y25504D02*
X31361D01*
X19161Y25404D02*
X31261D01*
X19061Y25304D02*
X31061D01*
X19061Y25204D02*
X30961D01*
X18961Y25104D02*
X30861D01*
X18961Y25004D02*
X30661D01*
X18961Y24904D02*
X30561D01*
X18861Y24804D02*
X30361D01*
X18861Y24704D02*
X30161D01*
X18861Y24604D02*
X30061D01*
X18761Y24504D02*
X29761D01*
X18761Y24404D02*
X29561D01*
X18761Y24304D02*
X29261D01*
X18661Y24204D02*
X28961D01*
X18661Y24104D02*
X28561D01*
X18661Y24004D02*
X27961D01*
X6761Y30704D02*
Y31804D01*
X6861Y30304D02*
Y32404D01*
X6961Y30004D02*
Y32804D01*
X7061Y29904D02*
Y33204D01*
X7161Y29804D02*
Y33704D01*
X7261Y29604D02*
Y34104D01*
X7361Y29604D02*
Y34504D01*
X7461Y29504D02*
Y34904D01*
X7561Y29404D02*
Y35304D01*
X7661Y29404D02*
Y35704D01*
X7761Y29304D02*
Y36204D01*
X7861Y29304D02*
Y36604D01*
X7961Y29204D02*
Y37004D01*
X8061Y29204D02*
Y37404D01*
X8161Y29204D02*
Y37804D01*
X8261Y29204D02*
Y38204D01*
X8361Y29204D02*
Y38504D01*
X8461Y29104D02*
Y38704D01*
X8561Y29104D02*
Y38904D01*
X8661Y29104D02*
Y39104D01*
X8761Y29104D02*
Y39304D01*
X8861Y29104D02*
Y39404D01*
X8961Y29104D02*
Y39604D01*
X9061Y29104D02*
Y39704D01*
X9161Y29104D02*
Y39804D01*
X9261Y29104D02*
Y39904D01*
X9361Y29104D02*
Y40004D01*
X9461Y29104D02*
Y40104D01*
X9561Y29104D02*
Y40204D01*
X9661Y29104D02*
Y40304D01*
X9761Y29104D02*
Y40304D01*
X9861Y29104D02*
Y40404D01*
X9961Y29104D02*
Y40504D01*
X10061Y29104D02*
Y40504D01*
X10161Y29104D02*
Y40604D01*
X10261Y29104D02*
Y40604D01*
X10361Y29104D02*
Y40704D01*
X10461Y29104D02*
Y40704D01*
X10561Y29104D02*
Y40704D01*
X10661Y29104D02*
Y40804D01*
X10761Y29104D02*
Y40804D01*
X10861Y29104D02*
Y40804D01*
X10961Y29104D02*
Y40904D01*
X11061Y29104D02*
Y40904D01*
X11161Y29104D02*
Y40904D01*
X11261Y29104D02*
Y40904D01*
X11361Y29104D02*
Y41004D01*
X11461Y29104D02*
Y41004D01*
X11561Y29104D02*
Y41004D01*
X11661Y29104D02*
Y41004D01*
X11761Y29104D02*
Y41004D01*
X11861Y29104D02*
Y41004D01*
X11961Y29104D02*
Y41004D01*
X12061Y29104D02*
Y41004D01*
X12161Y29104D02*
Y41004D01*
X12261Y29104D02*
Y41004D01*
X12361Y29104D02*
Y41004D01*
X12461Y29104D02*
Y41004D01*
X12561Y29104D02*
Y41004D01*
X12661Y29104D02*
Y41004D01*
X12761Y29104D02*
Y41004D01*
X12861Y29104D02*
Y41004D01*
X12961Y29104D02*
Y41004D01*
X13061Y29104D02*
Y41004D01*
X13161Y29104D02*
Y41004D01*
X13261Y29104D02*
Y41004D01*
X13361Y29104D02*
Y41004D01*
X13461Y29104D02*
Y41004D01*
X13561Y29104D02*
Y41004D01*
X13661Y29104D02*
Y41004D01*
X13761Y29104D02*
Y41004D01*
X13861Y29104D02*
Y41004D01*
X13961Y33304D02*
Y41004D01*
Y29104D02*
Y32504D01*
X14061Y33804D02*
Y41004D01*
Y29104D02*
Y32404D01*
X14161Y34204D02*
Y41004D01*
Y29104D02*
Y32304D01*
X14261Y34604D02*
Y41004D01*
Y29104D02*
Y32204D01*
X14361Y35004D02*
Y41004D01*
Y29104D02*
Y32204D01*
X14461Y35404D02*
Y41004D01*
Y29104D02*
Y32204D01*
X14561Y35804D02*
Y41004D01*
Y29104D02*
Y32204D01*
X14661Y36304D02*
Y41004D01*
Y29104D02*
Y32204D01*
X14761Y36704D02*
Y41004D01*
Y29104D02*
Y32204D01*
X14861Y37104D02*
Y41004D01*
Y29104D02*
Y32204D01*
X14961Y37304D02*
Y41004D01*
Y29104D02*
Y32204D01*
X15061Y37504D02*
Y41004D01*
Y29104D02*
Y32204D01*
X15161Y37604D02*
Y41004D01*
Y29104D02*
Y32204D01*
X15261Y37704D02*
Y41004D01*
Y29104D02*
Y32204D01*
X15361Y37704D02*
Y41004D01*
Y29104D02*
Y32204D01*
X15461Y37804D02*
Y41004D01*
Y29104D02*
Y32204D01*
X15561Y37804D02*
Y41004D01*
Y29104D02*
Y32204D01*
X15661Y37804D02*
Y41004D01*
Y29104D02*
Y32204D01*
X15761Y37804D02*
Y41004D01*
Y29104D02*
Y32204D01*
X15861Y37904D02*
Y41004D01*
Y29104D02*
Y32204D01*
X15961Y37904D02*
Y41004D01*
Y29104D02*
Y32204D01*
X16061Y37904D02*
Y41004D01*
Y29104D02*
Y32204D01*
X16161Y37904D02*
Y41004D01*
Y29104D02*
Y32204D01*
X16261Y37904D02*
Y41004D01*
Y29104D02*
Y32204D01*
X16361Y37904D02*
Y41004D01*
Y29104D02*
Y32204D01*
X16461Y37904D02*
Y41004D01*
Y29104D02*
Y32204D01*
X16561Y37904D02*
Y41004D01*
Y29104D02*
Y32204D01*
X16661Y37904D02*
Y41004D01*
Y29104D02*
Y32204D01*
X16761Y37904D02*
Y41004D01*
Y29104D02*
Y32204D01*
X16861Y37904D02*
Y41004D01*
Y29104D02*
Y32204D01*
X16961Y37904D02*
Y41004D01*
Y29104D02*
Y32204D01*
X17061Y37904D02*
Y41004D01*
Y29104D02*
Y32204D01*
X17161Y37904D02*
Y41004D01*
Y29104D02*
Y32204D01*
X17261Y37904D02*
Y41004D01*
Y29104D02*
Y32204D01*
X17361Y37904D02*
Y41004D01*
Y29104D02*
Y32204D01*
X17461Y37904D02*
Y41004D01*
Y29104D02*
Y32204D01*
X17561Y37904D02*
Y41004D01*
Y29104D02*
Y32204D01*
X17661Y37904D02*
Y41004D01*
Y29104D02*
Y32204D01*
X17761Y37904D02*
Y41004D01*
Y29104D02*
Y32204D01*
X17861Y37904D02*
Y41004D01*
Y29104D02*
Y32204D01*
X17961Y37904D02*
Y41004D01*
Y29104D02*
Y32204D01*
X18061Y37904D02*
Y41004D01*
Y29104D02*
Y32204D01*
X18161Y37904D02*
Y41004D01*
Y29104D02*
Y32204D01*
X18261Y37904D02*
Y41004D01*
Y29104D02*
Y32204D01*
X18361Y37904D02*
Y41004D01*
Y29104D02*
Y32204D01*
X18461Y37904D02*
Y41004D01*
Y29104D02*
Y32204D01*
X18561Y37904D02*
Y41004D01*
Y29104D02*
Y32204D01*
X18661Y37904D02*
Y41004D01*
Y29104D02*
Y32204D01*
Y24004D02*
Y24204D01*
X18761Y37904D02*
Y41004D01*
Y29104D02*
Y32204D01*
Y24004D02*
Y24504D01*
X18861Y37904D02*
Y41004D01*
Y29104D02*
Y32204D01*
Y24004D02*
Y24804D01*
X18961Y37904D02*
Y41004D01*
Y29104D02*
Y32204D01*
Y24004D02*
Y25104D01*
X19061Y37904D02*
Y41004D01*
Y29104D02*
Y32204D01*
Y24004D02*
Y25304D01*
X19161Y37904D02*
Y41004D01*
Y29104D02*
Y32204D01*
Y24004D02*
Y25604D01*
X19261Y37904D02*
Y41004D01*
Y29104D02*
Y32204D01*
Y24004D02*
Y25904D01*
X19361Y37904D02*
Y41004D01*
Y29104D02*
Y32204D01*
Y24004D02*
Y26204D01*
X19461Y37904D02*
Y41004D01*
Y29104D02*
Y32204D01*
Y24004D02*
Y26504D01*
X19561Y37904D02*
Y41004D01*
Y29104D02*
Y32204D01*
Y24004D02*
Y26804D01*
X19661Y37904D02*
Y41004D01*
Y29104D02*
Y32204D01*
Y24004D02*
Y27104D01*
X19761Y37904D02*
Y41004D01*
Y29104D02*
Y32204D01*
Y24004D02*
Y27404D01*
X19861Y37904D02*
Y41004D01*
Y29104D02*
Y32204D01*
Y24004D02*
Y27704D01*
X19961Y37904D02*
Y41004D01*
Y29104D02*
Y32204D01*
Y24004D02*
Y27904D01*
X20061Y37904D02*
Y41004D01*
Y29104D02*
Y32204D01*
Y24004D02*
Y28004D01*
X20161Y37904D02*
Y41004D01*
Y29104D02*
Y32204D01*
Y24004D02*
Y28004D01*
X20261Y37904D02*
Y41004D01*
Y29104D02*
Y32204D01*
Y24004D02*
Y28004D01*
X20361Y37904D02*
Y41004D01*
Y29104D02*
Y32204D01*
Y24004D02*
Y28004D01*
X20461Y37904D02*
Y41004D01*
Y29104D02*
Y32304D01*
Y24004D02*
Y28004D01*
X20561Y37904D02*
Y41004D01*
Y29104D02*
Y32304D01*
Y24004D02*
Y28004D01*
X20661Y37904D02*
Y41004D01*
Y29104D02*
Y32404D01*
Y24004D02*
Y28004D01*
X20761Y37904D02*
Y41004D01*
Y29104D02*
Y32404D01*
Y24004D02*
Y28004D01*
X20861Y37904D02*
Y41004D01*
Y29104D02*
Y32504D01*
Y24004D02*
Y28004D01*
X20961Y37904D02*
Y41004D01*
Y29104D02*
Y32604D01*
Y24004D02*
Y28004D01*
X21061Y37904D02*
Y41004D01*
Y29104D02*
Y32804D01*
Y24004D02*
Y28004D01*
X21161Y38204D02*
Y41004D01*
Y29104D02*
Y32904D01*
Y24004D02*
Y28004D01*
X21261Y38704D02*
Y41004D01*
Y29104D02*
Y33104D01*
Y24004D02*
Y28004D01*
X21361Y39104D02*
Y41004D01*
Y29104D02*
Y33404D01*
Y24004D02*
Y28004D01*
X21461Y39504D02*
Y41004D01*
Y29104D02*
Y33804D01*
Y24004D02*
Y28004D01*
X21561Y39904D02*
Y41004D01*
Y29104D02*
Y34204D01*
Y24004D02*
Y28004D01*
X21661Y40304D02*
Y41004D01*
Y29104D02*
Y34604D01*
Y24004D02*
Y28004D01*
X21761Y40704D02*
Y41004D01*
Y29104D02*
Y35004D01*
Y24004D02*
Y28004D01*
X21861Y29104D02*
Y35404D01*
Y24004D02*
Y28004D01*
X21961Y29104D02*
Y35904D01*
Y24004D02*
Y28004D01*
X22061Y29104D02*
Y36304D01*
Y24004D02*
Y28004D01*
X22161Y29104D02*
Y36704D01*
Y24004D02*
Y28004D01*
X22261Y29104D02*
Y37104D01*
Y24004D02*
Y28004D01*
X22361Y29104D02*
Y37504D01*
Y24004D02*
Y28004D01*
X22461Y29104D02*
Y38004D01*
Y24004D02*
Y28004D01*
X22561Y29104D02*
Y38404D01*
Y24004D02*
Y28004D01*
X22661Y29104D02*
Y38804D01*
Y24004D02*
Y28004D01*
X22761Y29104D02*
Y39204D01*
Y24004D02*
Y28004D01*
X22861Y29104D02*
Y39604D01*
Y24004D02*
Y28004D01*
X22961Y29104D02*
Y40004D01*
Y24004D02*
Y28004D01*
X23061Y29104D02*
Y40504D01*
Y24004D02*
Y28004D01*
X23161Y29104D02*
Y40904D01*
Y24004D02*
Y28004D01*
X23261Y29104D02*
Y41304D01*
Y24004D02*
Y28004D01*
X23361Y29104D02*
Y41704D01*
Y24004D02*
Y28004D01*
X23461Y29104D02*
Y42104D01*
Y24004D02*
Y28004D01*
X23561Y29104D02*
Y42504D01*
Y24004D02*
Y28004D01*
X23661Y29204D02*
Y43004D01*
Y24004D02*
Y28004D01*
X23761Y29204D02*
Y43404D01*
Y24004D02*
Y28004D01*
X23861Y29204D02*
Y43804D01*
Y24004D02*
Y28004D01*
X23961Y29204D02*
Y44204D01*
Y24004D02*
Y28004D01*
X24061Y29204D02*
Y44604D01*
Y24004D02*
Y28004D01*
X24161Y29204D02*
Y45104D01*
Y24004D02*
Y28004D01*
X24261Y29304D02*
Y45204D01*
Y24004D02*
Y28004D01*
X24361Y29304D02*
Y45204D01*
Y24004D02*
Y28004D01*
X24461Y29304D02*
Y45204D01*
Y24004D02*
Y28004D01*
X24561Y29304D02*
Y45204D01*
Y24004D02*
Y28004D01*
X24661Y29404D02*
Y45204D01*
Y24004D02*
Y28004D01*
X24761Y29404D02*
Y45204D01*
Y24004D02*
Y28004D01*
X24861Y29504D02*
Y45204D01*
Y24004D02*
Y28104D01*
X24961Y29504D02*
Y45204D01*
Y24004D02*
Y28104D01*
X25061Y29504D02*
Y45204D01*
Y24004D02*
Y28104D01*
X25161Y29604D02*
Y45204D01*
Y24004D02*
Y28104D01*
X25261Y29604D02*
Y45204D01*
Y24004D02*
Y28204D01*
X25361Y29704D02*
Y45204D01*
Y24004D02*
Y28204D01*
X25461Y29804D02*
Y45204D01*
Y24004D02*
Y28204D01*
X25561Y29804D02*
Y45204D01*
Y24004D02*
Y28204D01*
X25661Y29904D02*
Y45204D01*
Y24004D02*
Y28304D01*
X25761Y30004D02*
Y45204D01*
Y24004D02*
Y28304D01*
X25861Y30104D02*
Y45204D01*
Y24004D02*
Y28404D01*
X25961Y30104D02*
Y45204D01*
Y24004D02*
Y28404D01*
X26061Y30204D02*
Y45204D01*
Y24004D02*
Y28504D01*
X26161Y30404D02*
Y45204D01*
Y24004D02*
Y28504D01*
X26261Y30504D02*
Y45204D01*
Y24004D02*
Y28604D01*
X26361Y30604D02*
Y45204D01*
Y24004D02*
Y28604D01*
X26461Y30704D02*
Y45204D01*
Y24004D02*
Y28704D01*
X26561Y30904D02*
Y45204D01*
Y24004D02*
Y28704D01*
X26661Y31104D02*
Y45204D01*
Y24004D02*
Y28804D01*
X26761Y31304D02*
Y45204D01*
Y24004D02*
Y28904D01*
X26861Y31504D02*
Y45204D01*
Y24004D02*
Y28904D01*
X26961Y31804D02*
Y45204D01*
Y24004D02*
Y29004D01*
X27061Y32104D02*
Y45204D01*
Y24004D02*
Y29104D01*
X27161Y32504D02*
Y45204D01*
Y24004D02*
Y29204D01*
X27261Y32904D02*
Y45204D01*
Y24004D02*
Y29304D01*
X27361Y33404D02*
Y45204D01*
Y24004D02*
Y29404D01*
X27461Y33804D02*
Y45204D01*
Y24004D02*
Y29504D01*
X27561Y34204D02*
Y45204D01*
Y24004D02*
Y29604D01*
X27661Y34604D02*
Y45204D01*
Y24004D02*
Y29804D01*
X27761Y35004D02*
Y45204D01*
Y24004D02*
Y30004D01*
X27861Y35504D02*
Y45204D01*
Y24004D02*
Y30104D01*
X27961Y35904D02*
Y45204D01*
Y24004D02*
Y30404D01*
X28061Y36304D02*
Y45204D01*
Y24104D02*
Y30704D01*
X28161Y36704D02*
Y45204D01*
Y24104D02*
Y31104D01*
X28261Y37104D02*
Y45204D01*
Y24104D02*
Y31504D01*
X28361Y37504D02*
Y45204D01*
Y24104D02*
Y31904D01*
X28461Y38004D02*
Y45204D01*
Y24104D02*
Y32404D01*
X28561Y38404D02*
Y45204D01*
Y24104D02*
Y32804D01*
X28661Y38804D02*
Y45204D01*
Y24204D02*
Y33204D01*
X28761Y39204D02*
Y45204D01*
Y24204D02*
Y33604D01*
X28861Y39604D02*
Y45204D01*
Y24204D02*
Y34004D01*
X28961Y40104D02*
Y45204D01*
Y24204D02*
Y34404D01*
X29061Y40504D02*
Y45204D01*
Y24304D02*
Y34804D01*
X29161Y40904D02*
Y45204D01*
Y24304D02*
Y35204D01*
X29261Y41304D02*
Y45204D01*
Y24304D02*
Y35604D01*
X29361Y41704D02*
Y45204D01*
Y24404D02*
Y36004D01*
X29461Y42104D02*
Y45204D01*
Y24404D02*
Y36404D01*
X29561Y42604D02*
Y45204D01*
Y24404D02*
Y36804D01*
X29661Y43004D02*
Y45204D01*
Y24504D02*
Y37204D01*
X29761Y43404D02*
Y45204D01*
Y24504D02*
Y37604D01*
X29861Y43804D02*
Y45204D01*
Y24604D02*
Y38104D01*
X29961Y44204D02*
Y45204D01*
Y24604D02*
Y38504D01*
X30061Y44604D02*
Y45204D01*
Y24604D02*
Y38904D01*
X30161Y24704D02*
Y39304D01*
X30261Y24804D02*
Y39704D01*
X30361Y24804D02*
Y40104D01*
X30461Y24904D02*
Y40504D01*
X30561Y24904D02*
Y40904D01*
X30661Y25004D02*
Y41004D01*
X30761Y25104D02*
Y41004D01*
X30861Y25104D02*
Y41004D01*
X30961Y25204D02*
Y41004D01*
X31061Y25304D02*
Y41004D01*
X31161Y25404D02*
Y41004D01*
X31261Y25404D02*
Y41004D01*
X31361Y25504D02*
Y41004D01*
X31461Y25604D02*
Y41004D01*
X31561Y25704D02*
Y41004D01*
X31661Y25804D02*
Y41004D01*
X31761Y25904D02*
Y41004D01*
X31861Y26004D02*
Y41004D01*
X31961Y26104D02*
Y41004D01*
X32061Y26304D02*
Y41004D01*
X32161Y26404D02*
Y41004D01*
X32261Y26504D02*
Y41004D01*
X32361Y26704D02*
Y41004D01*
X32461Y26804D02*
Y41004D01*
X32561Y27004D02*
Y41004D01*
X32661Y27104D02*
Y41004D01*
X32761Y27304D02*
Y41004D01*
X32861Y27504D02*
Y41004D01*
X32961Y27704D02*
Y41004D01*
X33061Y27904D02*
Y41004D01*
X33161Y28104D02*
Y41004D01*
X33261Y28404D02*
Y41004D01*
X33361Y28604D02*
Y41004D01*
X33461Y28904D02*
Y41004D01*
X33561Y29204D02*
Y41004D01*
X33661Y29604D02*
Y41004D01*
X33761Y30004D02*
Y41004D01*
X33861Y30404D02*
Y41004D01*
X33961Y30804D02*
Y41004D01*
X34061Y31204D02*
Y41004D01*
X34161Y31704D02*
Y41004D01*
X34261Y32104D02*
Y41004D01*
X34361Y32504D02*
Y41004D01*
X34461Y32904D02*
Y41004D01*
X34561Y33304D02*
Y41004D01*
X34661Y33704D02*
Y41004D01*
X34761Y34104D02*
Y41004D01*
X34861Y34604D02*
Y41004D01*
X34961Y35004D02*
Y41004D01*
X35061Y35404D02*
Y41004D01*
Y29104D02*
Y29604D01*
X35161Y35804D02*
Y41004D01*
Y29104D02*
Y30004D01*
X35261Y36204D02*
Y41004D01*
Y29104D02*
Y30404D01*
X35361Y36604D02*
Y41004D01*
Y29104D02*
Y30904D01*
X35461Y37004D02*
Y41004D01*
Y29104D02*
Y31304D01*
X35561Y37504D02*
Y41004D01*
Y29104D02*
Y31704D01*
X35661Y37904D02*
Y41004D01*
Y29104D02*
Y32104D01*
X35761Y38304D02*
Y41004D01*
Y29104D02*
Y32504D01*
X35861Y38704D02*
Y41004D01*
Y29104D02*
Y33004D01*
X35961Y39104D02*
Y41004D01*
Y29104D02*
Y33404D01*
X36061Y39504D02*
Y41004D01*
Y29104D02*
Y33804D01*
X36161Y39904D02*
Y41004D01*
Y29104D02*
Y34204D01*
X36261Y40404D02*
Y41004D01*
Y29104D02*
Y34704D01*
X36361Y40804D02*
Y41004D01*
Y29104D02*
Y35104D01*
X36461Y29104D02*
Y35504D01*
X36561Y29104D02*
Y35904D01*
X36661Y29104D02*
Y36404D01*
X36761Y29104D02*
Y36804D01*
X36861Y29104D02*
Y37204D01*
X36961Y29104D02*
Y37604D01*
X37061Y29104D02*
Y38104D01*
X37161Y29104D02*
Y38504D01*
X37261Y29104D02*
Y38904D01*
X37361Y29104D02*
Y39304D01*
X37461Y29104D02*
Y39804D01*
X37561Y29104D02*
Y40204D01*
X37661Y29104D02*
Y40604D01*
X37761Y29104D02*
Y41004D01*
X37861Y29104D02*
Y41004D01*
X37961Y29104D02*
Y41004D01*
X38061Y29104D02*
Y41004D01*
X38161Y29104D02*
Y41004D01*
X38261Y29104D02*
Y41004D01*
X38361Y29104D02*
Y41004D01*
X38461Y29104D02*
Y41004D01*
X38561Y29104D02*
Y41004D01*
X38661Y29104D02*
Y41004D01*
X38761Y29104D02*
Y41004D01*
X38861Y29104D02*
Y41004D01*
X38961Y29104D02*
Y41004D01*
X39061Y29104D02*
Y41004D01*
X39161Y29104D02*
Y41004D01*
X39261Y29104D02*
Y41004D01*
X39361Y29104D02*
Y41004D01*
X39461Y29104D02*
Y41004D01*
X39561Y29104D02*
Y41004D01*
X39661Y29104D02*
Y41004D01*
X39761Y29104D02*
Y41004D01*
X39861Y29104D02*
Y41004D01*
X39961Y29104D02*
Y41004D01*
X40061Y29104D02*
Y41004D01*
X40161Y29104D02*
Y41004D01*
X40261Y29104D02*
Y41004D01*
X40361Y29104D02*
Y41004D01*
X40461Y29104D02*
Y41004D01*
X40561Y29104D02*
Y41004D01*
X40661Y29104D02*
Y41004D01*
X40761Y29104D02*
Y41004D01*
X40861Y29504D02*
Y41004D01*
X40961Y29904D02*
Y41004D01*
X41061Y30304D02*
Y41004D01*
X41161Y30704D02*
Y41004D01*
X41261Y31204D02*
Y41004D01*
X41361Y31604D02*
Y41004D01*
X41461Y32004D02*
Y41004D01*
X41561Y32404D02*
Y41004D01*
X41661Y32904D02*
Y41004D01*
X41761Y33304D02*
Y41004D01*
X41861Y33704D02*
Y41004D01*
X41961Y34104D02*
Y41004D01*
X42061Y34604D02*
Y41004D01*
X42161Y35004D02*
Y41004D01*
X42261Y35404D02*
Y41004D01*
X42361Y35804D02*
Y41004D01*
X42461Y36304D02*
Y41004D01*
X42561Y36704D02*
Y41004D01*
X42661Y37104D02*
Y41004D01*
X42761Y37504D02*
Y41004D01*
X42861Y38004D02*
Y41004D01*
X42961Y38404D02*
Y41004D01*
X43061Y38804D02*
Y41004D01*
X43161Y39204D02*
Y41004D01*
X43261Y39704D02*
Y41004D01*
X43361Y40104D02*
Y41004D01*
X43461Y40504D02*
Y41004D01*
D89*
X31263Y48900D02*
D03*
X35200D02*
D03*
X31263Y53100D02*
D03*
X35200D02*
D03*
X148163Y1500D02*
D03*
X152100D02*
D03*
X59537Y89700D02*
D03*
X55600D02*
D03*
X36763Y73400D02*
D03*
X40700D02*
D03*
X26663Y73800D02*
D03*
X30600D02*
D03*
X25795Y57616D02*
D03*
X21858D02*
D03*
X35551Y57286D02*
D03*
X39488D02*
D03*
X35551Y61486D02*
D03*
X39488D02*
D03*
X101563Y70100D02*
D03*
X105500D02*
D03*
X85037Y90200D02*
D03*
X81100D02*
D03*
X96363Y79300D02*
D03*
X100300D02*
D03*
X49837Y27000D02*
D03*
X45900D02*
D03*
X49863Y22400D02*
D03*
X53800D02*
D03*
X101563Y74500D02*
D03*
X105500D02*
D03*
X56751Y28386D02*
D03*
X60688D02*
D03*
X96963Y97600D02*
D03*
X100900D02*
D03*
X114837Y97400D02*
D03*
X110900D02*
D03*
X6637Y86600D02*
D03*
X2700D02*
D03*
X6637Y82100D02*
D03*
X2700D02*
D03*
X41237Y86400D02*
D03*
X37300D02*
D03*
X29437Y102100D02*
D03*
X25500D02*
D03*
X34600Y107100D02*
D03*
X38537D02*
D03*
X158600Y62300D02*
D03*
X154663D02*
D03*
X150700D02*
D03*
X146763D02*
D03*
X168200Y68400D02*
D03*
X172137D02*
D03*
X119200Y70000D02*
D03*
X115263D02*
D03*
X155400Y94000D02*
D03*
X159337D02*
D03*
D90*
X140583Y40220D02*
D03*
X163417Y50457D02*
D03*
X140583D02*
D03*
Y47898D02*
D03*
Y45339D02*
D03*
Y42779D02*
D03*
X163417Y47898D02*
D03*
Y45339D02*
D03*
Y42779D02*
D03*
Y40220D02*
D03*
Y32543D02*
D03*
Y35102D02*
D03*
Y37661D02*
D03*
X140583Y35102D02*
D03*
Y37661D02*
D03*
Y32543D02*
D03*
D91*
X165389Y5900D02*
D03*
X177200D02*
D03*
X172389Y100600D02*
D03*
X184200D02*
D03*
X172489Y87100D02*
D03*
X184300D02*
D03*
D92*
X149500Y84861D02*
D03*
D93*
Y94900D02*
D03*
D94*
X140598Y1900D02*
D03*
X133600D02*
D03*
X12402Y103900D02*
D03*
X19400D02*
D03*
X7002Y72400D02*
D03*
X14000D02*
D03*
D95*
X92913Y24022D02*
D03*
X121613Y57522D02*
D03*
X102313Y21522D02*
D03*
X115213Y64222D02*
D03*
X187813Y5122D02*
D03*
X174016Y29947D02*
D03*
X155026Y20447D02*
D03*
X5626Y115347D02*
D03*
X163228Y112205D02*
D03*
X153228D02*
D03*
X133900Y20690D02*
D03*
D96*
X149868Y72400D02*
D03*
X141600D02*
D03*
D97*
X133607Y120900D02*
D03*
X146993D02*
D03*
X140300Y117357D02*
D03*
D98*
X192800Y57651D02*
D03*
Y62572D02*
D03*
Y92100D02*
D03*
Y87179D02*
D03*
Y82257D02*
D03*
Y77336D02*
D03*
Y72415D02*
D03*
Y67494D02*
D03*
D99*
X205398Y47612D02*
D03*
Y102139D02*
D03*
D100*
X-9800Y92800D02*
D03*
X7300Y55900D02*
D03*
D101*
X-2320Y92800D02*
D03*
X-6060Y102643D02*
D03*
X14780Y55900D02*
D03*
X11040Y65742D02*
D03*
D102*
X46788Y74086D02*
D03*
Y72117D02*
D03*
Y70149D02*
D03*
Y68180D02*
D03*
Y66212D02*
D03*
Y64243D02*
D03*
Y62275D02*
D03*
Y60306D02*
D03*
Y58338D02*
D03*
Y56369D02*
D03*
Y54401D02*
D03*
Y52432D02*
D03*
Y50464D02*
D03*
Y48495D02*
D03*
Y46527D02*
D03*
Y44558D02*
D03*
X94032D02*
D03*
Y46527D02*
D03*
Y48495D02*
D03*
Y50464D02*
D03*
Y52432D02*
D03*
Y54401D02*
D03*
Y56369D02*
D03*
Y58338D02*
D03*
Y60306D02*
D03*
Y62275D02*
D03*
Y64243D02*
D03*
Y66212D02*
D03*
Y68180D02*
D03*
Y70149D02*
D03*
Y72117D02*
D03*
Y74086D02*
D03*
D103*
X55647Y35700D02*
D03*
X57615D02*
D03*
X59583D02*
D03*
X61552D02*
D03*
X63520D02*
D03*
X65489D02*
D03*
X67457D02*
D03*
X69426D02*
D03*
X71394D02*
D03*
X73363D02*
D03*
X75331D02*
D03*
X77300D02*
D03*
X79268D02*
D03*
X81237D02*
D03*
X83205D02*
D03*
X85174D02*
D03*
Y82944D02*
D03*
X83205D02*
D03*
X81237D02*
D03*
X79268D02*
D03*
X77300D02*
D03*
X75331D02*
D03*
X73363D02*
D03*
X71394D02*
D03*
X69426D02*
D03*
X67457D02*
D03*
X65489D02*
D03*
X63520D02*
D03*
X61552D02*
D03*
X59583D02*
D03*
X57615D02*
D03*
X55647D02*
D03*
D104*
X124055Y37735D02*
D03*
Y35176D02*
D03*
Y32616D02*
D03*
Y30057D02*
D03*
X112638D02*
D03*
Y32616D02*
D03*
Y35176D02*
D03*
Y37735D02*
D03*
X124055Y51435D02*
D03*
Y48876D02*
D03*
Y46316D02*
D03*
Y43758D02*
D03*
X112638D02*
D03*
Y46316D02*
D03*
Y48876D02*
D03*
Y51435D02*
D03*
D105*
X15579Y97271D02*
D03*
Y81129D02*
D03*
X17547Y97271D02*
D03*
X19516D02*
D03*
X21484D02*
D03*
X23453D02*
D03*
X25421D02*
D03*
Y81129D02*
D03*
X23453D02*
D03*
X21484D02*
D03*
X19516D02*
D03*
X17547D02*
D03*
D106*
X28571Y92153D02*
D03*
Y88216D02*
D03*
X12429Y84279D02*
D03*
Y86247D02*
D03*
Y88216D02*
D03*
Y90184D02*
D03*
Y92153D02*
D03*
Y94121D02*
D03*
X28571D02*
D03*
Y90184D02*
D03*
Y86247D02*
D03*
Y84279D02*
D03*
D107*
X20500Y89200D02*
D03*
D108*
X163280Y81017D02*
D03*
X155800D02*
D03*
X159540D02*
D03*
Y69600D02*
D03*
X155800D02*
D03*
X163280D02*
D03*
D109*
X115082Y80800D02*
D03*
Y88240D02*
D03*
D110*
X125318D02*
D03*
Y84500D02*
D03*
Y80760D02*
D03*
D111*
X30520Y68714D02*
D03*
X21858D02*
D03*
Y62415D02*
D03*
X30520D02*
D03*
D112*
X80451Y17000D02*
D03*
X85372D02*
D03*
X114900D02*
D03*
X109979D02*
D03*
X105058D02*
D03*
X100136D02*
D03*
X95215D02*
D03*
X90294D02*
D03*
D113*
X70412Y4402D02*
D03*
X124939D02*
D03*
D114*
X133600Y115337D02*
D03*
Y111400D02*
D03*
X140300Y112137D02*
D03*
Y108200D02*
D03*
X129000Y49437D02*
D03*
Y45500D02*
D03*
X107500Y49537D02*
D03*
Y45600D02*
D03*
X69400Y89663D02*
D03*
Y93600D02*
D03*
X63488Y93723D02*
D03*
Y89786D02*
D03*
X39400Y53237D02*
D03*
Y49300D02*
D03*
X27000Y52837D02*
D03*
Y48900D02*
D03*
X129200Y35937D02*
D03*
Y32000D02*
D03*
X107400Y35837D02*
D03*
Y31900D02*
D03*
X77288Y25249D02*
D03*
Y29186D02*
D03*
X82288Y25249D02*
D03*
Y29186D02*
D03*
X87088Y25249D02*
D03*
Y29186D02*
D03*
X1100Y59637D02*
D03*
Y55700D02*
D03*
X-7000Y32137D02*
D03*
Y28200D02*
D03*
X-14800Y96737D02*
D03*
Y92800D02*
D03*
X-7000Y35863D02*
D03*
Y39800D02*
D03*
X182000Y40637D02*
D03*
Y36700D02*
D03*
X168000Y60700D02*
D03*
Y64637D02*
D03*
X163300Y60700D02*
D03*
Y64637D02*
D03*
X163800Y90000D02*
D03*
Y86063D02*
D03*
X130300Y86700D02*
D03*
Y82763D02*
D03*
D115*
X5500Y98599D02*
D03*
Y92300D02*
D03*
X163417Y21083D02*
D03*
Y27383D02*
D03*
X135100Y88900D02*
D03*
Y82601D02*
D03*
X140600Y88900D02*
D03*
Y82601D02*
D03*
D116*
X41299Y81900D02*
D03*
X35000D02*
D03*
X35701Y91300D02*
D03*
X42000D02*
D03*
X179001Y66900D02*
D03*
X185300D02*
D03*
X172501Y60600D02*
D03*
X178800D02*
D03*
X115400Y75400D02*
D03*
X121699D02*
D03*
D117*
X151800Y102200D02*
D03*
X162824D02*
D03*
D118*
X170400Y39800D02*
D03*
D119*
X33700Y111600D02*
D03*
D120*
Y119080D02*
D03*
X23857Y115340D02*
D03*
D121*
X142900Y22505D02*
D03*
Y10695D02*
D03*
D122*
X-14700Y44000D02*
D03*
Y34000D02*
D03*
Y24000D02*
D03*
X600Y43900D02*
D03*
Y33900D02*
D03*
Y23900D02*
D03*
D123*
X-11600Y6900D02*
D03*
X203000D02*
D03*
X-11600Y115200D02*
D03*
X203000D02*
D03*
D124*
X174016Y19947D02*
D03*
X155026Y10447D02*
D03*
X133900Y10847D02*
D03*
D125*
X15626Y115347D02*
D03*
X173228Y112205D02*
D03*
D126*
X82100Y94600D02*
D03*
X79300Y97500D02*
D03*
X173300Y64600D02*
D03*
X159700Y73700D02*
D03*
X156100D02*
D03*
X103100Y33400D02*
D03*
X103000Y35600D02*
D03*
X9100Y15500D02*
D03*
X35800Y11900D02*
D03*
X21800Y120800D02*
D03*
X-1200Y109900D02*
D03*
X-1000Y120700D02*
D03*
X54000Y117300D02*
D03*
X49400Y117400D02*
D03*
X58600Y117200D02*
D03*
X45900Y87000D02*
D03*
X56700Y100500D02*
D03*
X63600Y117300D02*
D03*
X59537Y91937D02*
D03*
X107200Y73200D02*
D03*
X100600Y83000D02*
D03*
Y85900D02*
D03*
Y89100D02*
D03*
X127500Y85300D02*
D03*
X129400Y90400D02*
D03*
X145800Y106000D02*
D03*
X155600Y87600D02*
D03*
X155500Y90300D02*
D03*
X153600Y46100D02*
D03*
X123600Y40500D02*
D03*
X84800Y72700D02*
D03*
X80300D02*
D03*
X75400Y72900D02*
D03*
X57600Y40600D02*
D03*
X57100Y24900D02*
D03*
X106800Y51000D02*
D03*
X114800Y92700D02*
D03*
X145300Y116400D02*
D03*
X89600Y29400D02*
D03*
X69300Y95400D02*
D03*
X49200Y80600D02*
D03*
X52500Y74100D02*
D03*
X63800Y29100D02*
D03*
X51400D02*
D03*
X116200Y32600D02*
D03*
X117300Y32800D02*
D03*
X2800Y78600D02*
D03*
X51900Y110200D02*
D03*
X23700Y103900D02*
D03*
X31986Y57214D02*
D03*
X55600Y92900D02*
D03*
X75500Y103900D02*
D03*
Y95500D02*
D03*
X179000Y63200D02*
D03*
D03*
X178200Y63700D02*
D03*
X178300Y40637D02*
D03*
X177500Y41100D02*
D03*
X105350Y107850D02*
D03*
X105800Y108300D02*
D03*
X105900Y109500D02*
D03*
X16900Y72400D02*
D03*
Y73800D02*
D03*
X26000Y13100D02*
D03*
Y12100D02*
D03*
X146100Y45300D02*
D03*
Y50500D02*
D03*
X59500Y77700D02*
D03*
X63000Y77600D02*
D03*
X198300Y68600D02*
D03*
X202700Y68500D02*
D03*
X206700Y68600D02*
D03*
X206600Y72900D02*
D03*
X202700D02*
D03*
X198400Y73000D02*
D03*
X206600Y76600D02*
D03*
X202600Y76500D02*
D03*
X198400D02*
D03*
X88200Y53900D02*
D03*
X87600Y57900D02*
D03*
X88400Y61600D02*
D03*
X99200Y57000D02*
D03*
Y60100D02*
D03*
X41000Y104500D02*
D03*
X30600Y82250D02*
D03*
X27800Y80000D02*
D03*
X108821Y97421D02*
D03*
X103400Y97400D02*
D03*
X99000Y63600D02*
D03*
X137200Y108200D02*
D03*
X133600D02*
D03*
X109979Y20979D02*
D03*
X114900Y20900D02*
D03*
X131000Y45500D02*
D03*
Y49400D02*
D03*
X10300Y97800D02*
D03*
Y81400D02*
D03*
X-6100Y52100D02*
D03*
X-3800Y55000D02*
D03*
X69000Y117200D02*
D03*
X24200Y72700D02*
D03*
X26300Y62200D02*
D03*
X18100Y53400D02*
D03*
X49900Y41000D02*
D03*
X51100Y37800D02*
D03*
X40700Y43300D02*
D03*
X4900Y60400D02*
D03*
X23700Y48900D02*
D03*
X40700Y69900D02*
D03*
X46600Y91800D02*
D03*
X36800Y100000D02*
D03*
X36400Y69600D02*
D03*
X78800Y5900D02*
D03*
X85600Y5700D02*
D03*
X93700Y5500D02*
D03*
X16200Y4300D02*
D03*
X26000Y4000D02*
D03*
X36500Y3900D02*
D03*
X81300Y110700D02*
D03*
X-16700Y76800D02*
D03*
X-16800Y66800D02*
D03*
X-17200Y104300D02*
D03*
X94700Y117000D02*
D03*
X105300Y116900D02*
D03*
X115600Y116700D02*
D03*
X154400Y120600D02*
D03*
X174500Y120500D02*
D03*
X191300Y120800D02*
D03*
X184500Y110900D02*
D03*
X184400Y115900D02*
D03*
Y120800D02*
D03*
X191500Y115900D02*
D03*
X191700Y110900D02*
D03*
X191800Y101300D02*
D03*
X198900Y92000D02*
D03*
X203800D02*
D03*
X208500D02*
D03*
X199100Y87200D02*
D03*
X203900Y87100D02*
D03*
X208600Y87000D02*
D03*
X199300Y82200D02*
D03*
X204000Y81900D02*
D03*
X208600Y82000D02*
D03*
X198600Y57800D02*
D03*
X207400Y57400D02*
D03*
X207100Y49600D02*
D03*
X202800Y53600D02*
D03*
X189300Y51200D02*
D03*
X183900D02*
D03*
X207700Y39600D02*
D03*
X186600Y22200D02*
D03*
X194800Y21900D02*
D03*
X203100Y21700D02*
D03*
X193300Y1000D02*
D03*
X181000Y14100D02*
D03*
X157400Y1300D02*
D03*
X155200Y28000D02*
D03*
X146200Y28400D02*
D03*
X153800Y39200D02*
D03*
Y33400D02*
D03*
X163600Y73700D02*
D03*
X143600Y92700D02*
D03*
X145700Y101000D02*
D03*
X137900Y92700D02*
D03*
X132100Y93000D02*
D03*
X138100Y97000D02*
D03*
X138300Y102500D02*
D03*
X142300Y97000D02*
D03*
X134000Y97100D02*
D03*
X159700Y76400D02*
D03*
X163600Y76600D02*
D03*
X125500Y69900D02*
D03*
X125400Y64600D02*
D03*
X128000Y56700D02*
D03*
X106400Y57300D02*
D03*
Y64300D02*
D03*
X123200Y53300D02*
D03*
X121400Y64400D02*
D03*
X59200Y67600D02*
D03*
Y61400D02*
D03*
X59300Y55100D02*
D03*
X59400Y48300D02*
D03*
X67300Y48000D02*
D03*
X67400Y55100D02*
D03*
X67300Y61300D02*
D03*
Y67500D02*
D03*
X75500D02*
D03*
X75400Y61500D02*
D03*
X75300Y55100D02*
D03*
X75500Y48000D02*
D03*
X67600Y41600D02*
D03*
X85000Y67900D02*
D03*
X91800Y89600D02*
D03*
X91700Y83200D02*
D03*
X92300Y102000D02*
D03*
X58200Y3900D02*
D03*
X58100Y11700D02*
D03*
X64800Y17600D02*
D03*
X70100Y23000D02*
D03*
X-1200Y900D02*
D03*
X-1300Y8200D02*
D03*
X-6900Y21000D02*
D03*
Y16200D02*
D03*
X600Y97900D02*
D03*
X141900Y62200D02*
D03*
X131300Y64200D02*
D03*
X131400Y69900D02*
D03*
X198900Y49600D02*
D03*
D127*
X99900Y50800D02*
D03*
D128*
X99400Y12200D02*
D03*
X102600D02*
D03*
X105600Y12300D02*
D03*
X99500Y9500D02*
D03*
X102700D02*
D03*
X105700D02*
D03*
X102900Y6600D02*
D03*
X105800D02*
D03*
X99600D02*
D03*
D129*
X130300Y78200D02*
D03*
M02*
