M48
;Layer_Color=9474304
;FILE_FORMAT=2:5
INCH,TZ
;TYPE=PLATED
T1F00S00C0.01181
T2F00S00C0.01575
T3F00S00C0.03543
T4F00S00C0.09843
%
T01
X-16800Y66800
X-16700Y76800
X2800Y78600
X16900Y73800
Y72400
X24200Y72700
X26300Y62200
X31986Y57214
X23700Y48900
X18100Y53400
X4900Y60400
X-3800Y55000
X-6100Y52100
X-6900Y21000
Y16200
X-1300Y8200
X-1200Y900
X16200Y4300
X26000Y4000
Y12100
Y13100
X35800Y11900
X36500Y3900
X58200
X58100Y11700
X64800Y17600
X70100Y23000
X63800Y29100
X57100Y24900
X51400Y29100
X51100Y37800
X49900Y41000
X57600Y40600
X59400Y48300
X59300Y55100
X59200Y61400
Y67600
X67300Y67500
Y61300
X67400Y55100
X67300Y48000
X67600Y41600
X75500Y48000
X75300Y55100
X75400Y61500
X75500Y67500
X75400Y72900
X80300Y72700
X84800
X85000Y67900
X88400Y61600
X87600Y57900
X88200Y53900
X99200Y57000
Y60100
X99000Y63600
X106400Y64300
Y57300
X106800Y51000
X99900Y50800
X103000Y35600
X103100Y33400
X116200Y32600
X117300Y32800
X123600Y40500
X131000Y45500
Y49400
X128000Y56700
X123200Y53300
X121400Y64400
X125400Y64600
X125500Y69900
X131400
X131300Y64200
X141900Y62200
X130300Y78200
X107200Y73200
X63000Y77600
X59500Y77700
X52500Y74100
X40700Y69900
X36400Y69600
X40700Y43300
X9100Y15500
X78800Y5900
X85600Y5700
X93700Y5500
X89600Y29400
X109979Y20979
X114900Y20900
X146200Y28400
X155200Y28000
X153800Y33400
Y39200
X153600Y46100
X146100Y45300
Y50500
X156100Y73700
X159700
Y76400
X163600Y76600
Y73700
X173300Y64600
X178200Y63700
X179000Y63200
X183900Y51200
X189300
X198900Y49600
X202800Y53600
X207100Y49600
X207400Y57400
X198600Y57800
X198300Y68600
X202700Y68500
X206700Y68600
X206600Y72900
Y76600
X202600Y76500
X202700Y72900
X198400Y73000
Y76500
X207700Y39600
X203100Y21700
X194800Y21900
X186600Y22200
X181000Y14100
X193300Y1000
X157400Y1300
X177500Y41100
X178300Y40637
X199300Y82200
X204000Y81900
X208600Y82000
Y87000
X203900Y87100
X199100Y87200
X198900Y92000
X203800
X208500
X191800Y101300
X191700Y110900
X191500Y115900
X191300Y120800
X184400
Y115900
X184500Y110900
X174500Y120500
X154400Y120600
X145300Y116400
X145800Y106000
X145700Y101000
X155500Y90300
X155600Y87600
X143600Y92700
X142300Y97000
X138100
X134000Y97100
X132100Y93000
X129400Y90400
X127500Y85300
X137900Y92700
X138300Y102500
X137200Y108200
X133600
X115600Y116700
X105300Y116900
X105900Y109500
X105800Y108300
X105350Y107850
X103400Y97400
X108821Y97421
X114800Y92700
X100600Y89100
Y85900
Y83000
X91700Y83200
X91800Y89600
X92300Y102000
X94700Y117000
X81300Y110700
X75500Y103900
Y95500
X79300Y97500
X82100Y94600
X69300Y95400
X59537Y91937
X55600Y92900
X56700Y100500
X51900Y110200
X54000Y117300
X49400Y117400
X58600Y117200
X63600Y117300
X69000Y117200
X41000Y104500
X36800Y100000
X23700Y103900
X21800Y120800
X-1000Y120700
X-1200Y109900
X600Y97900
X10300Y97800
Y81400
X27800Y80000
X30600Y82250
X45900Y87000
X46600Y91800
X49200Y80600
X-17200Y104300
T02
X99600Y6600
X99500Y9500
X99400Y12200
X102600
X102700Y9500
X105700
X105600Y12300
X105800Y6600
X102900
T03
X-14700Y24000
Y34000
Y44000
X600Y43900
Y33900
Y23900
X133900Y20690
Y10847
X155026Y10447
Y20447
X174016Y19947
Y29947
X173228Y112205
X163228
X153228
X15626Y115347
X5626
T04
X-11600Y6900
X203000
Y115200
X-11600
M30
