%FSLAX25Y25*%
%MOIN*%
G70*
G01*
G75*
G04 Layer_Physical_Order=1*
G04 Layer_Color=255*
%ADD10C,0.02000*%
%ADD11C,0.01500*%
%ADD12C,0.00600*%
%ADD13C,0.01000*%
%ADD14C,0.03000*%
%ADD15C,0.00800*%
%ADD16C,0.02500*%
%ADD17R,0.02362X0.02756*%
%ADD18O,0.05906X0.01575*%
%ADD19R,0.06299X0.10630*%
%ADD20R,0.05512X0.08661*%
%ADD21R,0.05512X0.03543*%
%ADD22R,0.04331X0.05118*%
%ADD23C,0.05906*%
%ADD24R,0.03937X0.12205*%
%ADD25R,0.03937X0.03937*%
%ADD26R,0.05118X0.03150*%
%ADD27R,0.11024X0.08268*%
%ADD28R,0.03543X0.03740*%
%ADD29R,0.03543X0.03740*%
%ADD30O,0.05906X0.00984*%
%ADD31O,0.00984X0.05906*%
%ADD32R,0.03937X0.01378*%
%ADD33O,0.00984X0.02756*%
%ADD34O,0.02756X0.00984*%
%ADD35R,0.10236X0.10630*%
%ADD36R,0.02362X0.03150*%
%ADD37R,0.03150X0.03150*%
%ADD38R,0.03150X0.02362*%
%ADD39R,0.04331X0.03937*%
%ADD40R,0.03150X0.05118*%
%ADD41R,0.08268X0.11024*%
%ADD42R,0.02756X0.02362*%
%ADD43R,0.03500X0.02800*%
%ADD44R,0.02800X0.03500*%
%ADD45R,0.05512X0.06693*%
%ADD46C,0.04724*%
%ADD47R,0.03740X0.03543*%
%ADD48R,0.03740X0.03543*%
%ADD49R,0.07087X0.06299*%
%ADD50R,0.17500X0.26100*%
%ADD51R,0.08900X0.23700*%
%ADD52R,0.37800X0.08900*%
%ADD53R,0.18600X0.12500*%
%ADD54R,0.05300X0.15000*%
%ADD55R,0.08700X0.14600*%
%ADD56R,0.18300X0.06800*%
%ADD57R,0.03100X0.10500*%
%ADD58R,0.27600X0.08000*%
%ADD59R,0.20600X0.13700*%
%ADD60R,0.06700X0.23500*%
%ADD61R,0.10900X0.06800*%
%ADD62R,0.07900X0.07000*%
%ADD63R,0.14900X0.03900*%
%ADD64R,0.05900X0.18900*%
%ADD65R,0.06800X0.03800*%
%ADD66R,0.08500X0.03500*%
%ADD67C,0.07087*%
%ADD68C,0.15748*%
%ADD69R,0.05906X0.05906*%
%ADD70R,0.05906X0.05906*%
%ADD71C,0.01969*%
%ADD72C,0.01575*%
%ADD73C,0.02559*%
%ADD74C,0.02362*%
G36*
X166884Y79000D02*
Y71000D01*
X166733Y70816D01*
X165261D01*
Y71975D01*
X161299D01*
Y70627D01*
X161223Y70577D01*
X161046Y70312D01*
X160984Y70000D01*
Y64478D01*
X160581D01*
Y64478D01*
X159188D01*
X157380Y66286D01*
Y67225D01*
X157781D01*
Y71975D01*
X154016D01*
Y76684D01*
X157400D01*
X157712Y76746D01*
X157977Y76923D01*
X158154Y77188D01*
X158216Y77500D01*
Y78584D01*
X161100D01*
X161392Y78642D01*
X165261D01*
Y83392D01*
X164861D01*
Y84082D01*
X165978D01*
Y87784D01*
X166884D01*
Y79000D01*
D02*
G37*
G36*
X189184Y68757D02*
X189075Y68735D01*
X187500D01*
Y69450D01*
X183100D01*
Y64350D01*
X187500D01*
Y65065D01*
X188995D01*
Y65055D01*
X189065Y65064D01*
X189441Y64735D01*
Y63883D01*
X189028Y63801D01*
X188979Y63807D01*
Y63796D01*
X186872D01*
X186404Y63703D01*
X186007Y63438D01*
X181462Y58892D01*
X181000Y59084D01*
Y63150D01*
X180860D01*
X180819Y63200D01*
X180681Y63896D01*
X180635Y63964D01*
Y64350D01*
X181201D01*
Y69450D01*
X176801D01*
Y64840D01*
X176516Y64413D01*
X176376Y63711D01*
X176378Y63700D01*
X176376Y63689D01*
X176516Y62986D01*
X176600Y62860D01*
Y58050D01*
X179966D01*
X180158Y57588D01*
X179793Y57223D01*
X163072D01*
X162881Y57686D01*
X163914Y58719D01*
X165478D01*
Y58719D01*
X165478D01*
X165478Y58719D01*
X165822D01*
Y58719D01*
X170178D01*
D01*
X170178D01*
X170301Y58596D01*
Y58050D01*
X174701D01*
Y63150D01*
X170516D01*
Y70000D01*
X170667Y70184D01*
X189184D01*
Y68757D01*
D02*
G37*
G36*
X94102Y91602D02*
X94698Y91204D01*
X94814Y91181D01*
X95400Y91065D01*
X95638D01*
Y82482D01*
X95477Y81676D01*
X95345Y81478D01*
X94382D01*
Y79245D01*
X94374Y79242D01*
X94374Y79242D01*
X94335Y79146D01*
X93949Y78760D01*
X93924Y78741D01*
X93927Y78738D01*
X93927Y78738D01*
X93549Y78360D01*
X93261Y77930D01*
X93160Y77423D01*
Y75403D01*
X91572D01*
X91067Y75303D01*
X90640Y75017D01*
X90355Y74590D01*
X90254Y74086D01*
X90355Y73582D01*
X90640Y73154D01*
Y73049D01*
X90355Y72621D01*
X90254Y72117D01*
X90346Y71657D01*
X90029Y71270D01*
X89316D01*
X88722Y71865D01*
Y96330D01*
X89183Y96521D01*
X94102Y91602D01*
D02*
G37*
G36*
X108165Y71935D02*
X107481D01*
Y72278D01*
X103544D01*
Y72322D01*
X103544D01*
Y76678D01*
X99582D01*
Y74411D01*
X99560Y74303D01*
X99560D01*
X99568Y74291D01*
X99427Y73950D01*
X99405Y73928D01*
D01*
X99405Y73928D01*
X98986Y73509D01*
X98922Y73460D01*
Y73460D01*
Y73445D01*
X98716Y73239D01*
X98036D01*
X97719Y73625D01*
X97810Y74086D01*
X97710Y74590D01*
X97425Y75017D01*
X96997Y75303D01*
X96493Y75403D01*
X95811D01*
Y76859D01*
X96063Y77027D01*
X96363Y77087D01*
Y77097D01*
X96491Y77122D01*
X98344D01*
Y81478D01*
X98289D01*
Y82456D01*
X98306Y82590D01*
X98289D01*
Y90965D01*
X108165D01*
Y71935D01*
D02*
G37*
G36*
X28619Y71622D02*
D01*
Y71622D01*
X28479Y71483D01*
X27554D01*
Y66622D01*
X24943D01*
X24943Y66622D01*
X24824Y66720D01*
Y71483D01*
X19779D01*
X19462Y71869D01*
X19635Y72738D01*
X19594Y72944D01*
X19728Y73618D01*
X19549Y74516D01*
X19785Y74956D01*
X28619D01*
Y71622D01*
D02*
G37*
G36*
X101653Y36882D02*
X101653Y36882D01*
X101653Y36882D01*
D01*
X101653Y36882D01*
X101653Y36882D01*
X102082Y36797D01*
X105947D01*
X106183Y36356D01*
X106175Y36344D01*
X106075Y35837D01*
X106175Y35330D01*
X106463Y34900D01*
X107019Y34343D01*
X106828Y33881D01*
X105222D01*
Y30940D01*
X101865D01*
X100822Y31984D01*
Y36814D01*
X101289Y37125D01*
X101653Y36882D01*
D02*
G37*
G36*
X47882Y24578D02*
X47882D01*
Y20222D01*
X52640D01*
X52669Y20076D01*
X52678D01*
Y19065D01*
X49535Y15922D01*
X44300D01*
X44300Y15922D01*
X43871Y15836D01*
X43507Y15593D01*
X43507Y15593D01*
X38135Y10222D01*
X28041D01*
X27806Y10662D01*
X28167Y11203D01*
X28345Y12100D01*
Y13100D01*
X28345Y13100D01*
X28345Y13100D01*
Y13100D01*
Y13441D01*
X28375Y13441D01*
D01*
D01*
X28547D01*
Y13441D01*
X33296D01*
Y19879D01*
X39900D01*
X39900Y19878D01*
X40329Y19964D01*
X40693Y20207D01*
X44853Y24367D01*
D01*
X44853Y24367D01*
X44853Y24367D01*
D01*
Y24367D01*
X45333Y24688D01*
X45900Y24801D01*
X46008Y24822D01*
X47882D01*
Y24578D01*
D02*
G37*
G36*
X107378Y64735D02*
Y53018D01*
X107378Y53018D01*
X107464Y52589D01*
X107707Y52225D01*
X108145Y51787D01*
X108000Y51309D01*
X107671Y51243D01*
X107241Y50956D01*
X107130Y50789D01*
X106993Y50762D01*
X106563Y50474D01*
X106275Y50044D01*
X106175Y49537D01*
X106275Y49030D01*
X106563Y48600D01*
X107120Y48043D01*
X106928Y47581D01*
X105522D01*
Y64500D01*
X105522Y64500D01*
X105436Y64929D01*
X105193Y65293D01*
X105193Y65293D01*
X104658Y65828D01*
X104849Y66290D01*
X105824D01*
X107378Y64735D01*
D02*
G37*
G36*
X38719Y71222D02*
X38907D01*
X39143Y70781D01*
X39019Y70596D01*
X38881Y69900D01*
X39019Y69204D01*
X39414Y68614D01*
X40004Y68219D01*
X40700Y68081D01*
X41396Y68219D01*
X41986Y68614D01*
X42381Y69204D01*
X42519Y69900D01*
X42381Y70596D01*
X42065Y71069D01*
X42065Y71069D01*
X42065D01*
Y71222D01*
X42681D01*
Y71394D01*
X43160Y71540D01*
X43396Y71186D01*
Y71080D01*
X43110Y70653D01*
X43010Y70149D01*
X43110Y69645D01*
X43396Y69217D01*
Y69112D01*
X43110Y68684D01*
X43010Y68180D01*
X43102Y67720D01*
X42785Y67333D01*
X36153D01*
X33979Y69507D01*
X33615Y69750D01*
X33485Y69776D01*
Y71483D01*
X32581D01*
Y71622D01*
X32581D01*
Y74956D01*
X38719D01*
Y71222D01*
D02*
G37*
G36*
X144928Y64736D02*
Y64478D01*
X144782D01*
Y60122D01*
D01*
Y60122D01*
X144695Y60035D01*
X140360D01*
X137835Y62560D01*
Y64384D01*
X143700D01*
X144012Y64446D01*
X144277Y64623D01*
X144449Y64881D01*
X144928Y64736D01*
D02*
G37*
G36*
X-18847Y110358D02*
X-17763Y109037D01*
X-16442Y107953D01*
X-14935Y107148D01*
X-13300Y106651D01*
X-11600Y106484D01*
X-11453Y106499D01*
X-11240Y106046D01*
X-12993Y104293D01*
X-13236Y103929D01*
X-13322Y103500D01*
X-13321Y103500D01*
Y99802D01*
X-13753Y99370D01*
X-13760Y99378D01*
X-13809Y99314D01*
X-14228Y98895D01*
X-14228Y98895D01*
Y98895D01*
Y98895D01*
X-14603Y98740D01*
Y98740D01*
X-14712Y98718D01*
X-16978D01*
Y94756D01*
Y90819D01*
X-12622D01*
D01*
X-12622D01*
X-12372Y90569D01*
Y90130D01*
X-7228D01*
Y95470D01*
X-12372D01*
D01*
X-12372D01*
X-12622Y95720D01*
Y96629D01*
X-12600Y96737D01*
X-12488Y97304D01*
X-12167Y97784D01*
X-12167Y97784D01*
X-12167Y97784D01*
X-12167Y97784D01*
D01*
X-12167D01*
X-12167Y97784D01*
D01*
X-11407Y98544D01*
X-11407Y98544D01*
X-11164Y98908D01*
X-11078Y99337D01*
X-11078Y99337D01*
Y103035D01*
X-9535Y104578D01*
X-8631D01*
Y99972D01*
X-3488D01*
Y100807D01*
X7503D01*
Y100806D01*
X7516Y100807D01*
X9436D01*
Y100541D01*
X15367D01*
Y107259D01*
D01*
Y107259D01*
X15386Y107278D01*
X16435D01*
Y107259D01*
X16435D01*
Y100541D01*
X22365D01*
Y101348D01*
D01*
X22740Y101651D01*
X22740D01*
D01*
X23007Y101633D01*
D01*
X23317Y101395D01*
X23320Y101398D01*
X23519Y101265D01*
Y99922D01*
X23519Y99922D01*
X23519D01*
X23453Y99474D01*
X22949Y99374D01*
X22521Y99088D01*
X22416D01*
X21988Y99374D01*
X21484Y99474D01*
X20980Y99374D01*
X20553Y99088D01*
X20447D01*
X20020Y99374D01*
X19516Y99474D01*
X19012Y99374D01*
X18584Y99088D01*
X18479D01*
X18051Y99374D01*
X17547Y99474D01*
X17043Y99374D01*
X16616Y99088D01*
X16330Y98661D01*
X16230Y98157D01*
Y96385D01*
X16330Y95881D01*
X16414Y95756D01*
X16178Y95315D01*
X14582D01*
Y95315D01*
X13854Y95315D01*
X13819Y95338D01*
X13315Y95439D01*
X11543D01*
X11039Y95338D01*
X10612Y95053D01*
X10326Y94625D01*
X10226Y94121D01*
X10277Y93865D01*
X9960Y93478D01*
X8371D01*
X8050Y93542D01*
Y94500D01*
X2950D01*
Y90322D01*
X-900D01*
X-900Y90322D01*
X-1329Y90236D01*
X-1693Y89993D01*
X-1693Y89993D01*
X-2993Y88693D01*
X-3236Y88329D01*
X-3322Y87900D01*
X-3322Y87900D01*
Y78700D01*
X-3322Y78700D01*
X-3236Y78271D01*
X-2993Y77907D01*
X-1383Y76297D01*
X-1575Y75835D01*
X-5384D01*
Y71268D01*
X-5384Y71268D01*
X-5384D01*
X-5384Y71086D01*
Y70914D01*
D01*
D01*
D01*
X-5384D01*
D01*
Y66165D01*
X1334D01*
X1334Y66164D01*
Y66165D01*
X1366Y66178D01*
X3099Y64445D01*
X3497Y64179D01*
X3695Y64047D01*
X4397Y63907D01*
X8468D01*
Y63072D01*
X13612D01*
Y68413D01*
X8468D01*
Y67578D01*
X5157D01*
X4156Y68579D01*
X4347Y69041D01*
X9967D01*
Y74956D01*
X11035D01*
Y69041D01*
X16965D01*
Y70312D01*
X17290Y70393D01*
X17290Y70393D01*
Y70393D01*
X18187Y70571D01*
X18452Y70748D01*
X18893Y70513D01*
Y65946D01*
X22989D01*
X23045Y65761D01*
X22788Y65332D01*
X22073Y65190D01*
X22055Y65205D01*
Y65205D01*
X21947Y65183D01*
X18893D01*
Y59646D01*
X19877D01*
Y55438D01*
X23839D01*
Y59646D01*
X24824D01*
Y62348D01*
X24845Y62454D01*
X24843Y62465D01*
X24855Y62480D01*
X24855D01*
X24846Y62552D01*
X24950Y63340D01*
X25254Y64074D01*
X25487Y64378D01*
X27554D01*
Y59646D01*
X33485D01*
Y63976D01*
X33947Y64167D01*
X34664Y63450D01*
X34664Y63450D01*
X35028Y63207D01*
X35457Y63122D01*
X37507D01*
Y59464D01*
X33570D01*
Y58611D01*
X33126D01*
X33075Y58632D01*
X32682Y58895D01*
X31986Y59033D01*
X31290Y58895D01*
X30699Y58501D01*
X30305Y57910D01*
X30167Y57214D01*
X30305Y56518D01*
X30699Y55928D01*
X31290Y55533D01*
X31986Y55395D01*
X32682Y55533D01*
X33129Y55832D01*
X33219Y55784D01*
Y55278D01*
X33219D01*
Y51078D01*
X29282D01*
Y50881D01*
X29178D01*
Y50881D01*
X24822D01*
Y50808D01*
X24396Y50581D01*
X23700Y50719D01*
X23004Y50581D01*
X22414Y50186D01*
X22019Y49596D01*
X21881Y48900D01*
X22019Y48204D01*
X22414Y47614D01*
X23004Y47219D01*
X23700Y47081D01*
X24396Y47219D01*
X24822Y46992D01*
Y46919D01*
X29178D01*
D01*
X29178D01*
X29282Y46815D01*
Y46722D01*
X37181D01*
Y47319D01*
X37222D01*
Y47319D01*
X41578D01*
Y48335D01*
X42037Y48687D01*
X42649Y48941D01*
X43036Y48624D01*
X43010Y48495D01*
X43110Y47991D01*
X43231Y47810D01*
X43134Y47320D01*
X43134Y47320D01*
X43134D01*
X43134Y47320D01*
X42622Y46808D01*
X42502Y46728D01*
X42522Y46708D01*
X42522Y46708D01*
X41075Y45261D01*
X41075Y45261D01*
X41074Y45263D01*
X41063Y45249D01*
X41053Y45239D01*
X40743Y45111D01*
X40700Y45119D01*
X40004Y44981D01*
X39414Y44586D01*
X39019Y43996D01*
X38881Y43300D01*
X39019Y42604D01*
X39414Y42014D01*
X40004Y41619D01*
X40700Y41481D01*
X41396Y41619D01*
X41986Y42014D01*
X42381Y42604D01*
X42519Y43300D01*
X42511Y43343D01*
X42639Y43653D01*
X42649Y43663D01*
X42663Y43674D01*
X42661Y43675D01*
X42661Y43675D01*
X42804Y43817D01*
X43301Y43769D01*
X43396Y43627D01*
X43823Y43341D01*
X44328Y43241D01*
X45667D01*
Y31422D01*
X45535Y30422D01*
X45131Y29446D01*
X44925Y29178D01*
X43919D01*
Y26912D01*
X43897Y26803D01*
X43897D01*
X43905Y26791D01*
X43764Y26450D01*
X43742Y26428D01*
D01*
X43742Y26428D01*
X43323Y26009D01*
X43259Y25960D01*
Y25960D01*
Y25945D01*
X39435Y22121D01*
X32000D01*
X32000Y22122D01*
X31571Y22036D01*
X31207Y21793D01*
X31207Y21793D01*
X30128Y20714D01*
X29885Y20350D01*
X29847Y20159D01*
X28547D01*
D01*
D01*
X28547Y20159D01*
X28375D01*
Y20159D01*
X23625D01*
D01*
D01*
X23625Y20159D01*
X23453D01*
Y20159D01*
X18704D01*
Y13441D01*
X19827D01*
X19952Y12810D01*
X19943Y12738D01*
X19957D01*
Y10121D01*
X19957Y10121D01*
X20043Y9692D01*
X20286Y9328D01*
X21307Y8307D01*
X21671Y8064D01*
X22100Y7978D01*
X22100Y7978D01*
X38600D01*
X38600Y7978D01*
X39029Y8064D01*
X39393Y8307D01*
X44765Y13679D01*
X50000D01*
X50000Y13678D01*
X50429Y13764D01*
X50793Y14007D01*
X54593Y17807D01*
X54593Y17807D01*
X54836Y18171D01*
X54836Y18171D01*
X54836Y18171D01*
X54922Y18600D01*
X54922Y18600D01*
Y20076D01*
X54931D01*
X54960Y20222D01*
X55781D01*
Y24578D01*
X54960D01*
X54931Y24724D01*
X54922D01*
Y29835D01*
X56440Y31353D01*
X56440Y31353D01*
X56683Y31717D01*
X56768Y32146D01*
X56768Y32147D01*
Y32592D01*
X56864Y32735D01*
X56964Y33239D01*
Y38161D01*
X56864Y38665D01*
X56578Y39092D01*
X56151Y39378D01*
X55647Y39478D01*
X55142Y39378D01*
X54715Y39092D01*
X54429Y38665D01*
X54329Y38161D01*
Y33239D01*
X54429Y32735D01*
X54517Y32603D01*
X53007Y31093D01*
X52764Y30729D01*
D01*
Y30729D01*
X52764D01*
D01*
Y30729D01*
X52394Y30582D01*
X52096Y30781D01*
X51400Y30919D01*
X50704Y30781D01*
X50114Y30386D01*
X49719Y29796D01*
X49608Y29239D01*
X49608Y29239D01*
X49608Y29239D01*
X49548Y29178D01*
X47910D01*
Y29868D01*
X47930Y30020D01*
X47910D01*
Y31380D01*
X47918Y31468D01*
X47910D01*
Y39906D01*
X48388Y40051D01*
X48614Y39714D01*
X49204Y39319D01*
X49438Y39273D01*
X49629Y38811D01*
X49419Y38496D01*
X49281Y37800D01*
X49419Y37104D01*
X49814Y36514D01*
X50404Y36119D01*
X51100Y35981D01*
X51796Y36119D01*
X52386Y36514D01*
X52781Y37104D01*
X52919Y37800D01*
X52911Y37843D01*
X53039Y38153D01*
X53049Y38163D01*
X53063Y38173D01*
X53061Y38175D01*
X53061Y38175D01*
X54493Y39607D01*
X54493Y39607D01*
X54736Y39971D01*
X54822Y40400D01*
X54822Y40400D01*
Y69035D01*
X56665Y70878D01*
X67360D01*
X67360Y70878D01*
X67789Y70964D01*
X68153Y71207D01*
X73425Y76478D01*
X81600D01*
X81600Y76478D01*
X82029Y76564D01*
X82393Y76807D01*
X84093Y78507D01*
X84093Y78507D01*
X84336Y78871D01*
X84356Y78968D01*
X84771Y79246D01*
X85174Y79166D01*
X85678Y79266D01*
X86037Y79506D01*
X86478Y79271D01*
Y71400D01*
X86478Y71400D01*
X86564Y70971D01*
X86807Y70607D01*
X88058Y69356D01*
X88058Y69356D01*
X88422Y69113D01*
X88422Y69113D01*
X88422Y69113D01*
D01*
X88422Y69113D01*
X88422Y69113D01*
X88851Y69027D01*
X88851Y69027D01*
X90029D01*
X90346Y68641D01*
X90254Y68180D01*
X90355Y67676D01*
X90640Y67249D01*
Y67143D01*
X90355Y66716D01*
X90254Y66212D01*
X90355Y65708D01*
X90640Y65280D01*
Y65175D01*
X90355Y64747D01*
X90254Y64243D01*
X90355Y63739D01*
X90640Y63312D01*
Y63206D01*
X90355Y62779D01*
X90345Y62732D01*
X89855Y62634D01*
X89686Y62886D01*
X89096Y63281D01*
X88400Y63419D01*
X87704Y63281D01*
X87114Y62886D01*
X86719Y62296D01*
X86581Y61600D01*
X86719Y60904D01*
X87114Y60314D01*
X87367Y60144D01*
X87270Y59654D01*
X86904Y59581D01*
X86314Y59186D01*
X85919Y58596D01*
X85781Y57900D01*
X85919Y57204D01*
X86314Y56614D01*
X86904Y56219D01*
X87552Y56090D01*
Y55590D01*
X87504Y55581D01*
X86914Y55186D01*
X86519Y54596D01*
X86381Y53900D01*
X86519Y53204D01*
X86914Y52614D01*
X87504Y52219D01*
X88200Y52081D01*
X88896Y52219D01*
X89486Y52614D01*
X89881Y53204D01*
X89968Y53643D01*
X90254Y53700D01*
X90415Y53568D01*
X90596Y53297D01*
X90355Y52936D01*
X90254Y52432D01*
X90355Y51928D01*
X90640Y51501D01*
Y51395D01*
X90355Y50968D01*
X90254Y50464D01*
X90355Y49960D01*
X90640Y49532D01*
Y49427D01*
X90355Y48999D01*
X90254Y48495D01*
X90355Y47991D01*
X90640Y47564D01*
Y47458D01*
X90355Y47031D01*
X90254Y46527D01*
X90355Y46023D01*
X90640Y45595D01*
Y45490D01*
X90355Y45062D01*
X90254Y44558D01*
X90355Y44054D01*
X90640Y43627D01*
X91067Y43341D01*
X91572Y43241D01*
X96493D01*
X96997Y43341D01*
X97140Y43437D01*
X98177D01*
X98578Y43035D01*
Y31519D01*
X98578Y31519D01*
X98664Y31090D01*
X98907Y30726D01*
X100607Y29026D01*
X100607Y29026D01*
X100646Y29000D01*
X100500Y28522D01*
X99065D01*
X97922Y29665D01*
Y39300D01*
X97922Y39300D01*
X97836Y39729D01*
X97593Y40093D01*
X97593Y40093D01*
X95993Y41693D01*
X95629Y41936D01*
X95200Y42022D01*
X95200Y42022D01*
X74300D01*
X74300Y42022D01*
X73871Y41936D01*
X73507Y41693D01*
X73507Y41693D01*
X72570Y40756D01*
X72327Y40392D01*
X72241Y39963D01*
X72241Y39963D01*
Y39704D01*
X71855Y39386D01*
X71394Y39478D01*
X70890Y39378D01*
X70463Y39092D01*
X70358D01*
X69930Y39378D01*
X69426Y39478D01*
X68922Y39378D01*
X68494Y39092D01*
X68389D01*
X67962Y39378D01*
X67457Y39478D01*
X66953Y39378D01*
X66526Y39092D01*
X66421D01*
X65993Y39378D01*
X65489Y39478D01*
X64985Y39378D01*
X64557Y39092D01*
X64452D01*
X64025Y39378D01*
X63520Y39478D01*
X63016Y39378D01*
X62589Y39092D01*
X62484D01*
X62056Y39378D01*
X61552Y39478D01*
X61048Y39378D01*
X60620Y39092D01*
X60515D01*
X60088Y39378D01*
X59583Y39478D01*
X59079Y39378D01*
X58652Y39092D01*
X58366Y38665D01*
X58266Y38161D01*
Y35740D01*
X58258Y35700D01*
Y31517D01*
X58359Y31009D01*
X58646Y30579D01*
X58646Y30579D01*
X58646Y30579D01*
X58707Y30518D01*
Y26208D01*
X62669D01*
Y26769D01*
X63104Y27419D01*
X63800Y27281D01*
X64496Y27419D01*
X65086Y27814D01*
X65481Y28404D01*
X65619Y29100D01*
X65481Y29796D01*
X65086Y30386D01*
X64496Y30781D01*
X63800Y30919D01*
X63104Y30781D01*
X62730Y30531D01*
X62669Y30564D01*
Y30564D01*
X62669Y30564D01*
X61984D01*
X61913Y30919D01*
X61625Y31349D01*
X61469Y31505D01*
X61552Y31922D01*
X62056Y32022D01*
X62484Y32308D01*
X62589D01*
X63016Y32022D01*
X63520Y31922D01*
X64025Y32022D01*
X64452Y32308D01*
X64557D01*
X64985Y32022D01*
X65489Y31922D01*
X65993Y32022D01*
X66421Y32308D01*
X66526D01*
X66953Y32022D01*
X67457Y31922D01*
X67962Y32022D01*
X68389Y32308D01*
X68494D01*
X68922Y32022D01*
X69426Y31922D01*
X69930Y32022D01*
X70358Y32308D01*
X70463D01*
X70890Y32022D01*
X71394Y31922D01*
X71899Y32022D01*
X72326Y32308D01*
X72431D01*
X72859Y32022D01*
X73363Y31922D01*
X73867Y32022D01*
X74295Y32308D01*
X74400D01*
X74827Y32022D01*
X75331Y31922D01*
X75792Y32013D01*
X76178Y31696D01*
Y31341D01*
X76170D01*
X76135Y31167D01*
X75110D01*
Y27205D01*
X79466D01*
Y31167D01*
X78455D01*
X78428Y31341D01*
X78428D01*
Y31341D01*
X78422Y31341D01*
Y31696D01*
X78808Y32013D01*
X79268Y31922D01*
X79773Y32022D01*
X80200Y32308D01*
X80305D01*
X80733Y32022D01*
X80817Y32005D01*
X81016Y31873D01*
X81130Y31702D01*
X80939Y31240D01*
X80572Y31167D01*
X80110D01*
Y27205D01*
X84466D01*
Y27205D01*
X84466D01*
X84466Y27205D01*
X84910D01*
Y27205D01*
X89266D01*
Y27307D01*
X89600Y27581D01*
X90296Y27719D01*
X90886Y28114D01*
X91281Y28704D01*
X91419Y29400D01*
X91281Y30096D01*
X90886Y30686D01*
X90296Y31081D01*
X89600Y31219D01*
X89280Y31155D01*
X89266Y31167D01*
Y31167D01*
X87033D01*
X87030Y31174D01*
X87030Y31174D01*
X86935Y31214D01*
X86548Y31600D01*
X86530Y31625D01*
X86527Y31622D01*
X86527Y31622D01*
X86500Y31649D01*
Y35700D01*
X86491Y35740D01*
Y38161D01*
X86391Y38665D01*
X86106Y39092D01*
X85678Y39378D01*
X85174Y39478D01*
Y39586D01*
X94735Y39778D01*
X95678Y38835D01*
Y29200D01*
X95678Y29200D01*
X95764Y28771D01*
X96007Y28407D01*
X97807Y26607D01*
X97807Y26607D01*
X98171Y26364D01*
X98171Y26364D01*
X98171Y26364D01*
D01*
X98171Y26364D01*
X98171Y26364D01*
X98600Y26278D01*
X129600D01*
X129600Y26278D01*
X130029Y26364D01*
X130393Y26607D01*
X137555Y33769D01*
X137798Y33607D01*
X138417Y33484D01*
X142748D01*
X143367Y33607D01*
X143893Y33958D01*
X144243Y34483D01*
X144367Y35102D01*
X144243Y35722D01*
X143893Y36247D01*
Y36517D01*
X144243Y37042D01*
X144367Y37661D01*
X144243Y38281D01*
X143893Y38806D01*
Y39076D01*
X144243Y39601D01*
X144367Y40220D01*
X144243Y40840D01*
X143893Y41365D01*
Y41635D01*
X144243Y42160D01*
X144367Y42779D01*
X144243Y43399D01*
X143893Y43924D01*
X143911Y44174D01*
D01*
X143911Y44174D01*
X144018Y44153D01*
Y44176D01*
X144448D01*
Y44176D01*
X144465Y44178D01*
X144479D01*
X144789Y44050D01*
X144814Y44014D01*
X145404Y43619D01*
X146100Y43481D01*
X146796Y43619D01*
X147386Y44014D01*
X147781Y44604D01*
X147919Y45300D01*
X147781Y45996D01*
X147386Y46586D01*
X146796Y46981D01*
X146100Y47119D01*
X145404Y46981D01*
X144814Y46586D01*
X144789Y46550D01*
X144479Y46422D01*
X144465D01*
X144448Y46424D01*
Y46424D01*
X144203D01*
X143967Y46865D01*
X144243Y47278D01*
X144367Y47898D01*
X144243Y48517D01*
X143893Y49042D01*
Y49304D01*
X143896Y49309D01*
X144029Y49364D01*
X144029Y49364D01*
X144029Y49364D01*
X144029Y49364D01*
Y49376D01*
X144448D01*
Y49376D01*
X144465Y49378D01*
X144479D01*
X144789Y49250D01*
X144814Y49214D01*
X145404Y48819D01*
X146100Y48681D01*
X146796Y48819D01*
X147386Y49214D01*
X147781Y49804D01*
X147919Y50500D01*
X147781Y51196D01*
X147386Y51786D01*
X146796Y52181D01*
X146100Y52319D01*
X145404Y52181D01*
X144814Y51786D01*
X144789Y51750D01*
X144479Y51622D01*
X144465D01*
X144448Y51624D01*
Y51624D01*
X144053D01*
X144029Y51648D01*
Y51648D01*
X143908Y51623D01*
X143820Y51660D01*
Y51660D01*
X143811Y51655D01*
X143367Y51952D01*
X142748Y52075D01*
X138417D01*
X137798Y51952D01*
X137273Y51601D01*
X136922Y51076D01*
X136799Y50457D01*
X136922Y49837D01*
X137273Y49312D01*
Y49042D01*
X136922Y48517D01*
X136799Y47898D01*
X136922Y47278D01*
X137273Y46753D01*
Y46483D01*
X136922Y45958D01*
X136799Y45339D01*
X136922Y44719D01*
X137273Y44194D01*
Y43924D01*
X136922Y43399D01*
X136799Y42779D01*
X136922Y42160D01*
X137273Y41635D01*
Y41365D01*
X136922Y40840D01*
X136799Y40220D01*
X136922Y39601D01*
X137273Y39076D01*
Y38806D01*
X136922Y38281D01*
X136799Y37661D01*
X136922Y37042D01*
X137199Y36627D01*
X137008Y36165D01*
X136873Y36138D01*
X136509Y35895D01*
X136509Y35895D01*
X131840Y31226D01*
X131378Y31417D01*
Y31748D01*
X132381Y32751D01*
X132464Y32814D01*
X132454Y32824D01*
X135265Y35635D01*
X135530Y36032D01*
X135624Y36500D01*
Y51193D01*
X137807Y53377D01*
X181300D01*
X181768Y53470D01*
X182165Y53735D01*
X182165Y53735D01*
X182165Y53735D01*
X184907Y56476D01*
X187154D01*
X187400Y56428D01*
X188979D01*
Y56416D01*
X189028Y56423D01*
X189441Y56340D01*
Y55276D01*
X196159D01*
Y60026D01*
D01*
Y60026D01*
X196159Y60026D01*
Y60198D01*
X196159D01*
Y64584D01*
X210600D01*
X210741Y64469D01*
Y11848D01*
X210256Y11727D01*
X210247Y11742D01*
X209163Y13063D01*
X207842Y14147D01*
X206335Y14953D01*
X204700Y15449D01*
X203000Y15616D01*
X201300Y15449D01*
X199664Y14953D01*
X198158Y14147D01*
X196837Y13063D01*
X195753Y11742D01*
X194948Y10236D01*
X194451Y8600D01*
X194284Y6900D01*
X194451Y5200D01*
X194948Y3565D01*
X195753Y2058D01*
X196837Y737D01*
X198158Y-347D01*
X198281Y-413D01*
X198159Y-898D01*
X150144D01*
Y-678D01*
X150144D01*
Y3678D01*
X146182D01*
Y3590D01*
X143564D01*
Y4384D01*
X161439D01*
Y-215D01*
X169339D01*
Y4716D01*
X169454Y4888D01*
X169516Y5200D01*
Y14100D01*
Y23700D01*
X169454Y24012D01*
X169277Y24277D01*
X169012Y24454D01*
X168700Y24516D01*
X150100D01*
X149788Y24454D01*
X149523Y24277D01*
X149346Y24012D01*
X149284Y23700D01*
Y14916D01*
X130900D01*
X130588Y14854D01*
X130323Y14677D01*
X130302Y14645D01*
X117275D01*
Y20359D01*
X117006D01*
X116689Y20746D01*
X116719Y20900D01*
X116581Y21596D01*
X116186Y22186D01*
X115596Y22581D01*
X114900Y22719D01*
X114204Y22581D01*
X113614Y22186D01*
X113219Y21596D01*
X113081Y20900D01*
X113111Y20746D01*
X112794Y20359D01*
X112525D01*
D01*
D01*
X112525Y20359D01*
X112354D01*
Y20359D01*
X112069D01*
X111752Y20746D01*
X111798Y20979D01*
X111660Y21675D01*
X111265Y22265D01*
X110675Y22659D01*
X109979Y22798D01*
X109283Y22659D01*
X108692Y22265D01*
X108298Y21675D01*
X108159Y20979D01*
X108206Y20746D01*
X107889Y20359D01*
X107604D01*
X107604Y20359D01*
Y20359D01*
X107508Y20330D01*
X107477Y20377D01*
X107212Y20554D01*
X106900Y20616D01*
X106358D01*
X106029Y20992D01*
X106098Y21522D01*
X105970Y22502D01*
X105591Y23415D01*
X104990Y24198D01*
X104206Y24800D01*
X103293Y25178D01*
X102313Y25307D01*
X101334Y25178D01*
X100421Y24800D01*
X99637Y24198D01*
X99035Y23415D01*
X98657Y22502D01*
X98528Y21522D01*
X98598Y20992D01*
X98268Y20616D01*
X98200D01*
X97888Y20554D01*
X97623Y20377D01*
X97446Y20112D01*
X97384Y19800D01*
Y12726D01*
X97280Y12200D01*
X97384Y11674D01*
Y9523D01*
X97380Y9500D01*
X97384Y9477D01*
Y5200D01*
X97446Y4888D01*
X97623Y4623D01*
X97888Y4446D01*
X98200Y4384D01*
X106900D01*
X107212Y4446D01*
X107477Y4623D01*
X107654Y4888D01*
X107716Y5200D01*
Y5724D01*
X107759Y5789D01*
X107920Y6600D01*
X107759Y7411D01*
X107716Y7476D01*
Y8974D01*
X107820Y9500D01*
X107807Y9568D01*
X108124Y9955D01*
X130084D01*
Y5200D01*
Y-898D01*
X-6759D01*
X-6881Y-413D01*
X-6758Y-347D01*
X-5437Y737D01*
X-4353Y2058D01*
X-3548Y3565D01*
X-3052Y5200D01*
X-2884Y6900D01*
X-3052Y8600D01*
X-3548Y10236D01*
X-4353Y11742D01*
X-5437Y13063D01*
X-6758Y14147D01*
X-8264Y14953D01*
X-9900Y15449D01*
X-11600Y15616D01*
X-13300Y15449D01*
X-14935Y14953D01*
X-16442Y14147D01*
X-17763Y13063D01*
X-18847Y11742D01*
X-18917Y11612D01*
X-19402Y11733D01*
Y22720D01*
X-18912Y22818D01*
X-18494Y21810D01*
X-17798Y20902D01*
X-16890Y20206D01*
X-15834Y19769D01*
X-14700Y19619D01*
X-13566Y19769D01*
X-12510Y20206D01*
X-11602Y20902D01*
X-10906Y21810D01*
X-10469Y22866D01*
X-10319Y24000D01*
X-10469Y25134D01*
X-10906Y26190D01*
X-11602Y27098D01*
X-12510Y27794D01*
X-13566Y28231D01*
X-14700Y28381D01*
X-15834Y28231D01*
X-16890Y27794D01*
X-17798Y27098D01*
X-18494Y26190D01*
X-18912Y25182D01*
X-19402Y25280D01*
Y32720D01*
X-18912Y32818D01*
X-18494Y31810D01*
X-17798Y30902D01*
X-16890Y30206D01*
X-15834Y29768D01*
X-14700Y29619D01*
X-13566Y29768D01*
X-12510Y30206D01*
X-11602Y30902D01*
X-11545Y30977D01*
X-10723Y31607D01*
X-10280Y31791D01*
X-9636Y31524D01*
X-9178Y31172D01*
Y30156D01*
X-4822D01*
Y31172D01*
X-4364Y31524D01*
X-3856Y31734D01*
X-3446Y31564D01*
X-2562Y30886D01*
X-2498Y30802D01*
X-1590Y30106D01*
X-534Y29669D01*
X600Y29519D01*
X1734Y29669D01*
X2790Y30106D01*
X3698Y30802D01*
X4394Y31710D01*
X4831Y32766D01*
X4981Y33900D01*
X4831Y35034D01*
X4394Y36090D01*
X3698Y36998D01*
X2790Y37694D01*
X1734Y38131D01*
X600Y38281D01*
X-534Y38131D01*
X-1590Y37694D01*
X-2498Y36998D01*
X-2548Y36932D01*
X-3307Y36349D01*
X-3683Y36194D01*
X-4364Y36476D01*
X-4822Y36828D01*
Y37844D01*
X-9178D01*
Y36828D01*
X-9636Y36476D01*
X-10280Y36209D01*
X-10723Y36393D01*
X-11545Y37023D01*
X-11602Y37098D01*
X-12510Y37794D01*
X-13566Y38232D01*
X-14700Y38381D01*
X-15834Y38232D01*
X-16890Y37794D01*
X-17798Y37098D01*
X-18494Y36190D01*
X-18912Y35182D01*
X-19402Y35280D01*
Y110367D01*
X-18917Y110488D01*
X-18847Y110358D01*
D02*
G37*
G36*
X32407Y101907D02*
X32407Y101907D01*
X32771Y101664D01*
X32771Y101664D01*
X32771Y101664D01*
D01*
X32771Y101664D01*
X32771Y101664D01*
X33200Y101578D01*
X33200Y101578D01*
X36535D01*
X40415Y97699D01*
X40223Y97237D01*
X32816D01*
X32386Y97152D01*
X32023Y96909D01*
X32023Y96909D01*
X30357Y95243D01*
X30104D01*
X29961Y95338D01*
X29457Y95439D01*
X27685D01*
X27181Y95338D01*
X27146Y95315D01*
X26418Y95315D01*
Y95315D01*
X26395D01*
X26353Y95454D01*
X26638Y95881D01*
X26739Y96385D01*
Y97230D01*
X26747Y97271D01*
Y99922D01*
X27481D01*
Y104278D01*
X26477D01*
X26138Y104719D01*
X25424Y105268D01*
X24593Y105612D01*
X23786Y105718D01*
X23700Y105735D01*
Y105735D01*
X23700D01*
X23700D01*
X22365D01*
Y107259D01*
D01*
Y107259D01*
X22385Y107278D01*
X27035D01*
X32407Y101907D01*
D02*
G37*
G36*
X198182Y122460D02*
X198158Y122447D01*
X196837Y121363D01*
X195753Y120042D01*
X194948Y118535D01*
X194451Y116900D01*
X194284Y115200D01*
X194451Y113500D01*
X194948Y111864D01*
X195753Y110358D01*
X196837Y109037D01*
X198158Y107953D01*
X199664Y107148D01*
X201300Y106651D01*
X203000Y106484D01*
X204700Y106651D01*
X206335Y107148D01*
X207842Y107953D01*
X209163Y109037D01*
X210247Y110358D01*
X210256Y110373D01*
X210741Y110252D01*
Y80031D01*
X210600Y79916D01*
X190000D01*
X189688Y79854D01*
X189631Y79816D01*
X177416D01*
Y94700D01*
Y117400D01*
X177354Y117712D01*
X177177Y117977D01*
X176912Y118154D01*
X176600Y118216D01*
X159100D01*
X158788Y118154D01*
X158523Y117977D01*
X158346Y117712D01*
X158284Y117400D01*
Y96216D01*
X158000D01*
X157810Y96178D01*
X157356D01*
Y95876D01*
X157246Y95712D01*
X157184Y95400D01*
Y89900D01*
Y88600D01*
Y85116D01*
X154016D01*
Y89500D01*
X153954Y89812D01*
X153777Y90077D01*
X153512Y90254D01*
X153200Y90316D01*
X146500D01*
X146188Y90254D01*
X145923Y90077D01*
X145746Y89812D01*
X145684Y89500D01*
Y84300D01*
Y77500D01*
Y70812D01*
X145465Y70593D01*
X145067Y69998D01*
X145044Y69881D01*
X145013Y69725D01*
X144516Y69774D01*
Y84100D01*
X144454Y84412D01*
X144277Y84677D01*
X144012Y84854D01*
X143700Y84916D01*
X131594D01*
X131358Y85357D01*
X131563Y85664D01*
X131602Y85859D01*
X131760Y86095D01*
X131818Y86384D01*
X136900D01*
X137212Y86446D01*
X137477Y86623D01*
X137654Y86888D01*
X137716Y87200D01*
Y90700D01*
X137654Y91012D01*
X137477Y91277D01*
X137212Y91454D01*
X136900Y91516D01*
X128400D01*
X128088Y91454D01*
X127823Y91277D01*
X127646Y91012D01*
X127153Y91110D01*
Y107182D01*
X127037Y107768D01*
X127014Y107884D01*
X126616Y108480D01*
X123598Y111498D01*
X123002Y111896D01*
X122886Y111919D01*
X122300Y112035D01*
X107552D01*
Y112036D01*
X107548Y112035D01*
X106600D01*
X106014Y111919D01*
X105898Y111896D01*
X105302Y111498D01*
X105255Y111451D01*
X105251D01*
X105251D01*
X105238Y111433D01*
X104805Y111001D01*
X104801D01*
X104801D01*
X104788Y110983D01*
X104690Y110885D01*
X104591Y110809D01*
X104591Y110809D01*
X104437Y110578D01*
X103998Y110005D01*
X103616Y109085D01*
X103547Y108559D01*
X103425D01*
D01*
D01*
X103425Y108559D01*
X103253D01*
Y108559D01*
X98504D01*
Y101841D01*
X99659D01*
X99881Y101304D01*
X99973Y100604D01*
X99978D01*
Y100386D01*
X99857Y99778D01*
X94982D01*
Y96567D01*
X94520Y96376D01*
X85698Y105198D01*
X85102Y105596D01*
X84986Y105619D01*
X84400Y105735D01*
X76260D01*
X70398Y111598D01*
X69802Y111996D01*
X69686Y112019D01*
X69100Y112135D01*
X52000D01*
X51414Y112019D01*
X51298Y111996D01*
X50702Y111598D01*
X50602Y111498D01*
X50520Y111416D01*
X50123Y110820D01*
X50099Y110704D01*
X49983Y110118D01*
Y108591D01*
X49443D01*
Y101873D01*
X54193D01*
Y108465D01*
X59286D01*
Y101873D01*
X60592D01*
X60624Y101710D01*
X60868Y101346D01*
X62507Y99707D01*
X62871Y99464D01*
X63300Y99378D01*
X63300Y99378D01*
X82535D01*
X84052Y97861D01*
Y92855D01*
X84052D01*
X83957Y92378D01*
X81277D01*
X81250Y92383D01*
X81185Y92410D01*
X76798Y96798D01*
X76202Y97196D01*
X75500Y97335D01*
X74798Y97196D01*
X74202Y96798D01*
X73887Y96326D01*
X73397Y96424D01*
X73336Y96729D01*
X73093Y97093D01*
X73093Y97093D01*
X71793Y98393D01*
X71429Y98636D01*
X71000Y98722D01*
X71000Y98722D01*
X42565D01*
X37793Y103493D01*
X37429Y103736D01*
X37000Y103822D01*
X37000Y103822D01*
X33665D01*
X32699Y104787D01*
X32835Y104922D01*
X32835D01*
D01*
D01*
Y104922D01*
X38429D01*
X38537Y104901D01*
X38732Y104862D01*
X38823Y104801D01*
X39184Y104261D01*
X39228Y104037D01*
X39228Y104037D01*
X39279Y104005D01*
X39319Y103804D01*
X39714Y103214D01*
X40304Y102819D01*
X41000Y102681D01*
X41696Y102819D01*
X42286Y103214D01*
X42681Y103804D01*
X42819Y104500D01*
X42681Y105196D01*
X42286Y105786D01*
X41696Y106181D01*
X41000Y106319D01*
Y106320D01*
X40935Y106347D01*
X40869Y106374D01*
Y106374D01*
X40849Y106374D01*
X40695Y106528D01*
D01*
X40540Y106903D01*
X40540D01*
X40518Y107011D01*
Y109278D01*
X36370D01*
Y114172D01*
X31030D01*
Y109028D01*
X32619D01*
Y105520D01*
X32157Y105329D01*
X28293Y109193D01*
X27929Y109436D01*
X27500Y109522D01*
X27500Y109522D01*
X9700D01*
X9700Y109522D01*
X9271Y109436D01*
X8907Y109193D01*
X8907Y109193D01*
X6535Y106822D01*
X-7845D01*
X-7967Y107307D01*
X-6758Y107953D01*
X-5437Y109037D01*
X-4353Y110358D01*
X-3548Y111864D01*
X-3052Y113500D01*
X-2884Y115200D01*
X-3052Y116900D01*
X-3548Y118535D01*
X-4353Y120042D01*
X-5437Y121363D01*
X-6758Y122447D01*
X-6782Y122460D01*
X-6661Y122945D01*
X130839D01*
Y118131D01*
X131996D01*
X132210Y117680D01*
X131913Y117318D01*
X131422D01*
Y113356D01*
Y109419D01*
X131738D01*
X131974Y108978D01*
X131919Y108896D01*
X131781Y108200D01*
X131919Y107504D01*
X132314Y106914D01*
X132904Y106519D01*
X133600Y106381D01*
X134296Y106519D01*
X134886Y106914D01*
X135150Y107308D01*
X135650D01*
X135914Y106914D01*
X136504Y106519D01*
X137200Y106381D01*
X137896Y106519D01*
D01*
Y106519D01*
X138122Y106219D01*
Y106219D01*
X142478D01*
Y110156D01*
Y114118D01*
X142478D01*
Y114235D01*
X142832Y114588D01*
X143069D01*
Y115922D01*
X143566Y115971D01*
X143619Y115704D01*
X144014Y115114D01*
X144604Y114719D01*
X145300Y114581D01*
X145996Y114719D01*
X146586Y115114D01*
X146981Y115704D01*
X147092Y116261D01*
X147092Y116261D01*
X147092Y116261D01*
X147131Y116357D01*
X147930Y117156D01*
X148217Y117586D01*
X148318Y118093D01*
Y118093D01*
X148321D01*
X148318Y118113D01*
Y118131D01*
X149761D01*
Y122945D01*
X198061D01*
X198182Y122460D01*
D02*
G37*
G36*
X54807Y94516D02*
X54314Y94186D01*
X53919Y93596D01*
X53781Y92900D01*
X53919Y92204D01*
X53919Y92204D01*
X53619Y91878D01*
X53619D01*
Y91026D01*
X50700D01*
X50193Y90925D01*
X49763Y90637D01*
X48263Y89137D01*
X47975Y88707D01*
X47875Y88200D01*
Y81864D01*
X47835Y81769D01*
X47835Y81769D01*
X47835Y81769D01*
X47835D01*
D01*
X47519Y81296D01*
X47381Y80600D01*
X47398Y80512D01*
X47379Y80488D01*
X47379D01*
X47393Y80419D01*
X47310Y80003D01*
X38771D01*
X38071Y80703D01*
X38071Y80703D01*
X38080Y80712D01*
X38008Y80767D01*
X37252Y81523D01*
Y81550D01*
X37252Y81550D01*
X37246Y81565D01*
X37245Y81567D01*
D01*
D01*
X37245Y81567D01*
D01*
Y81567D01*
X37245D01*
X37216Y81595D01*
X37200Y81678D01*
Y84222D01*
X39281D01*
Y88578D01*
X37901D01*
Y88750D01*
X37901D01*
Y92871D01*
X38363Y93063D01*
X38929Y92497D01*
X38929Y92497D01*
X38921Y92488D01*
X38992Y92433D01*
X39748Y91677D01*
X39748Y91650D01*
D01*
D01*
Y91650D01*
D01*
X39752Y91641D01*
X39755Y91633D01*
D01*
D01*
X39755Y91633D01*
D01*
D01*
D01*
X39784Y91605D01*
X39875Y91143D01*
X40163Y90713D01*
X40593Y90425D01*
X41100Y90324D01*
X41115Y90328D01*
X41493Y90075D01*
X42000Y89974D01*
X42507Y90075D01*
X42937Y90363D01*
X43225Y90793D01*
X43325Y91300D01*
X43225Y91807D01*
X43146Y91925D01*
X43225Y92043D01*
X43325Y92550D01*
X43225Y93057D01*
X42937Y93487D01*
X42507Y93775D01*
X42000Y93875D01*
Y93875D01*
X41992Y93869D01*
X41349Y93997D01*
X40832Y94342D01*
X40642Y94532D01*
X40834Y94994D01*
X54661D01*
X54807Y94516D01*
D02*
G37*
G36*
X53619Y87522D02*
X54321D01*
Y82944D01*
X54329Y82904D01*
Y80483D01*
X54429Y79979D01*
X54715Y79552D01*
X55142Y79266D01*
X55647Y79166D01*
X56151Y79266D01*
X56578Y79552D01*
X56864Y79979D01*
X56964Y80483D01*
Y81354D01*
X57350Y81671D01*
X57615Y81619D01*
X57880Y81671D01*
X58266Y81354D01*
Y80483D01*
X58366Y79979D01*
X58462Y79836D01*
Y79554D01*
X58449D01*
X58388Y79246D01*
X58214Y78987D01*
X58214Y78986D01*
X57819Y78396D01*
X57752Y78058D01*
X57274Y77913D01*
X57115Y78071D01*
X56751Y78314D01*
X56322Y78399D01*
X56322Y78399D01*
X50249D01*
X50058Y78861D01*
X50137Y78941D01*
X50306Y79193D01*
X50486Y79314D01*
X50881Y79904D01*
X51019Y80600D01*
X50881Y81296D01*
X50565Y81769D01*
X50565Y81769D01*
X50565D01*
X50525Y81864D01*
Y87651D01*
X51249Y88375D01*
X53619D01*
Y87522D01*
D02*
G37*
G36*
X11039Y83062D02*
X11543Y82961D01*
X13315D01*
X13819Y83062D01*
X13854Y83085D01*
X14582Y83085D01*
Y83085D01*
X16178D01*
X16414Y82644D01*
X16330Y82519D01*
X16230Y82015D01*
Y80243D01*
X16330Y79739D01*
X16616Y79312D01*
X17043Y79026D01*
X17547Y78926D01*
X18051Y79026D01*
X18479Y79312D01*
X18584D01*
X19012Y79026D01*
X19516Y78926D01*
X20020Y79026D01*
X20447Y79312D01*
X20553D01*
X20980Y79026D01*
X21484Y78926D01*
X21988Y79026D01*
X22416Y79312D01*
X22521D01*
X22949Y79026D01*
X23453Y78926D01*
X23957Y79026D01*
X24384Y79312D01*
X24490D01*
X24917Y79026D01*
X25421Y78926D01*
X25925Y79026D01*
X25925Y79026D01*
X25925Y79026D01*
X26059Y79000D01*
X26272Y78548D01*
X26193Y78399D01*
X8587D01*
X7759Y79228D01*
Y79776D01*
X7768D01*
X7797Y79922D01*
X8618D01*
Y82188D01*
X8640Y82297D01*
X8640D01*
X8632Y82309D01*
X8773Y82650D01*
X8795Y82672D01*
D01*
X8795D01*
Y82672D01*
D01*
X9214Y83091D01*
X9278Y83140D01*
X9270Y83147D01*
X9280Y83157D01*
X10896D01*
X11039Y83062D01*
D02*
G37*
G36*
X123483Y106422D02*
Y90221D01*
X122943D01*
Y90075D01*
X122040D01*
X121454Y89959D01*
X121338Y89936D01*
X120742Y89538D01*
X119402Y88198D01*
X119004Y87602D01*
X118981Y87486D01*
X118865Y86900D01*
Y82200D01*
X118981Y81614D01*
X119004Y81498D01*
X119402Y80902D01*
X120842Y79462D01*
X121240Y79196D01*
X121438Y79064D01*
X122140Y78925D01*
X122943D01*
Y78779D01*
X123084D01*
Y78400D01*
X123146Y78088D01*
X123323Y77823D01*
X123588Y77646D01*
X123900Y77584D01*
X128403D01*
X128434Y77427D01*
X128872Y76772D01*
X129527Y76334D01*
X130300Y76180D01*
X131073Y76334D01*
X131119Y76365D01*
X133140D01*
X134165Y75340D01*
Y61800D01*
X134281Y61214D01*
X134304Y61098D01*
X134702Y60502D01*
X137519Y57686D01*
X137328Y57223D01*
X136720D01*
X136252Y57130D01*
X135855Y56865D01*
X132135Y53145D01*
X131870Y52748D01*
X131776Y52280D01*
Y51459D01*
X131727Y51418D01*
X131178Y51418D01*
Y51418D01*
X126822D01*
Y50424D01*
X126780Y50392D01*
X126715Y50365D01*
X121287D01*
Y47387D01*
Y44828D01*
Y42268D01*
X126824D01*
Y43519D01*
X131178D01*
Y43519D01*
X131682Y43519D01*
X131776Y43441D01*
Y38686D01*
X131409Y38403D01*
X130560Y38052D01*
X129650Y37932D01*
X129489Y37953D01*
Y37953D01*
X129465Y37934D01*
X129433Y37941D01*
X129319Y37918D01*
X127022D01*
Y36920D01*
X126911Y36835D01*
X126500Y36665D01*
X121287D01*
Y33687D01*
Y31128D01*
Y28569D01*
D01*
Y28569D01*
X121240Y28522D01*
X115406D01*
Y28569D01*
X115406D01*
Y30520D01*
X115793Y30837D01*
X116211Y30754D01*
X116913Y30893D01*
X117085Y31008D01*
X117300Y30965D01*
X118002Y31104D01*
X118598Y31502D01*
X118996Y32098D01*
X119135Y32800D01*
Y35124D01*
X119148Y35218D01*
X119135D01*
Y53200D01*
X118996Y53902D01*
X118598Y54498D01*
X117098Y55997D01*
Y56037D01*
Y59692D01*
X117182Y60331D01*
X117454Y60987D01*
X117873Y61532D01*
X117890Y61546D01*
X117892Y61544D01*
X117916Y61580D01*
X118491Y62330D01*
X118869Y63242D01*
X118999Y64222D01*
X118869Y65202D01*
X118491Y66115D01*
X117916Y66864D01*
X117892Y66901D01*
X117890Y66899D01*
X117873Y66912D01*
X117454Y67457D01*
X117244Y67964D01*
Y72178D01*
X116917D01*
Y72850D01*
X117600D01*
Y77950D01*
X117457D01*
Y78425D01*
X117457D01*
Y83175D01*
X112707D01*
Y78425D01*
X113200D01*
Y77950D01*
X113200D01*
Y72850D01*
X113247D01*
Y71935D01*
X111835D01*
Y90965D01*
X112354D01*
X112707Y90611D01*
Y85865D01*
X117457D01*
Y90615D01*
X115752D01*
X115607Y91093D01*
X116086Y91414D01*
X116481Y92004D01*
X116619Y92700D01*
X116617Y92710D01*
X116635Y92800D01*
Y95222D01*
X116818D01*
Y99578D01*
X111955D01*
X111843Y100142D01*
Y101138D01*
X111857D01*
X111848Y101210D01*
X111973Y101841D01*
X113096D01*
Y108365D01*
X121540D01*
X123483Y106422D01*
D02*
G37*
%LPC*%
G36*
X165583Y52075D02*
X161252D01*
X160633Y51952D01*
X160108Y51601D01*
X159757Y51076D01*
X159634Y50457D01*
X159757Y49837D01*
X160108Y49312D01*
Y49042D01*
X159757Y48517D01*
X159634Y47898D01*
X159757Y47278D01*
X160108Y46753D01*
Y46483D01*
X159757Y45958D01*
X159634Y45339D01*
X159757Y44719D01*
X160108Y44194D01*
Y43924D01*
X159757Y43399D01*
X159634Y42779D01*
X159757Y42160D01*
X160108Y41635D01*
Y41365D01*
X159757Y40840D01*
X159634Y40220D01*
X159757Y39601D01*
X160108Y39076D01*
Y38806D01*
X159757Y38281D01*
X159634Y37661D01*
X159757Y37042D01*
X160108Y36517D01*
Y36247D01*
X159757Y35722D01*
X159634Y35102D01*
X159757Y34483D01*
X160108Y33958D01*
Y33688D01*
X159757Y33163D01*
X159634Y32543D01*
X159757Y31924D01*
X160108Y31399D01*
X160633Y31048D01*
X161252Y30925D01*
X161837D01*
Y29583D01*
X160867D01*
Y25183D01*
X165967D01*
Y29583D01*
X164998D01*
Y30925D01*
X165583D01*
X165774Y30963D01*
X169143D01*
X169748Y31083D01*
X170261Y31426D01*
X177203Y38368D01*
X177203D01*
D01*
X177203Y38368D01*
X177203Y38368D01*
D01*
D01*
D01*
D01*
X177203Y38368D01*
X177240Y38405D01*
X177702Y38714D01*
X178262Y38825D01*
X178300Y38818D01*
X178996Y38956D01*
X179146Y39057D01*
X179172D01*
X179183Y39055D01*
Y39057D01*
X179822D01*
Y38656D01*
X184178D01*
Y39057D01*
X189309D01*
X189439Y38887D01*
X189747Y38145D01*
X189851Y37348D01*
X189819Y37099D01*
X189819D01*
X189848Y37061D01*
X189829Y36969D01*
X189858Y36823D01*
Y30622D01*
X193821D01*
Y38915D01*
X193409D01*
X193299Y39465D01*
X193719Y39746D01*
X194780Y38686D01*
Y30622D01*
X198742D01*
Y37570D01*
X199204Y37761D01*
X199415Y37550D01*
X199413Y37548D01*
X199601Y37266D01*
X199668Y36934D01*
X199670D01*
X199701Y36781D01*
Y30622D01*
X203663D01*
Y38915D01*
X202520D01*
X201673Y39762D01*
X201653Y39788D01*
X201650Y39785D01*
X194018Y47418D01*
X193505Y47760D01*
X192900Y47880D01*
X171055D01*
X168617Y50318D01*
X168105Y50660D01*
X167500Y50780D01*
X167500D01*
Y50781D01*
X167498Y50780D01*
X167462D01*
X167171Y50901D01*
X167101Y51069D01*
X167095Y51067D01*
X167078Y51076D01*
X166727Y51601D01*
X166202Y51952D01*
X165583Y52075D01*
D02*
G37*
G36*
X600Y28281D02*
X-534Y28131D01*
X-1590Y27694D01*
X-2498Y26998D01*
X-3194Y26090D01*
X-3632Y25034D01*
X-3781Y23900D01*
X-3632Y22766D01*
X-3194Y21710D01*
X-2498Y20802D01*
X-1590Y20106D01*
X-534Y19669D01*
X600Y19519D01*
X1734Y19669D01*
X2790Y20106D01*
X3698Y20802D01*
X4394Y21710D01*
X4831Y22766D01*
X4981Y23900D01*
X4831Y25034D01*
X4394Y26090D01*
X3698Y26998D01*
X2790Y27694D01*
X1734Y28131D01*
X600Y28281D01*
D02*
G37*
G36*
X83179Y20359D02*
Y20359D01*
X82998Y20359D01*
X82912D01*
X82826D01*
X82644Y20359D01*
X82644Y20359D01*
Y20359D01*
X78076D01*
Y13641D01*
X82826D01*
Y13641D01*
X82998D01*
X83179Y13641D01*
X83179Y13641D01*
Y13641D01*
X87747D01*
Y20359D01*
X83179D01*
X83179Y20359D01*
D02*
G37*
G36*
X153228Y115990D02*
X152249Y115861D01*
X151336Y115483D01*
X150552Y114881D01*
X149950Y114097D01*
X149572Y113184D01*
X149443Y112205D01*
X149572Y111225D01*
X149950Y110312D01*
X150552Y109528D01*
X151336Y108927D01*
X152249Y108549D01*
X153228Y108420D01*
X154208Y108549D01*
X155121Y108927D01*
X155905Y109528D01*
X156506Y110312D01*
X156885Y111225D01*
X157013Y112205D01*
X156885Y113184D01*
X156506Y114097D01*
X155905Y114881D01*
X155121Y115483D01*
X154208Y115861D01*
X153228Y115990D01*
D02*
G37*
G36*
X4900Y62219D02*
X4204Y62081D01*
X3614Y61686D01*
X3589Y61650D01*
X3512Y61618D01*
X3278Y61618D01*
Y61618D01*
X-1078D01*
Y57656D01*
Y53719D01*
X3278D01*
Y54540D01*
X3424Y54569D01*
Y54575D01*
X4230D01*
Y54562D01*
X4295Y54571D01*
X4728Y54485D01*
Y53230D01*
X9872D01*
Y58570D01*
X6234D01*
X6089Y59049D01*
X6186Y59114D01*
X6581Y59704D01*
X6719Y60400D01*
X6581Y61096D01*
X6186Y61686D01*
X5596Y62081D01*
X4900Y62219D01*
D02*
G37*
G36*
X19379Y119100D02*
X11873D01*
Y111594D01*
X19379D01*
Y113335D01*
X19593Y113424D01*
X20265Y113512D01*
X21187D01*
Y112768D01*
X26528D01*
Y117912D01*
X21187D01*
Y117183D01*
X20265D01*
X19593Y117271D01*
X19379Y117359D01*
Y119100D01*
D02*
G37*
G36*
X5626Y119132D02*
X4646Y119003D01*
X3733Y118625D01*
X2950Y118024D01*
X2348Y117240D01*
X1970Y116327D01*
X1841Y115347D01*
X1970Y114368D01*
X2348Y113455D01*
X2950Y112671D01*
X3733Y112069D01*
X4646Y111691D01*
X5626Y111562D01*
X6606Y111691D01*
X7519Y112069D01*
X8303Y112671D01*
X8904Y113455D01*
X9282Y114368D01*
X9411Y115347D01*
X9282Y116327D01*
X8904Y117240D01*
X8303Y118024D01*
X7519Y118625D01*
X6606Y119003D01*
X5626Y119132D01*
D02*
G37*
%LPD*%
D10*
X20340Y115347D02*
G03*
X17007Y113966I0J-4714D01*
G01*
Y116728D02*
G03*
X20340Y115347I3334J3334D01*
G01*
X-5299Y34000D02*
G03*
X-1198Y35698I0J5799D01*
G01*
X-1198Y32102D02*
G03*
X-5782Y34000I-4583J-4583D01*
G01*
X-8560D02*
G03*
X-12902Y32202I0J-6140D01*
G01*
Y35798D02*
G03*
X-8560Y34000I4342J4342D01*
G01*
X115082Y77484D02*
G03*
X115683Y76033I2052J0D01*
G01*
Y74767D02*
G03*
X115082Y73316I1451J-1451D01*
G01*
X21913Y115347D02*
G03*
X23213Y115886I0J1839D01*
G01*
Y114795D02*
G03*
X21879Y115347I-1334J-1334D01*
G01*
X168262Y37661D02*
G03*
X169040Y39717I-1892J1892D01*
G01*
X170317Y38440D02*
G03*
X168262Y37661I-163J-2671D01*
G01*
X163418Y37661D02*
G03*
X169308Y40615I0J7351D01*
G01*
X167407Y37661D02*
G03*
X170911Y39418I0J4373D01*
G01*
X115082Y69254D02*
G03*
X116594Y65603I5163J0D01*
G01*
X113833D02*
G03*
X115082Y68619I-3016J3016D01*
G01*
X115263Y68817D02*
G03*
X116594Y65603I4545J0D01*
G01*
X113833D02*
G03*
X115263Y69056I-3453J3453D01*
G01*
Y59388D02*
G03*
X113833Y62841I-4884J0D01*
G01*
X116594D02*
G03*
X115263Y59627I3214J-3214D01*
G01*
X179284Y66267D02*
G03*
X178800Y65100I1168J-1168D01*
G01*
X-12132Y34000D02*
G03*
X-7325Y35991I0J6798D01*
G01*
X-6675D02*
G03*
X-1868Y34000I4807J4807D01*
G01*
X25319Y102295D02*
G03*
X23700Y103900I-1619J-14D01*
G01*
X25372Y102169D02*
G03*
X21192Y103900I-4180J-4180D01*
G01*
X-7325Y32009D02*
G03*
X-12132Y34000I-4807J-4807D01*
G01*
X-1868D02*
G03*
X-6675Y32009I0J-6798D01*
G01*
X9177Y65742D02*
G03*
X10494Y66288I0J1863D01*
G01*
Y65197D02*
G03*
X9177Y65742I-1317J-1317D01*
G01*
X79943Y91057D02*
G03*
X81100Y90578I1157J1157D01*
G01*
X22735Y103487D02*
G03*
X20277Y102739I-629J-2347D01*
G01*
X22213Y103900D02*
G03*
X20224Y103076I0J-2813D01*
G01*
Y104724D02*
G03*
X22213Y103900I1989J1989D01*
G01*
X7503Y102643D02*
G03*
X11577Y104330I0J5762D01*
G01*
X-4197Y102643D02*
G03*
X-5514Y102097I0J-1863D01*
G01*
Y103188D02*
G03*
X-4197Y102643I1317J1317D01*
G01*
X-11663Y92800D02*
G03*
X-10346Y93346I0J1863D01*
G01*
Y92254D02*
G03*
X-11663Y92800I-1317J-1317D01*
G01*
X188995Y66900D02*
G03*
X191409Y67900I0J3415D01*
G01*
X166249Y38420D02*
G03*
X165399Y37768I362J-1352D01*
G01*
X107552Y110200D02*
G03*
X105889Y109511I0J-2352D01*
G01*
X106551Y110151D02*
G03*
X105784Y108300I1851J-1851D01*
G01*
X106101Y109701D02*
G03*
X105334Y107850I1851J-1851D01*
G01*
X105900Y109500D02*
G03*
X105334Y107848I1403J-1403D01*
G01*
X105800Y106802D02*
G03*
X105361Y107861I-1498J0D01*
G01*
X178211Y63689D02*
G03*
X178800Y65110I-1422J1422D01*
G01*
Y62290D02*
G03*
X178211Y63711I-2011J0D01*
G01*
X23685Y103897D02*
G03*
X24342Y102880I1557J285D01*
G01*
X22384Y103644D02*
G03*
X23708Y103887I369J1720D01*
G01*
X22740Y103487D02*
G03*
X23711Y103889I0J1373D01*
G01*
X116211Y32589D02*
G03*
X117300Y35218I-2629J2629D01*
G01*
Y32800D02*
Y53200D01*
X115263Y55237D02*
X117300Y53200D01*
X105900Y109500D02*
X106600Y110200D01*
X51818Y105231D02*
Y110118D01*
X51900Y110200D01*
X52000Y110300D02*
X69100D01*
X51900Y110200D02*
X52000Y110300D01*
X75500Y95500D02*
X80800Y90200D01*
X81100D01*
X75500Y103900D02*
X84400D01*
X69100Y110300D02*
X75500Y103900D01*
X84400D02*
X95400Y92900D01*
X96963D01*
X114800Y97363D02*
X114837Y97400D01*
X114800Y92800D02*
Y97363D01*
X110000Y70100D02*
Y92800D01*
Y70100D02*
X115082D01*
X105500D02*
X110000D01*
X96963Y92900D02*
X97063Y92800D01*
X110000D01*
X178800Y60600D02*
Y66699D01*
X115263Y55237D02*
Y56037D01*
X23700Y103900D02*
X25500Y102100D01*
X19400Y103900D02*
X23700D01*
X115082Y64354D02*
X115213Y64222D01*
X106600Y110200D02*
X122300D01*
X125318Y88240D02*
Y107182D01*
X122300Y110200D02*
X125318Y107182D01*
X163417Y37661D02*
X168261D01*
X170400Y39800D01*
X-14800Y92800D02*
X-9800D01*
X11144Y102643D02*
X12402Y103900D01*
X-6060Y102643D02*
X11144D01*
X1600Y68539D02*
X4397Y65742D01*
X-2025Y68539D02*
X1600D01*
X4397Y65742D02*
X11040D01*
X192206Y66900D02*
X192800Y67494D01*
X185300Y66900D02*
X192206D01*
X178800Y66699D02*
X179001Y66900D01*
X172401Y60700D02*
X172501Y60600D01*
X168000Y60700D02*
X172401D01*
X146763Y62300D02*
Y69295D01*
X149868Y72400D01*
X122140Y80760D02*
X125318D01*
X122040Y88240D02*
X125318D01*
X120700Y82200D02*
X122140Y80760D01*
X120700Y82200D02*
Y86900D01*
X122040Y88240D01*
X163300Y60700D02*
X168000D01*
X130300Y78200D02*
Y82763D01*
X160800Y58200D02*
X163300Y60700D01*
X15626Y115347D02*
X23850D01*
X-7000Y32637D02*
Y34000D01*
Y35863D01*
X115082Y64354D02*
Y70100D01*
X115263Y56037D02*
Y70000D01*
X110000Y92800D02*
X114800D01*
X115082Y70100D02*
Y80800D01*
X130300Y78200D02*
X133900D01*
X136000Y76100D01*
Y61800D02*
Y76100D01*
X139600Y58200D02*
X160800D01*
X136000Y61800D02*
X139600Y58200D01*
X-14700Y34000D02*
X-7000D01*
X500D01*
X105800Y105200D02*
Y108300D01*
D11*
X130103Y86269D02*
G03*
X126533Y84790I0J-5049D01*
G01*
X163908Y85758D02*
G03*
X163280Y84243I1516J-1516D01*
G01*
X158169Y62497D02*
G03*
X157628Y63804I-1848J0D01*
G01*
X201251Y36934D02*
G03*
X200533Y38667I-2451J0D01*
G01*
X191410Y36969D02*
G03*
X190063Y40637I-4635J379D01*
G01*
X163417Y28952D02*
G03*
X163877Y27842I1569J0D01*
G01*
X162958D02*
G03*
X163417Y28952I-1110J1110D01*
G01*
X125712Y84931D02*
G03*
X127355Y85612I0J2323D01*
G01*
X125823Y84916D02*
G03*
X127026Y85075I410J1531D01*
G01*
X169102Y44200D02*
G03*
X165609Y42753I0J-4940D01*
G01*
Y45365D02*
G03*
X168422Y44200I2813J2813D01*
G01*
X167500Y49200D02*
G03*
X165618Y47885I0J-2004D01*
G01*
X165353Y49200D02*
G03*
X164209Y48401I0J-1218D01*
G01*
X165617Y50471D02*
G03*
X167500Y49200I1883J759D01*
G01*
X164226Y49910D02*
G03*
X165278Y49200I1051J424D01*
G01*
X177666Y41266D02*
G03*
X179183Y40637I1518J1518D01*
G01*
X178300Y40403D02*
G03*
X176085Y39485I0J-3132D01*
G01*
X130300Y86700D02*
G03*
X127704Y85185I0J-2981D01*
G01*
X126243Y84500D02*
G03*
X127270Y85345I0J1047D01*
G01*
X125318Y84500D02*
G03*
X127319Y85448I0J2584D01*
G01*
X128223Y86480D02*
G03*
X127734Y85300I1180J-1180D01*
G01*
X127500Y85066D02*
G03*
X126320Y84577I0J-1669D01*
G01*
X59537Y89700D02*
Y91937D01*
X61323Y93723D01*
X63488D01*
X128443Y86700D02*
X130300D01*
X125318Y84500D02*
X126243D01*
X178300Y40637D02*
X182000D01*
X177237D02*
X178300D01*
X191839Y34769D02*
Y38861D01*
X190063Y40637D02*
X191839Y38861D01*
X182000Y40637D02*
X190063D01*
X169143Y32543D02*
X177237Y40637D01*
X163417Y32543D02*
X169143D01*
X163280Y81017D02*
Y85543D01*
X163800Y86063D01*
X150700Y62300D02*
X154663D01*
X155800Y65631D02*
Y69600D01*
Y65631D02*
X158600Y62831D01*
Y62300D02*
Y62831D01*
X201682Y34769D02*
Y37518D01*
X163417Y47898D02*
Y49200D01*
Y50457D01*
X196761Y34769D02*
Y38939D01*
X191500Y44200D02*
X196761Y38939D01*
X163417Y42779D02*
Y44200D01*
Y45339D01*
Y44200D02*
X191500D01*
X170400Y46300D02*
X192900D01*
X201682Y37518D01*
X167500Y49200D02*
X170400Y46300D01*
X163417Y49200D02*
X167500D01*
X163417Y35102D02*
Y37661D01*
Y40220D01*
Y27383D02*
Y32543D01*
X126243Y84500D02*
X128443Y86700D01*
D12*
X34600Y107029D02*
G03*
X32910Y110426I-4260J0D01*
G01*
X34600Y108236D02*
G03*
X33272Y110905I-3347J0D01*
G01*
X34600Y109442D02*
G03*
X33634Y111383I-2434J0D01*
G01*
X34839Y110559D02*
G03*
X34600Y109982I577J-577D01*
G01*
X40377Y105260D02*
G03*
X38537Y106022I-1840J-1840D01*
G01*
X39418Y106903D02*
G03*
X39902Y105735I1652J0D01*
G01*
X34600Y109424D02*
G03*
X35223Y107920I2127J0D01*
G01*
X33977D02*
G03*
X34600Y109424I-1504J1504D01*
G01*
X34436Y108848D02*
G03*
X35041Y108060I1253J336D01*
G01*
X33913Y107848D02*
G03*
X34261Y109503I-1459J1170D01*
G01*
X33998Y109275D02*
G03*
X34981Y108091I1778J477D01*
G01*
X33837Y107737D02*
G03*
X34026Y109172I-1637J945D01*
G01*
X-12960Y98577D02*
G03*
X-13722Y96737I1840J-1840D01*
G01*
X-14603Y97618D02*
G03*
X-13435Y98102I0J1652D01*
G01*
X31196Y90184D02*
G03*
X34923Y91728I0J5270D01*
G01*
X32645Y90184D02*
G03*
X35347Y91303I0J3822D01*
G01*
X34093Y90184D02*
G03*
X35772Y90879I0J2373D01*
G01*
X6637Y79776D02*
G03*
X6014Y81280I-2127J0D01*
G01*
X7260D02*
G03*
X6637Y79776I1504J-1504D01*
G01*
X8002Y83465D02*
G03*
X7518Y82297I1168J-1168D01*
G01*
X6637Y83178D02*
G03*
X8477Y83940I0J2602D01*
G01*
X5843Y87179D02*
G03*
X5500Y89200I-1595J769D01*
G01*
X6384Y86919D02*
G03*
X6098Y88602I-1329J640D01*
G01*
X6924Y86658D02*
G03*
X6696Y88004I-1063J512D01*
G01*
X6637Y88063D02*
G03*
X6943Y87623I469J0D01*
G01*
X6331D02*
G03*
X6637Y88063I-163J440D01*
G01*
X8388Y86247D02*
G03*
X7260Y85780I0J-1595D01*
G01*
Y87026D02*
G03*
X9141Y86247I1881J1881D01*
G01*
X4900Y60400D02*
G03*
X1962Y59060I0J-3889D01*
G01*
X3585Y60400D02*
G03*
X1509Y59453I0J-2748D01*
G01*
X2270Y60400D02*
G03*
X1056Y59846I0J-1607D01*
G01*
X82288Y31286D02*
G03*
X82906Y29814I2062J0D01*
G01*
X81671D02*
G03*
X82288Y31286I-1445J1471D01*
G01*
X108821Y97579D02*
G03*
X110258Y98200I0J1971D01*
G01*
X110276Y96975D02*
G03*
X108821Y97579I-1455J-1450D01*
G01*
X110721Y100155D02*
G03*
X111523Y98220I2737J0D01*
G01*
X110277D02*
G03*
X110721Y99292I-1073J1073D01*
G01*
X103020Y97400D02*
G03*
X101523Y96780I0J-2116D01*
G01*
Y98026D02*
G03*
X103035Y97400I1512J1512D01*
G01*
X101100Y99441D02*
G03*
X101523Y98420I1444J0D01*
G01*
X100277D02*
G03*
X101100Y100407I-1987J1987D01*
G01*
Y100604D02*
G03*
X99977Y103314I-3833J0D01*
G01*
X101100Y102052D02*
G03*
X100402Y103739I-2385J0D01*
G01*
X101780Y103314D02*
G03*
X101100Y101672I1642J-1642D01*
G01*
X110721Y101138D02*
G03*
X109820Y103314I-3078J0D01*
G01*
X110721Y102587D02*
G03*
X110244Y103739I-1629J0D01*
G01*
X111623Y103314D02*
G03*
X110721Y101138I2176J-2176D01*
G01*
X111198Y103739D02*
G03*
X110721Y102587I1152J-1152D01*
G01*
X30921Y19921D02*
G03*
X31527Y18906I1154J0D01*
G01*
X30316D02*
G03*
X30921Y19921I-548J1015D01*
G01*
X21079Y12738D02*
G03*
X20177Y14914I-3078J0D01*
G01*
X21079Y14187D02*
G03*
X20602Y15339I-1629J0D01*
G01*
X21980Y14914D02*
G03*
X21079Y12738I2176J-2176D01*
G01*
X21556Y15339D02*
G03*
X21079Y14187I1152J-1152D01*
G01*
X77300Y31284D02*
G03*
X77911Y29809I2087J0D01*
G01*
X76665D02*
G03*
X77300Y31341I-1532J1532D01*
G01*
X100198Y73135D02*
G03*
X100682Y74303I-1168J1168D01*
G01*
X101563Y73422D02*
G03*
X99723Y72660I0J-2602D01*
G01*
X53800Y24724D02*
G03*
X54423Y23220I2127J0D01*
G01*
X53177D02*
G03*
X53800Y24724I-1504J1504D01*
G01*
Y20076D02*
G03*
X53177Y21580I-2127J0D01*
G01*
X54423D02*
G03*
X53800Y20076I1504J-1504D01*
G01*
X45277Y27820D02*
G03*
X46788Y31468I-3649J3649D01*
G01*
X45701Y27396D02*
G03*
X46788Y30020I-2624J2624D01*
G01*
X46126Y26971D02*
G03*
X46788Y28571I-1600J1600D01*
G01*
X44535Y25635D02*
G03*
X45019Y26803I-1168J1168D01*
G01*
X45900Y25922D02*
G03*
X44060Y25160I0J-2602D01*
G01*
X85174Y92193D02*
G03*
X85660Y91020I1660J0D01*
G01*
X84414D02*
G03*
X85174Y92855I-1835J1835D01*
G01*
Y87545D02*
G03*
X84414Y89380I-2595J0D01*
G01*
X85660D02*
G03*
X85174Y88207I1173J-1173D01*
G01*
X99554Y70149D02*
G03*
X100940Y70723I0J1961D01*
G01*
Y69477D02*
G03*
X99318Y70149I-1622J-1622D01*
G01*
X37076Y49300D02*
G03*
X38580Y49923I0J2127D01*
G01*
Y48677D02*
G03*
X37076Y49300I-1504J-1504D01*
G01*
X44534Y50464D02*
G03*
X40220Y48677I0J-6101D01*
G01*
X43085Y50464D02*
G03*
X39796Y49101I0J-4652D01*
G01*
X41636Y50464D02*
G03*
X39371Y49525I0J-3204D01*
G01*
X37076Y53237D02*
G03*
X38580Y53860I0J2127D01*
G01*
Y52614D02*
G03*
X37076Y53237I-1504J-1504D01*
G01*
X40220Y53860D02*
G03*
X43667Y52432I3447J3447D01*
G01*
X39796Y53436D02*
G03*
X42218Y52432I2423J2423D01*
G01*
X39371Y53012D02*
G03*
X40770Y52432I1398J1398D01*
G01*
X39488Y59162D02*
G03*
X38865Y60666I-2127J0D01*
G01*
X40111D02*
G03*
X39488Y59162I1504J-1504D01*
G01*
X43045Y62275D02*
G03*
X40111Y61060I0J-4149D01*
G01*
X41596Y62275D02*
G03*
X39687Y61484I0J-2700D01*
G01*
X63520Y87581D02*
G03*
X62865Y89163I-2237J0D01*
G01*
X64111D02*
G03*
X63520Y87736I1426J-1426D01*
G01*
X69426Y87473D02*
G03*
X68777Y89040I-2216J0D01*
G01*
X70023D02*
G03*
X69426Y87599I1441J-1441D01*
G01*
X67137Y89663D02*
G03*
X68567Y90273I0J1982D01*
G01*
Y89053D02*
G03*
X67137Y89663I-1430J-1372D01*
G01*
X128180Y44877D02*
G03*
X124705Y46316I-3475J-3475D01*
G01*
X128604Y45301D02*
G03*
X126153Y46316I-2451J-2451D01*
G01*
X129029Y45726D02*
G03*
X127602Y46316I-1427J-1427D01*
G01*
X131000Y45500D02*
G03*
X129892Y44959I0J-1404D01*
G01*
Y46041D02*
G03*
X131000Y45500I1108J863D01*
G01*
X131263Y49437D02*
G03*
X129833Y48827I0J-1982D01*
G01*
Y50047D02*
G03*
X131263Y49437I1430J1372D01*
G01*
X125321Y48876D02*
G03*
X128180Y50060I0J4044D01*
G01*
X126769Y48876D02*
G03*
X128604Y49636I0J2595D01*
G01*
X137976Y108200D02*
G03*
X139480Y108823I0J2127D01*
G01*
Y107577D02*
G03*
X137976Y108200I-1504J-1504D01*
G01*
X39488Y59610D02*
G03*
X40111Y58106I2127J0D01*
G01*
X38865D02*
G03*
X39488Y59610I-1504J1504D01*
G01*
X21858Y59940D02*
G03*
X22481Y58436I2127J0D01*
G01*
X21235D02*
G03*
X21858Y59940I-1504J1504D01*
G01*
X133600Y109273D02*
G03*
X132977Y110777I-2127J0D01*
G01*
X134223D02*
G03*
X133600Y109273I1504J-1504D01*
G01*
X30520Y71670D02*
G03*
X29977Y72980I-1853J0D01*
G01*
X31223D02*
G03*
X30520Y71282I1698J-1698D01*
G01*
X111083Y51160D02*
G03*
X109976Y51618I-1107J-1107D01*
G01*
X109843Y43519D02*
G03*
X111083Y44032I0J1754D01*
G01*
X126274Y46316D02*
G03*
X125610Y46042I0J-939D01*
G01*
Y46592D02*
G03*
X126274Y46316I664J664D01*
G01*
X125672Y46511D02*
G03*
X126580Y45814I1295J748D01*
G01*
X126274Y48876D02*
G03*
X125610Y48601I0J-939D01*
G01*
Y49151D02*
G03*
X126274Y48876I664J664D01*
G01*
X126249Y49124D02*
G03*
X125672Y48681I246J-919D01*
G01*
X125529Y49212D02*
G03*
X126232Y49120I463J802D01*
G01*
X109979Y20979D02*
G03*
X110862Y18903I2879J0D01*
G01*
X109979Y19569D02*
G03*
X110447Y18471I1524J0D01*
G01*
X109095Y18903D02*
G03*
X109979Y20979I-1996J2075D01*
G01*
X109511Y18471D02*
G03*
X109979Y19569I-1056J1099D01*
G01*
X114900Y20900D02*
G03*
X115766Y18920I2697J0D01*
G01*
X114034D02*
G03*
X114900Y20900I-1831J1980D01*
G01*
X24943Y65500D02*
G03*
X23723Y62454I2948J-2948D01*
G01*
X23952Y64509D02*
G03*
X23123Y62440I2002J-2002D01*
G01*
X22055Y64083D02*
G03*
X24567Y65124I0J3553D01*
G01*
X22055Y63483D02*
G03*
X23543Y64100I0J2104D01*
G01*
X21858Y58387D02*
G03*
X20678Y61235I-4028J0D01*
G01*
X21858Y59835D02*
G03*
X21103Y61659I-2580J0D01*
G01*
X23038Y61235D02*
G03*
X21858Y58387I2848J-2848D01*
G01*
X22614Y61659D02*
G03*
X21858Y59835I1824J-1824D01*
G01*
X30520Y72742D02*
G03*
X31699Y69894I4028J0D01*
G01*
X30520Y71294D02*
G03*
X31275Y69470I2580J0D01*
G01*
X29340Y69894D02*
G03*
X30520Y72742I-2848J2848D01*
G01*
X29764Y69470D02*
G03*
X30520Y71294I-1824J1824D01*
G01*
X33186Y68714D02*
G03*
X32265Y68092I0J-993D01*
G01*
Y69337D02*
G03*
X33186Y68714I921J370D01*
G01*
X111083Y37460D02*
G03*
X109976Y37918I-1107J-1107D01*
G01*
X109843Y29819D02*
G03*
X111083Y30332I0J1754D01*
G01*
X72481Y78818D02*
G03*
X73171Y80483I-1665J1665D01*
G01*
X73505Y79842D02*
G03*
X73771Y80483I-641J641D01*
G01*
X83300Y79791D02*
G03*
X83070Y80348I-786J0D01*
G01*
X97570Y67542D02*
G03*
X96493Y67988I-1077J-1077D01*
G01*
X97730Y61570D02*
G03*
X96493Y62083I-1237J-1237D01*
G01*
Y50656D02*
G03*
X97966Y51266I0J2083D01*
G01*
X44328Y46335D02*
G03*
X43315Y45915I0J-1431D01*
G01*
X43782Y50307D02*
G03*
X44167Y50569I-125J595D01*
G01*
X61661Y102139D02*
G03*
X61069Y103118I-1105J0D01*
G01*
X62253D02*
G03*
X61661Y102139I513J-979D01*
G01*
X68879Y102021D02*
G03*
X66582Y102972I-2297J-2297D01*
G01*
X67855Y103045D02*
G03*
X66582Y103572I-1273J-1273D01*
G01*
X67857Y104247D02*
G03*
X68708Y102192I2907J0D01*
G01*
X140583Y38838D02*
G03*
X140927Y38006I1177J0D01*
G01*
X140238D02*
G03*
X140583Y38838I-832J832D01*
G01*
Y36485D02*
G03*
X140238Y37317I-1177J0D01*
G01*
X140927D02*
G03*
X140583Y36485I832J-832D01*
G01*
Y36279D02*
G03*
X140927Y35447I1177J0D01*
G01*
X140238D02*
G03*
X140583Y36279I-832J832D01*
G01*
X137302Y35102D02*
G03*
X138060Y35433I0J1032D01*
G01*
Y34771D02*
G03*
X137302Y35102I-757J-701D01*
G01*
X140583Y43956D02*
G03*
X140927Y43124I1177J0D01*
G01*
X140238D02*
G03*
X140583Y43956I-832J832D01*
G01*
X143832Y45300D02*
G03*
X143093Y44994I0J-1045D01*
G01*
Y45683D02*
G03*
X144018Y45300I925J925D01*
G01*
X140583Y44162D02*
G03*
X140238Y44994I-1177J0D01*
G01*
X140927D02*
G03*
X140583Y44162I832J-832D01*
G01*
Y49074D02*
G03*
X140927Y48242I1177J0D01*
G01*
X140238D02*
G03*
X140583Y49074I-832J832D01*
G01*
X144029Y50500D02*
G03*
X143093Y50112I0J-1325D01*
G01*
Y50801D02*
G03*
X143820Y50500I728J728D01*
G01*
X140583Y49280D02*
G03*
X140238Y50112I-1177J0D01*
G01*
X140927D02*
G03*
X140583Y49280I832J-832D01*
G01*
Y39044D02*
G03*
X140238Y39876I-1177J0D01*
G01*
X140927D02*
G03*
X140583Y39044I832J-832D01*
G01*
X37183Y53237D02*
G03*
X35823Y52674I0J-1923D01*
G01*
Y53920D02*
G03*
X37472Y53237I1649J1649D01*
G01*
X37818Y49300D02*
G03*
X35823Y48474I0J-2821D01*
G01*
X36369Y49300D02*
G03*
X35399Y48898I0J-1372D01*
G01*
X35823Y49720D02*
G03*
X36837Y49300I1014J1014D01*
G01*
X3248Y60400D02*
G03*
X4416Y60884I0J1652D01*
G01*
Y59916D02*
G03*
X3248Y60400I-1168J-1168D01*
G01*
X3305Y59973D02*
G03*
X4307Y60742I-428J1595D01*
G01*
X4558Y59807D02*
G03*
X3304Y59973I-826J-1431D01*
G01*
X41868Y44468D02*
G03*
X41384Y43300I1168J-1168D01*
G01*
X40700Y43984D02*
G03*
X41868Y44468I0J1652D01*
G01*
X52268Y38968D02*
G03*
X51784Y37800I1168J-1168D01*
G01*
X51100Y38484D02*
G03*
X52268Y38968I0J1652D01*
G01*
X51068Y42168D02*
G03*
X50584Y41000I1168J-1168D01*
G01*
X49900Y41684D02*
G03*
X51068Y42168I0J1652D01*
G01*
X129437Y49437D02*
G03*
X130516Y49884I0J1526D01*
G01*
Y48916D02*
G03*
X129259Y49437I-1257J-1257D01*
G01*
X129348Y45500D02*
G03*
X130516Y45984I0J1652D01*
G01*
Y45016D02*
G03*
X129348Y45500I-1168J-1168D01*
G01*
X114900Y19248D02*
G03*
X114416Y20416I-1652J0D01*
G01*
X115384D02*
G03*
X114900Y19248I1168J-1168D01*
G01*
X114539Y19552D02*
G03*
X114355Y20486I-1045J280D01*
G01*
X115165Y20269D02*
G03*
X114539Y19552I419J-998D01*
G01*
X115261D02*
G03*
X114635Y20269I-1045J-280D01*
G01*
X115445Y20486D02*
G03*
X115261Y19552I861J-654D01*
G01*
X109979Y19327D02*
G03*
X109495Y20495I-1652J0D01*
G01*
X110463D02*
G03*
X109979Y19327I1168J-1168D01*
G01*
X110364Y19539D02*
G03*
X109682Y20362I-1238J-332D01*
G01*
X110544Y20593D02*
G03*
X110364Y19539I1058J-722D01*
G01*
X109593D02*
G03*
X109414Y20593I-1237J332D01*
G01*
X110275Y20362D02*
G03*
X109593Y19539I555J-1155D01*
G01*
X133600Y109852D02*
G03*
X134084Y108684I1652J0D01*
G01*
X133116D02*
G03*
X133600Y109852I-1168J1168D01*
G01*
X138852Y108200D02*
G03*
X137684Y107716I0J-1652D01*
G01*
Y108684D02*
G03*
X138852Y108200I1168J1168D01*
G01*
X138379Y108308D02*
G03*
X137793Y107858I250J-933D01*
G01*
X137692Y108675D02*
G03*
X138704Y108395I744J718D01*
G01*
Y108005D02*
G03*
X137692Y107725I-268J-999D01*
G01*
X137793Y108542D02*
G03*
X138379Y108092I837J483D01*
G01*
X98516Y63116D02*
G03*
X95795Y64243I-2721J-2721D01*
G01*
X98940Y63540D02*
G03*
X97244Y64243I-1697J-1697D01*
G01*
X101748Y97400D02*
G03*
X102916Y97884I0J1652D01*
G01*
Y96916D02*
G03*
X101748Y97400I-1168J-1168D01*
G01*
X102126Y97161D02*
G03*
X102786Y97702I-268J999D01*
G01*
X102896Y96937D02*
G03*
X102126Y97161I-570J-524D01*
G01*
X102124Y97644D02*
G03*
X102899Y97866I203J756D01*
G01*
X102785Y97100D02*
G03*
X102124Y97644I-929J-454D01*
G01*
X110721Y97579D02*
G03*
X109328Y96961I0J-1881D01*
G01*
X109305Y97905D02*
G03*
X110093Y97579I788J788D01*
G01*
X110061Y97911D02*
G03*
X109494Y97297I203J-756D01*
G01*
X109163Y98014D02*
G03*
X110023Y97901I566J981D01*
G01*
X40338Y104327D02*
G03*
X39037Y106033I-2691J-703D01*
G01*
X40918Y104479D02*
G03*
X40281Y105316I-1320J-345D01*
G01*
X40066Y105571D02*
G03*
X41000Y105184I934J934D01*
G01*
X40316Y104500D02*
G03*
X39735Y105902I-1983J0D01*
G01*
X98032Y61268D02*
G03*
X99200Y60784I1168J1168D01*
G01*
X98516Y60100D02*
G03*
X98032Y61268I-1652J0D01*
G01*
X99200Y55348D02*
G03*
X98716Y56516I-1652J0D01*
G01*
X99684D02*
G03*
X99200Y55348I1168J-1168D01*
G01*
X99068Y49968D02*
G03*
X99413Y50800I-832J832D01*
G01*
X99900Y50313D02*
G03*
X99068Y49968I0J-1177D01*
G01*
X89568Y60432D02*
G03*
X88400Y60916I-1168J-1168D01*
G01*
X89084Y61600D02*
G03*
X89568Y60432I1652J0D01*
G01*
X90309Y58338D02*
G03*
X88084Y57416I0J-3147D01*
G01*
X88860Y58338D02*
G03*
X87660Y57840I0J-1698D01*
G01*
X89368Y55068D02*
G03*
X88884Y53900I1168J-1168D01*
G01*
X88200Y54584D02*
G03*
X89368Y55068I0J1652D01*
G01*
X61832Y78768D02*
G03*
X63000Y78284I1168J1168D01*
G01*
X62316Y77600D02*
G03*
X61832Y78768I-1652J0D01*
G01*
X59583Y79150D02*
G03*
X59984Y78184I1367J0D01*
G01*
X59016D02*
G03*
X59583Y79554I-1370J1370D01*
G01*
X144448Y50500D02*
G03*
X145616Y50984I0J1652D01*
G01*
Y50016D02*
G03*
X144448Y50500I-1168J-1168D01*
G01*
Y45300D02*
G03*
X145616Y45784I0J1652D01*
G01*
Y44816D02*
G03*
X144448Y45300I-1168J-1168D01*
G01*
X51332Y72932D02*
G03*
X51816Y74100I-1168J1168D01*
G01*
X52500Y73416D02*
G03*
X51332Y72932I0J-1652D01*
G01*
X65484Y96116D02*
X66300Y95300D01*
X50517Y72117D02*
X52500Y74100D01*
X46788Y72117D02*
X50517D01*
X129000Y49437D02*
X131263D01*
X140583Y45339D02*
X140621Y45300D01*
X146100D01*
X140626Y50500D02*
X146100D01*
X140583Y50457D02*
X140626Y50500D01*
X140583Y47898D02*
Y50457D01*
X72960Y77600D02*
X81600D01*
X67360Y72000D02*
X72960Y77600D01*
X56200Y72000D02*
X67360D01*
X53700Y69500D02*
X56200Y72000D01*
X55000Y73200D02*
X66863D01*
X52500Y70700D02*
X55000Y73200D01*
X66863D02*
X73363Y79700D01*
X67457Y76400D02*
Y82944D01*
X65557Y74500D02*
X67457Y76400D01*
X422Y76078D02*
X55825D01*
X57403Y74500D02*
X65557D01*
X55825Y76078D02*
X57403Y74500D01*
X65489Y76700D02*
Y82944D01*
X64489Y75700D02*
X65489Y76700D01*
X8122Y77278D02*
X56322D01*
X57900Y75700D02*
X64489D01*
X56322Y77278D02*
X57900Y75700D01*
X59500Y77700D02*
X59583Y77784D01*
Y82944D01*
X61552Y79048D02*
X63000Y77600D01*
X61552Y79048D02*
Y82944D01*
X-2200Y78700D02*
X422Y76078D01*
X-2200Y78700D02*
Y87900D01*
X6637Y78763D02*
X8122Y77278D01*
X83300Y79300D02*
Y82850D01*
X81600Y77600D02*
X83300Y79300D01*
X73363Y79700D02*
Y82944D01*
X44300Y14800D02*
X50000D01*
X38600Y9100D02*
X44300Y14800D01*
X55647Y32146D02*
Y35700D01*
X53800Y30300D02*
X55647Y32146D01*
X53800Y22400D02*
Y30300D01*
Y18600D02*
Y22400D01*
X50000Y14800D02*
X53800Y18600D01*
X22100Y9100D02*
X38600D01*
X21079Y10121D02*
X22100Y9100D01*
X21079Y10121D02*
Y16800D01*
X39900Y21000D02*
X45900Y27000D01*
X32000Y21000D02*
X39900D01*
X30921Y19921D02*
X32000Y21000D01*
X30921Y16800D02*
Y19921D01*
X101400Y29819D02*
X112399D01*
X99700Y31519D02*
X101400Y29819D01*
X94032Y44558D02*
X98642D01*
X99700Y31519D02*
Y43500D01*
X98642Y44558D02*
X99700Y43500D01*
X102082Y37918D02*
X112454D01*
X94032Y46527D02*
X99573D01*
X100900Y39100D02*
X102082Y37918D01*
X100900Y39100D02*
Y45200D01*
X99573Y46527D02*
X100900Y45200D01*
X104400Y44600D02*
Y64500D01*
X94032Y66212D02*
X102688D01*
X104400Y44600D02*
X105481Y43519D01*
X102688Y66212D02*
X104400Y64500D01*
X97700Y67412D02*
X106288D01*
X108500Y65200D01*
Y53018D02*
X109900Y51618D01*
X112454D01*
X108500Y53018D02*
Y65200D01*
X88200Y53900D02*
X90669Y56369D01*
X94032D01*
X87600Y57900D02*
X88038Y58338D01*
X94032D01*
X88400Y61600D02*
X89694Y60306D01*
X94032D01*
X137302Y35102D02*
X140583D01*
X129600Y27400D02*
X137302Y35102D01*
X98600Y27400D02*
X129600D01*
X97595Y48495D02*
X99900Y50800D01*
X94032Y48495D02*
X97595D01*
X97164Y50464D02*
X99200Y52500D01*
Y57000D01*
X94032Y50464D02*
X97164D01*
X101100Y97400D02*
Y104979D01*
X97025Y62275D02*
X99200Y60100D01*
X94032Y62275D02*
X97025D01*
X83205Y82944D02*
X83300Y82850D01*
X41000Y104500D02*
Y104637D01*
X38537Y107100D02*
X41000Y104637D01*
X33700Y111600D02*
X34600Y110700D01*
Y107100D02*
Y110700D01*
X71394Y82944D02*
Y86994D01*
X72300Y87900D01*
Y96300D01*
X71000Y97600D02*
X72300Y96300D01*
X42100Y97600D02*
X71000D01*
X37000Y102700D02*
X42100Y97600D01*
X33200Y102700D02*
X37000D01*
X27500Y108400D02*
X33200Y102700D01*
X9700Y108400D02*
X27500D01*
X7000Y105700D02*
X9700Y108400D01*
X-10000Y105700D02*
X7000D01*
X-12200Y103500D02*
X-10000Y105700D01*
X-12200Y99337D02*
Y103500D01*
X-14800Y96737D02*
X-12200Y99337D01*
X67137Y89663D02*
X69400D01*
X66300Y90500D02*
X67137Y89663D01*
X66300Y90500D02*
Y95300D01*
X69426Y82944D02*
Y89637D01*
X6637Y78763D02*
Y82100D01*
X-2200Y87900D02*
X-900Y89200D01*
X5500D01*
X6637Y88063D01*
Y86600D02*
Y88063D01*
X63488Y89786D02*
X63520Y89754D01*
Y82944D02*
Y89754D01*
X35200Y48900D02*
X35600Y49300D01*
X39400D01*
X35200Y53100D02*
X35337Y53237D01*
X39400D01*
Y49300D02*
X40564Y50464D01*
X46788D01*
X39400Y53237D02*
X40205Y52432D01*
X46788D01*
X39488Y57286D02*
Y61486D01*
X40277Y62275D01*
X46788D01*
X30520Y68714D02*
Y73720D01*
Y68714D02*
X33186D01*
X35688Y66212D01*
X46788D01*
X21858Y57616D02*
Y62415D01*
X24943Y65500D01*
X34200D01*
X35457Y64243D01*
X46788D01*
X28571Y90184D02*
X28765Y90378D01*
X108821Y97579D02*
X110721D01*
X108821Y97421D02*
Y97579D01*
X110721D02*
Y105200D01*
X101100Y97400D02*
X103400D01*
X94032Y64243D02*
X98357D01*
X99000Y63600D01*
X137200Y108200D02*
X140300D01*
X133600D02*
Y111400D01*
X140583Y37661D02*
Y40220D01*
Y35102D02*
Y37661D01*
X96800Y29200D02*
X98600Y27400D01*
X96800Y29200D02*
Y39300D01*
X95200Y40900D02*
X96800Y39300D01*
X74300Y40900D02*
X95200D01*
X73363Y39963D02*
X74300Y40900D01*
X73363Y35700D02*
Y39963D01*
X96931Y68180D02*
X97700Y67412D01*
X94032Y68180D02*
X96931D01*
X112454Y51618D02*
X112638Y51435D01*
X105481Y43519D02*
X112399D01*
X112638Y43758D01*
X94032Y70149D02*
X101514D01*
X101563Y70100D01*
X99180Y72117D02*
X101563Y74500D01*
X94032Y72117D02*
X99180D01*
X112399Y29819D02*
X112638Y30057D01*
X112454Y37918D02*
X112638Y37735D01*
X109979Y17000D02*
Y20979D01*
X114900Y17000D02*
Y20900D01*
X128183Y46316D02*
X129000Y45500D01*
X124055Y46316D02*
X128183D01*
X124055Y48876D02*
X128439D01*
X129000Y45500D02*
X131000D01*
Y49400D02*
X131226D01*
X131263Y49437D01*
X88851Y70149D02*
X94032D01*
X87600Y71400D02*
X88851Y70149D01*
X87600Y71400D02*
Y97597D01*
X83497Y101700D02*
X87600Y97597D01*
X69200Y101700D02*
X83497D01*
X66582Y104318D02*
X69200Y101700D01*
X66582Y104318D02*
Y105231D01*
X85174Y82944D02*
Y98326D01*
X83000Y100500D02*
X85174Y98326D01*
X63300Y100500D02*
X83000D01*
X61661Y102139D02*
X63300Y100500D01*
X61661Y102139D02*
Y105231D01*
X140583Y42779D02*
Y45339D01*
X6990Y86247D02*
X12429D01*
X8816Y84279D02*
X12429D01*
X6637Y82100D02*
X8816Y84279D01*
X77300Y29197D02*
Y35700D01*
X83205Y32203D02*
Y35700D01*
X82288Y29186D02*
Y31286D01*
X83205Y32203D01*
X45900Y27000D02*
Y27200D01*
X46788Y28088D01*
Y44558D01*
X52500Y43600D02*
Y70700D01*
X49900Y41000D02*
X52500Y43600D01*
X53700Y40400D02*
Y69500D01*
X51100Y37800D02*
X53700Y40400D01*
X43927Y46527D02*
X46788D01*
X1863Y60400D02*
X4900D01*
X1100Y59637D02*
X1863Y60400D01*
X40700Y43300D02*
X43927Y46527D01*
X28571Y90184D02*
X34585D01*
X35701Y91300D01*
X28571Y94121D02*
X30821D01*
X32816Y96116D01*
X65484D01*
D13*
X115082Y58618D02*
G03*
X113479Y62488I-5472J0D01*
G01*
X115082Y61032D02*
G03*
X114186Y63195I-3058J0D01*
G01*
X116948Y62488D02*
G03*
X115082Y57983I4505J-4505D01*
G01*
X116241Y63195D02*
G03*
X115082Y60397I2798J-2798D01*
G01*
X25421Y100449D02*
G03*
X25018Y101421I-1376J0D01*
G01*
X25982D02*
G03*
X25421Y100069I1353J-1353D01*
G01*
X39866Y93434D02*
G03*
X42000Y92550I2134J2134D01*
G01*
X41100Y91650D02*
G03*
X40711Y92589I-1328J0D01*
G01*
X35656Y86400D02*
G03*
X36818Y86882I0J1644D01*
G01*
Y85918D02*
G03*
X35656Y86400I-1163J-1163D01*
G01*
X32183Y84317D02*
G03*
X35000Y83150I2817J2817D01*
G01*
X37134Y79766D02*
G03*
X35000Y80650I-2134J-2134D01*
G01*
X35900Y81550D02*
G03*
X36289Y80611I1328J0D01*
G01*
X7667Y92153D02*
G03*
X6486Y91664I0J-1670D01*
G01*
Y92936D02*
G03*
X8378Y92153I1892J1892D01*
G01*
X2700Y80259D02*
G03*
X2218Y81422I-1644J0D01*
G01*
X3182D02*
G03*
X2700Y80259I1163J-1163D01*
G01*
Y83941D02*
G03*
X3182Y82779I1644J0D01*
G01*
X2218D02*
G03*
X2700Y83941I-1163J1163D01*
G01*
Y84759D02*
G03*
X2218Y85922I-1644J0D01*
G01*
X3182D02*
G03*
X2700Y84759I1163J-1163D01*
G01*
X3424Y55900D02*
G03*
X1778Y55218I0J-2327D01*
G01*
X4230Y55900D02*
G03*
X6401Y56799I0J3070D01*
G01*
Y55001D02*
G03*
X4230Y55900I-2171J-2171D01*
G01*
X89447Y29400D02*
G03*
X87767Y28704I0J-2376D01*
G01*
X86065Y30209D02*
G03*
X86891Y29867I827J827D01*
G01*
X86210Y29186D02*
G03*
X85589Y30685I-2120J0D01*
G01*
X96963Y95759D02*
G03*
X96481Y96921I-1644J0D01*
G01*
X97445D02*
G03*
X96963Y95759I1163J-1163D01*
G01*
X63582Y29100D02*
G03*
X61170Y28101I0J-3411D01*
G01*
X60688Y30227D02*
G03*
X61170Y29064I1644J0D01*
G01*
X60207D02*
G03*
X60688Y30227I-1163J1163D01*
G01*
X49837Y24304D02*
G03*
X50345Y23078I1733J0D01*
G01*
X49381D02*
G03*
X49837Y24179I-1100J1100D01*
G01*
X110971Y32616D02*
G03*
X108079Y31418I0J-4091D01*
G01*
X108557Y32616D02*
G03*
X107371Y32125I0J-1677D01*
G01*
X108079Y36319D02*
G03*
X110838Y35176I2760J2760D01*
G01*
X49837Y25159D02*
G03*
X49355Y26322I-1644J0D01*
G01*
X50319D02*
G03*
X49837Y25159I1163J-1163D01*
G01*
X51240Y28940D02*
G03*
X50518Y27197I1743J-1743D01*
G01*
X95340Y78276D02*
G03*
X95682Y79103I-827J827D01*
G01*
X96363Y78422D02*
G03*
X94864Y77801I0J-2120D01*
G01*
X95881Y79979D02*
G03*
X96963Y82590I-2611J2611D01*
G01*
X25159Y48900D02*
G03*
X26322Y49382I0J1644D01*
G01*
Y48418D02*
G03*
X25159Y48900I-1163J-1163D01*
G01*
X28841D02*
G03*
X27678Y48418I0J-1644D01*
G01*
Y49382D02*
G03*
X28841Y48900I1163J1163D01*
G01*
X111071Y46316D02*
G03*
X108178Y45118I0J-4091D01*
G01*
X108657Y46316D02*
G03*
X107471Y45825I0J-1677D01*
G01*
X108178Y50019D02*
G03*
X110938Y48876I2760J2760D01*
G01*
X140300Y113781D02*
G03*
X140782Y112619I1644J0D01*
G01*
X139818D02*
G03*
X140300Y113781I-1163J1163D01*
G01*
X33907Y57286D02*
G03*
X35070Y57767I0J1644D01*
G01*
Y56804D02*
G03*
X33907Y57286I-1163J-1163D01*
G01*
X133607Y116964D02*
G03*
X134082Y115819I1620J0D01*
G01*
X133118D02*
G03*
X133607Y116999I-1180J1180D01*
G01*
X110636Y48957D02*
G03*
X111264Y49039I214J799D01*
G01*
X40700Y71559D02*
G03*
X40218Y72721I-1644J0D01*
G01*
X41182D02*
G03*
X40700Y71559I1163J-1163D01*
G01*
X43525Y74086D02*
G03*
X41182Y73115I0J-3314D01*
G01*
X55600Y91541D02*
G03*
X56082Y90378I1644J0D01*
G01*
X55118D02*
G03*
X55600Y91541I-1163J1163D01*
G01*
X55647Y87747D02*
G03*
X55118Y89021I-1803J0D01*
G01*
X56082D02*
G03*
X55647Y87971I1051J-1051D01*
G01*
X53956Y89700D02*
G03*
X55118Y90182I0J1644D01*
G01*
Y89218D02*
G03*
X53956Y89700I-1163J-1163D01*
G01*
X59537Y87859D02*
G03*
X59055Y89021I-1644J0D01*
G01*
X60019D02*
G03*
X59537Y87859I1163J-1163D01*
G01*
X30802Y85698D02*
G03*
X29457Y86255I-1345J-1345D01*
G01*
X30253Y86247D02*
G03*
X29451Y86253I-404J-404D01*
G01*
X110569Y35248D02*
G03*
X111264Y35339I237J885D01*
G01*
X111264Y32453D02*
G03*
X110658Y32533I-399J-691D01*
G01*
X57892Y86092D02*
G03*
X57607Y85405I687J-687D01*
G01*
X94038Y74080D02*
G03*
X94486Y75162I-1081J1081D01*
G01*
X140300Y113811D02*
G03*
X139262Y116318I-3545J0D01*
G01*
X141338D02*
G03*
X140300Y113811I2507J-2507D01*
G01*
X146993Y118093D02*
G03*
X146156Y119694I-1948J0D01*
G01*
X147830D02*
G03*
X146993Y118093I1111J-1601D01*
G01*
X133607Y117355D02*
G03*
X132569Y119862I-3545J0D01*
G01*
X134645D02*
G03*
X133607Y117355I2507J-2507D01*
G01*
X29619Y48900D02*
G03*
X30781Y49382I0J1644D01*
G01*
Y48418D02*
G03*
X29619Y48900I-1163J-1163D01*
G01*
X40700Y71069D02*
G03*
X41042Y70242I1169J0D01*
G01*
X40358D02*
G03*
X40700Y71069I-827J827D01*
G01*
X24869Y48900D02*
G03*
X24042Y48558I0J-1169D01*
G01*
Y49242D02*
G03*
X24869Y48900I827J827D01*
G01*
X55600Y91731D02*
G03*
X55258Y92558I-1169J0D01*
G01*
X55942D02*
G03*
X55600Y91731I827J-827D01*
G01*
X33328Y57286D02*
G03*
X32328Y56872I0J-1413D01*
G01*
Y57557D02*
G03*
X32982Y57286I654J654D01*
G01*
X2700Y80010D02*
G03*
X3142Y78942I1510J0D01*
G01*
X115688Y32616D02*
G03*
X116958Y33142I0J1795D01*
G01*
X117409Y32616D02*
G03*
X116542Y32258I0J-1225D01*
G01*
Y32942D02*
G03*
X117329Y32616I787J787D01*
G01*
X115071D02*
G03*
X115858Y32942I0J1113D01*
G01*
Y32258D02*
G03*
X114991Y32616I-867J-867D01*
G01*
X50573Y28273D02*
G03*
X50916Y29100I-827J827D01*
G01*
X51400Y28616D02*
G03*
X50573Y28273I0J-1169D01*
G01*
X50835Y28239D02*
G03*
X50932Y28975I-840J485D01*
G01*
X51525Y28632D02*
G03*
X50694Y27994I354J-1322D01*
G01*
X62631Y29100D02*
G03*
X63458Y29442I0J1169D01*
G01*
Y28758D02*
G03*
X62631Y29100I-827J-827D01*
G01*
X62788Y28887D02*
G03*
X63381Y29342I-253J943D01*
G01*
X63558Y28681D02*
G03*
X62524Y28817I-681J-1180D01*
G01*
X48000Y78678D02*
G03*
X48717Y80570I-1741J1741D01*
G01*
X49200Y81769D02*
G03*
X49542Y80942I1169J0D01*
G01*
X48858D02*
G03*
X49200Y81769I-827J827D01*
G01*
X88431Y29400D02*
G03*
X89258Y29742I0J1169D01*
G01*
Y29058D02*
G03*
X88431Y29400I-827J-827D01*
G01*
X88553Y29161D02*
G03*
X89181Y29642I-268J998D01*
G01*
X89358Y28981D02*
G03*
X88368Y29111I-652J-1130D01*
G01*
X146127Y117227D02*
G03*
X145784Y116400I827J-827D01*
G01*
X145300Y116884D02*
G03*
X146127Y117227I0J1169D01*
G01*
X107400Y35837D02*
X108061Y35176D01*
X112638D01*
X107500Y49537D02*
X108161Y48876D01*
X112638D01*
X59537Y87737D02*
Y89700D01*
X57615Y85815D02*
X59537Y87737D01*
X57615Y82944D02*
Y85815D01*
X114800Y92700D02*
Y92800D01*
X145300Y116400D02*
X146993Y118093D01*
Y120900D01*
X87303Y29400D02*
X89600D01*
X85174Y31100D02*
X87088Y29186D01*
X60688Y28386D02*
X61402Y29100D01*
X63800D01*
X49837Y27537D02*
X51400Y29100D01*
X49837Y27000D02*
Y27537D01*
X2700Y78700D02*
X2800Y78600D01*
X2700Y78700D02*
Y82100D01*
X31986Y57214D02*
Y57286D01*
X40700Y69900D02*
Y73400D01*
X55600Y89700D02*
Y92900D01*
X96963D02*
Y97600D01*
Y79900D02*
Y92900D01*
X96363Y79300D02*
X96963Y79900D01*
X116884Y46316D02*
X116900Y46300D01*
X112638Y46316D02*
X116884D01*
X115082Y56218D02*
X115263Y56037D01*
X49837Y22426D02*
Y27000D01*
X55647Y82944D02*
Y89653D01*
X94486Y77423D02*
X96363Y79300D01*
X94032Y74086D02*
X94486D01*
X40700Y73400D02*
X41386Y74086D01*
X46788D01*
X2700Y82100D02*
Y86600D01*
X27000Y48900D02*
X31263D01*
X25421Y102021D02*
X25500Y102100D01*
X25421Y97271D02*
Y102021D01*
X60688Y28386D02*
Y30412D01*
X59583Y31517D02*
X60688Y30412D01*
X59583Y31517D02*
Y35700D01*
X85174Y31100D02*
Y35700D01*
X107400Y31900D02*
X108116Y32616D01*
X112638D01*
X108416Y46316D02*
X112638D01*
X5647Y92153D02*
X12429D01*
X5500Y92300D02*
X5647Y92153D01*
X1300Y55900D02*
X7300D01*
X133607Y115344D02*
Y120900D01*
X140300Y112137D02*
Y117357D01*
X23700Y48900D02*
X27000D01*
X50700Y89700D02*
X55600D01*
X49200Y88200D02*
X50700Y89700D01*
X49200Y80600D02*
Y88200D01*
Y79878D02*
Y80600D01*
X48000Y78678D02*
X49200Y79878D01*
X38222Y78678D02*
X48000D01*
X35000Y81900D02*
X38222Y78678D01*
X30253Y86247D02*
X34600Y81900D01*
X28571Y86247D02*
X30253D01*
X34600Y81900D02*
X35000D01*
X31986Y57286D02*
X35551D01*
X107500Y45400D02*
X108416Y46316D01*
X115082Y56218D02*
Y64354D01*
X112638Y32616D02*
X117483D01*
X94486Y74086D02*
Y77423D01*
X28571Y88216D02*
X30784D01*
X32600Y86400D01*
X37300D01*
X28571Y92153D02*
X31153D01*
X33600Y94600D01*
X38700D01*
X42000Y91300D01*
D14*
X14343Y73364D02*
G03*
X16900Y73678I1078J1793D01*
G01*
X6531Y72323D02*
G03*
X3785Y73461I-2746J-2746D01*
G01*
X15622Y72400D02*
G03*
X17383Y73618I0J1881D01*
G01*
X14765Y72400D02*
G03*
X17265Y73435I0J3535D01*
G01*
X17290Y72738D02*
G03*
X16318Y73224I-1072J-930D01*
G01*
X17290Y72738D02*
G03*
X16318Y73224I-1072J-930D01*
G01*
X26000Y13100D02*
Y16800D01*
Y12100D02*
Y13100D01*
X14000Y72400D02*
X15622D01*
X5941Y73461D02*
X7002Y72400D01*
X-2025Y73461D02*
X5941D01*
X132853Y10847D02*
X133900D01*
X105600Y12300D02*
X132447D01*
X133900Y10847D01*
X15622Y72400D02*
X16900Y73678D01*
D15*
X129397Y32781D02*
G03*
X131589Y33689I0J3101D01*
G01*
X128451Y31448D02*
G03*
X125629Y32616I-2822J-2822D01*
G01*
X129016Y32013D02*
G03*
X127560Y32616I-1456J-1456D01*
G01*
X130837Y35937D02*
G03*
X130052Y35511I0J-937D01*
G01*
Y36363D02*
G03*
X130837Y35937I785J511D01*
G01*
X129433Y36717D02*
G03*
X133000Y38100I217J4733D01*
G01*
X129396Y35918D02*
G03*
X131718Y36818I141J3081D01*
G01*
X125279Y35176D02*
G03*
X128451Y36489I0J4485D01*
G01*
X127210Y35176D02*
G03*
X129016Y35924I0J2554D01*
G01*
X29549Y84279D02*
G03*
X30240Y82609I2361J0D01*
G01*
X28749Y84279D02*
G03*
X28875Y83975I430J0D01*
G01*
X126206Y32462D02*
G03*
X125479Y32366I-248J-925D01*
G01*
X126032Y32616D02*
G03*
X125539Y32412I0J-698D01*
G01*
Y32821D02*
G03*
X126032Y32616I493J493D01*
G01*
X126038Y35379D02*
G03*
X125585Y35031I193J-721D01*
G01*
X126032Y35176D02*
G03*
X125539Y34971I0J-698D01*
G01*
Y35380D02*
G03*
X126032Y35176I493J493D01*
G01*
X188979Y62572D02*
G03*
X190985Y63403I0J2836D01*
G01*
Y61742D02*
G03*
X188979Y62572I-2005J-2005D01*
G01*
Y57651D02*
G03*
X190985Y58482I0J2836D01*
G01*
Y56820D02*
G03*
X188979Y57651I-2005J-2005D01*
G01*
X26803Y80997D02*
G03*
X27800Y80584I997J997D01*
G01*
X27216Y80000D02*
G03*
X26803Y80997I-1410J0D01*
G01*
X29603Y83247D02*
G03*
X30600Y82834I997J997D01*
G01*
X30016Y82250D02*
G03*
X29603Y83247I-1410J0D01*
G01*
X29622Y83681D02*
G03*
X30751Y82814I1611J930D01*
G01*
X30036Y82401D02*
G03*
X29940Y83130I-928J249D01*
G01*
X133000Y52280D02*
X136720Y56000D01*
X180300D01*
X133000Y38100D02*
Y52280D01*
X134400Y51700D02*
X137300Y54600D01*
X181300D01*
X134400Y36500D02*
Y51700D01*
X28571Y84279D02*
X30600Y82250D01*
X26671Y81129D02*
X27800Y80000D01*
X25421Y81129D02*
X26671D01*
X187400Y57651D02*
X192800D01*
X187351Y57700D02*
X187400Y57651D01*
X181300Y54600D02*
X184400Y57700D01*
X187351D01*
X129900Y32000D02*
X134400Y36500D01*
X129200Y32000D02*
X129900D01*
X186872Y62572D02*
X192800D01*
X180300Y56000D02*
X186872Y62572D01*
X130837Y35937D02*
X133000Y38100D01*
X129200Y35937D02*
X130837D01*
X128439Y35176D02*
X129200Y35937D01*
X129600Y35537D01*
X124055Y32616D02*
X128584D01*
X129200Y32000D01*
X124055Y35176D02*
X128439D01*
D16*
X142793Y1500D02*
G03*
X141246Y859I0J-2188D01*
G01*
Y2153D02*
G03*
X142824Y1500I1578J1578D01*
G01*
X140598D02*
X147863D01*
D17*
X31263Y48900D02*
D03*
X35200D02*
D03*
X31263Y53100D02*
D03*
X35200D02*
D03*
X148163Y1500D02*
D03*
X152100D02*
D03*
X59537Y89700D02*
D03*
X55600D02*
D03*
X36763Y73400D02*
D03*
X40700D02*
D03*
X26663Y73800D02*
D03*
X30600D02*
D03*
X25795Y57616D02*
D03*
X21858D02*
D03*
X35551Y57286D02*
D03*
X39488D02*
D03*
X35551Y61486D02*
D03*
X39488D02*
D03*
X101563Y70100D02*
D03*
X105500D02*
D03*
X85037Y90200D02*
D03*
X81100D02*
D03*
X96363Y79300D02*
D03*
X100300D02*
D03*
X49837Y27000D02*
D03*
X45900D02*
D03*
X49863Y22400D02*
D03*
X53800D02*
D03*
X101563Y74500D02*
D03*
X105500D02*
D03*
X56751Y28386D02*
D03*
X60688D02*
D03*
X96963Y97600D02*
D03*
X100900D02*
D03*
X114837Y97400D02*
D03*
X110900D02*
D03*
X6637Y86600D02*
D03*
X2700D02*
D03*
X6637Y82100D02*
D03*
X2700D02*
D03*
X41237Y86400D02*
D03*
X37300D02*
D03*
X29437Y102100D02*
D03*
X25500D02*
D03*
X34600Y107100D02*
D03*
X38537D02*
D03*
X158600Y62300D02*
D03*
X154663D02*
D03*
X150700D02*
D03*
X146763D02*
D03*
X168200Y68400D02*
D03*
X172137D02*
D03*
X119200Y70000D02*
D03*
X115263D02*
D03*
X155400Y94000D02*
D03*
X159337D02*
D03*
D18*
X140583Y40220D02*
D03*
X163417Y50457D02*
D03*
X140583D02*
D03*
Y47898D02*
D03*
Y45339D02*
D03*
Y42779D02*
D03*
X163417Y47898D02*
D03*
Y45339D02*
D03*
Y42779D02*
D03*
Y40220D02*
D03*
Y32543D02*
D03*
Y35102D02*
D03*
Y37661D02*
D03*
X140583Y35102D02*
D03*
Y37661D02*
D03*
Y32543D02*
D03*
D19*
X165389Y5900D02*
D03*
X177200D02*
D03*
X172389Y100600D02*
D03*
X184200D02*
D03*
X172489Y87100D02*
D03*
X184300D02*
D03*
D20*
X149500Y84861D02*
D03*
D21*
Y94900D02*
D03*
D22*
X140598Y1900D02*
D03*
X133600D02*
D03*
X12402Y103900D02*
D03*
X19400D02*
D03*
X7002Y72400D02*
D03*
X14000D02*
D03*
D23*
X92913Y24022D02*
D03*
X121613Y57522D02*
D03*
X102313Y21522D02*
D03*
X115213Y64222D02*
D03*
X187813Y5122D02*
D03*
X174016Y29947D02*
D03*
X155026Y20447D02*
D03*
X5626Y115347D02*
D03*
X163228Y112205D02*
D03*
X153228D02*
D03*
X133900Y20690D02*
D03*
D24*
X149868Y72400D02*
D03*
X141600D02*
D03*
D25*
X133607Y120900D02*
D03*
X146993D02*
D03*
X140300Y117357D02*
D03*
D26*
X192800Y57651D02*
D03*
Y62572D02*
D03*
Y92100D02*
D03*
Y87179D02*
D03*
Y82257D02*
D03*
Y77336D02*
D03*
Y72415D02*
D03*
Y67494D02*
D03*
D27*
X205398Y47612D02*
D03*
Y102139D02*
D03*
D28*
X-9800Y92800D02*
D03*
X7300Y55900D02*
D03*
D29*
X-2320Y92800D02*
D03*
X-6060Y102643D02*
D03*
X14780Y55900D02*
D03*
X11040Y65742D02*
D03*
D30*
X46788Y74086D02*
D03*
Y72117D02*
D03*
Y70149D02*
D03*
Y68180D02*
D03*
Y66212D02*
D03*
Y64243D02*
D03*
Y62275D02*
D03*
Y60306D02*
D03*
Y58338D02*
D03*
Y56369D02*
D03*
Y54401D02*
D03*
Y52432D02*
D03*
Y50464D02*
D03*
Y48495D02*
D03*
Y46527D02*
D03*
Y44558D02*
D03*
X94032D02*
D03*
Y46527D02*
D03*
Y48495D02*
D03*
Y50464D02*
D03*
Y52432D02*
D03*
Y54401D02*
D03*
Y56369D02*
D03*
Y58338D02*
D03*
Y60306D02*
D03*
Y62275D02*
D03*
Y64243D02*
D03*
Y66212D02*
D03*
Y68180D02*
D03*
Y70149D02*
D03*
Y72117D02*
D03*
Y74086D02*
D03*
D31*
X55647Y35700D02*
D03*
X57615D02*
D03*
X59583D02*
D03*
X61552D02*
D03*
X63520D02*
D03*
X65489D02*
D03*
X67457D02*
D03*
X69426D02*
D03*
X71394D02*
D03*
X73363D02*
D03*
X75331D02*
D03*
X77300D02*
D03*
X79268D02*
D03*
X81237D02*
D03*
X83205D02*
D03*
X85174D02*
D03*
Y82944D02*
D03*
X83205D02*
D03*
X81237D02*
D03*
X79268D02*
D03*
X77300D02*
D03*
X75331D02*
D03*
X73363D02*
D03*
X71394D02*
D03*
X69426D02*
D03*
X67457D02*
D03*
X65489D02*
D03*
X63520D02*
D03*
X61552D02*
D03*
X59583D02*
D03*
X57615D02*
D03*
X55647D02*
D03*
D32*
X124055Y37735D02*
D03*
Y35176D02*
D03*
Y32616D02*
D03*
Y30057D02*
D03*
X112638D02*
D03*
Y32616D02*
D03*
Y35176D02*
D03*
Y37735D02*
D03*
X124055Y51435D02*
D03*
Y48876D02*
D03*
Y46316D02*
D03*
Y43758D02*
D03*
X112638D02*
D03*
Y46316D02*
D03*
Y48876D02*
D03*
Y51435D02*
D03*
D33*
X15579Y97271D02*
D03*
Y81129D02*
D03*
X17547Y97271D02*
D03*
X19516D02*
D03*
X21484D02*
D03*
X23453D02*
D03*
X25421D02*
D03*
Y81129D02*
D03*
X23453D02*
D03*
X21484D02*
D03*
X19516D02*
D03*
X17547D02*
D03*
D34*
X28571Y92153D02*
D03*
Y88216D02*
D03*
X12429Y84279D02*
D03*
Y86247D02*
D03*
Y88216D02*
D03*
Y90184D02*
D03*
Y92153D02*
D03*
Y94121D02*
D03*
X28571D02*
D03*
Y90184D02*
D03*
Y86247D02*
D03*
Y84279D02*
D03*
D35*
X20500Y89200D02*
D03*
D36*
X163280Y81017D02*
D03*
X155800D02*
D03*
X159540D02*
D03*
Y69600D02*
D03*
X155800D02*
D03*
X163280D02*
D03*
D37*
X115082Y80800D02*
D03*
Y88240D02*
D03*
D38*
X125318D02*
D03*
Y84500D02*
D03*
Y80760D02*
D03*
D39*
X30520Y68714D02*
D03*
X21858D02*
D03*
Y62415D02*
D03*
X30520D02*
D03*
D40*
X80451Y17000D02*
D03*
X85372D02*
D03*
X114900D02*
D03*
X109979D02*
D03*
X105058D02*
D03*
X100136D02*
D03*
X95215D02*
D03*
X90294D02*
D03*
D41*
X70412Y4402D02*
D03*
X124939D02*
D03*
D42*
X133600Y115337D02*
D03*
Y111400D02*
D03*
X140300Y112137D02*
D03*
Y108200D02*
D03*
X129000Y49437D02*
D03*
Y45500D02*
D03*
X107500Y49537D02*
D03*
Y45600D02*
D03*
X69400Y89663D02*
D03*
Y93600D02*
D03*
X63488Y93723D02*
D03*
Y89786D02*
D03*
X39400Y53237D02*
D03*
Y49300D02*
D03*
X27000Y52837D02*
D03*
Y48900D02*
D03*
X129200Y35937D02*
D03*
Y32000D02*
D03*
X107400Y35837D02*
D03*
Y31900D02*
D03*
X77288Y25249D02*
D03*
Y29186D02*
D03*
X82288Y25249D02*
D03*
Y29186D02*
D03*
X87088Y25249D02*
D03*
Y29186D02*
D03*
X1100Y59637D02*
D03*
Y55700D02*
D03*
X-7000Y32137D02*
D03*
Y28200D02*
D03*
X-14800Y96737D02*
D03*
Y92800D02*
D03*
X-7000Y35863D02*
D03*
Y39800D02*
D03*
X182000Y40637D02*
D03*
Y36700D02*
D03*
X168000Y60700D02*
D03*
Y64637D02*
D03*
X163300Y60700D02*
D03*
Y64637D02*
D03*
X163800Y90000D02*
D03*
Y86063D02*
D03*
X130300Y86700D02*
D03*
Y82763D02*
D03*
D43*
X5500Y98599D02*
D03*
Y92300D02*
D03*
X163417Y21083D02*
D03*
Y27383D02*
D03*
X135100Y88900D02*
D03*
Y82601D02*
D03*
X140600Y88900D02*
D03*
Y82601D02*
D03*
D44*
X41299Y81900D02*
D03*
X35000D02*
D03*
X35701Y91300D02*
D03*
X42000D02*
D03*
X179001Y66900D02*
D03*
X185300D02*
D03*
X172501Y60600D02*
D03*
X178800D02*
D03*
X115400Y75400D02*
D03*
X121699D02*
D03*
D45*
X151800Y102200D02*
D03*
X162824D02*
D03*
D46*
X170400Y39800D02*
D03*
D47*
X33700Y111600D02*
D03*
D48*
Y119080D02*
D03*
X23857Y115340D02*
D03*
D49*
X142900Y22505D02*
D03*
Y10695D02*
D03*
D50*
X167850Y104350D02*
D03*
D51*
X172150Y82850D02*
D03*
D52*
X149800Y9650D02*
D03*
D53*
X159400Y17450D02*
D03*
D54*
X133550Y6600D02*
D03*
D55*
X102550Y12500D02*
D03*
D56*
X167150Y92000D02*
D03*
D57*
X159550Y84650D02*
D03*
D58*
X181500Y75000D02*
D03*
D59*
X200300Y72250D02*
D03*
D60*
X149850Y77750D02*
D03*
D61*
X151950Y80900D02*
D03*
D62*
X165750Y66500D02*
D03*
D63*
X136150Y82150D02*
D03*
D64*
X140750Y74650D02*
D03*
D65*
X127300Y80300D02*
D03*
D66*
X132650Y88950D02*
D03*
D67*
X-14700Y44000D02*
D03*
Y34000D02*
D03*
Y24000D02*
D03*
X600Y43900D02*
D03*
Y33900D02*
D03*
Y23900D02*
D03*
D68*
X-11600Y6900D02*
D03*
X203000D02*
D03*
X-11600Y115200D02*
D03*
X203000D02*
D03*
D69*
X174016Y19947D02*
D03*
X155026Y10447D02*
D03*
X133900Y10847D02*
D03*
D70*
X15626Y115347D02*
D03*
X173228Y112205D02*
D03*
D71*
X82100Y94600D02*
D03*
X79300Y97500D02*
D03*
X173300Y64600D02*
D03*
X159700Y73700D02*
D03*
X156100D02*
D03*
X103100Y33400D02*
D03*
X103000Y35600D02*
D03*
X9100Y15500D02*
D03*
X35800Y11900D02*
D03*
X21800Y120800D02*
D03*
X-1200Y109900D02*
D03*
X-1000Y120700D02*
D03*
X54000Y117300D02*
D03*
X49400Y117400D02*
D03*
X58600Y117200D02*
D03*
X45900Y87000D02*
D03*
X56700Y100500D02*
D03*
X63600Y117300D02*
D03*
X59537Y91937D02*
D03*
X107200Y73200D02*
D03*
X100600Y83000D02*
D03*
Y85900D02*
D03*
Y89100D02*
D03*
X127500Y85300D02*
D03*
X129400Y90400D02*
D03*
X145800Y106000D02*
D03*
X155600Y87600D02*
D03*
X155500Y90300D02*
D03*
X153600Y46100D02*
D03*
X123600Y40500D02*
D03*
X84800Y72700D02*
D03*
X80300D02*
D03*
X75400Y72900D02*
D03*
X57600Y40600D02*
D03*
X57100Y24900D02*
D03*
X106800Y51000D02*
D03*
X114800Y92700D02*
D03*
X145300Y116400D02*
D03*
X89600Y29400D02*
D03*
X69300Y95400D02*
D03*
X49200Y80600D02*
D03*
X52500Y74100D02*
D03*
X63800Y29100D02*
D03*
X51400D02*
D03*
X116200Y32600D02*
D03*
X117300Y32800D02*
D03*
X2800Y78600D02*
D03*
X51900Y110200D02*
D03*
X23700Y103900D02*
D03*
X31986Y57214D02*
D03*
X55600Y92900D02*
D03*
X75500Y103900D02*
D03*
Y95500D02*
D03*
X179000Y63200D02*
D03*
D03*
X178200Y63700D02*
D03*
X178300Y40637D02*
D03*
X177500Y41100D02*
D03*
X105350Y107850D02*
D03*
X105800Y108300D02*
D03*
X105900Y109500D02*
D03*
X16900Y72400D02*
D03*
Y73800D02*
D03*
X26000Y13100D02*
D03*
Y12100D02*
D03*
X146100Y45300D02*
D03*
Y50500D02*
D03*
X59500Y77700D02*
D03*
X63000Y77600D02*
D03*
X198300Y68600D02*
D03*
X202700Y68500D02*
D03*
X206700Y68600D02*
D03*
X206600Y72900D02*
D03*
X202700D02*
D03*
X198400Y73000D02*
D03*
X206600Y76600D02*
D03*
X202600Y76500D02*
D03*
X198400D02*
D03*
X88200Y53900D02*
D03*
X87600Y57900D02*
D03*
X88400Y61600D02*
D03*
X99200Y57000D02*
D03*
Y60100D02*
D03*
X41000Y104500D02*
D03*
X30600Y82250D02*
D03*
X27800Y80000D02*
D03*
X108821Y97421D02*
D03*
X103400Y97400D02*
D03*
X99000Y63600D02*
D03*
X137200Y108200D02*
D03*
X133600D02*
D03*
X109979Y20979D02*
D03*
X114900Y20900D02*
D03*
X131000Y45500D02*
D03*
Y49400D02*
D03*
X10300Y97800D02*
D03*
Y81400D02*
D03*
X-6100Y52100D02*
D03*
X-3800Y55000D02*
D03*
X69000Y117200D02*
D03*
X24200Y72700D02*
D03*
X26300Y62200D02*
D03*
X18100Y53400D02*
D03*
X49900Y41000D02*
D03*
X51100Y37800D02*
D03*
X40700Y43300D02*
D03*
X4900Y60400D02*
D03*
X23700Y48900D02*
D03*
X40700Y69900D02*
D03*
X46600Y91800D02*
D03*
X36800Y100000D02*
D03*
X36400Y69600D02*
D03*
X78800Y5900D02*
D03*
X85600Y5700D02*
D03*
X93700Y5500D02*
D03*
X16200Y4300D02*
D03*
X26000Y4000D02*
D03*
X36500Y3900D02*
D03*
X81300Y110700D02*
D03*
X-16700Y76800D02*
D03*
X-16800Y66800D02*
D03*
X-17200Y104300D02*
D03*
X94700Y117000D02*
D03*
X105300Y116900D02*
D03*
X115600Y116700D02*
D03*
X154400Y120600D02*
D03*
X174500Y120500D02*
D03*
X191300Y120800D02*
D03*
X184500Y110900D02*
D03*
X184400Y115900D02*
D03*
Y120800D02*
D03*
X191500Y115900D02*
D03*
X191700Y110900D02*
D03*
X191800Y101300D02*
D03*
X198900Y92000D02*
D03*
X203800D02*
D03*
X208500D02*
D03*
X199100Y87200D02*
D03*
X203900Y87100D02*
D03*
X208600Y87000D02*
D03*
X199300Y82200D02*
D03*
X204000Y81900D02*
D03*
X208600Y82000D02*
D03*
X198600Y57800D02*
D03*
X207400Y57400D02*
D03*
X207100Y49600D02*
D03*
X202800Y53600D02*
D03*
X189300Y51200D02*
D03*
X183900D02*
D03*
X207700Y39600D02*
D03*
X186600Y22200D02*
D03*
X194800Y21900D02*
D03*
X203100Y21700D02*
D03*
X193300Y1000D02*
D03*
X181000Y14100D02*
D03*
X157400Y1300D02*
D03*
X155200Y28000D02*
D03*
X146200Y28400D02*
D03*
X153800Y39200D02*
D03*
Y33400D02*
D03*
X163600Y73700D02*
D03*
X143600Y92700D02*
D03*
X145700Y101000D02*
D03*
X137900Y92700D02*
D03*
X132100Y93000D02*
D03*
X138100Y97000D02*
D03*
X138300Y102500D02*
D03*
X142300Y97000D02*
D03*
X134000Y97100D02*
D03*
X159700Y76400D02*
D03*
X163600Y76600D02*
D03*
X125500Y69900D02*
D03*
X125400Y64600D02*
D03*
X128000Y56700D02*
D03*
X106400Y57300D02*
D03*
Y64300D02*
D03*
X123200Y53300D02*
D03*
X121400Y64400D02*
D03*
X59200Y67600D02*
D03*
Y61400D02*
D03*
X59300Y55100D02*
D03*
X59400Y48300D02*
D03*
X67300Y48000D02*
D03*
X67400Y55100D02*
D03*
X67300Y61300D02*
D03*
Y67500D02*
D03*
X75500D02*
D03*
X75400Y61500D02*
D03*
X75300Y55100D02*
D03*
X75500Y48000D02*
D03*
X67600Y41600D02*
D03*
X85000Y67900D02*
D03*
X91800Y89600D02*
D03*
X91700Y83200D02*
D03*
X92300Y102000D02*
D03*
X58200Y3900D02*
D03*
X58100Y11700D02*
D03*
X64800Y17600D02*
D03*
X70100Y23000D02*
D03*
X-1200Y900D02*
D03*
X-1300Y8200D02*
D03*
X-6900Y21000D02*
D03*
Y16200D02*
D03*
X600Y97900D02*
D03*
X141900Y62200D02*
D03*
X131300Y64200D02*
D03*
X131400Y69900D02*
D03*
X198900Y49600D02*
D03*
D72*
X99900Y50800D02*
D03*
D73*
X99400Y12200D02*
D03*
X102600D02*
D03*
X105600Y12300D02*
D03*
X99500Y9500D02*
D03*
X102700D02*
D03*
X105700D02*
D03*
X102900Y6600D02*
D03*
X105800D02*
D03*
X99600D02*
D03*
D74*
X130300Y78200D02*
D03*
M02*
