%FSLAX25Y25*%
%MOIN*%
G70*
G01*
G75*
G04 Layer_Physical_Order=2*
G04 Layer_Color=16711680*
%ADD10C,0.02000*%
%ADD11C,0.01500*%
%ADD12C,0.00600*%
%ADD13C,0.01000*%
%ADD14C,0.03000*%
%ADD15C,0.00800*%
%ADD16C,0.02500*%
%ADD17R,0.02362X0.02756*%
%ADD18O,0.05906X0.01575*%
%ADD19R,0.06299X0.10630*%
%ADD20R,0.05512X0.08661*%
%ADD21R,0.05512X0.03543*%
%ADD22R,0.04331X0.05118*%
%ADD23C,0.05906*%
%ADD24R,0.03937X0.12205*%
%ADD25R,0.03937X0.03937*%
%ADD26R,0.05118X0.03150*%
%ADD27R,0.11024X0.08268*%
%ADD28R,0.03543X0.03740*%
%ADD29R,0.03543X0.03740*%
%ADD30O,0.05906X0.00984*%
%ADD31O,0.00984X0.05906*%
%ADD32R,0.03937X0.01378*%
%ADD33O,0.00984X0.02756*%
%ADD34O,0.02756X0.00984*%
%ADD35R,0.10236X0.10630*%
%ADD36R,0.02362X0.03150*%
%ADD37R,0.03150X0.03150*%
%ADD38R,0.03150X0.02362*%
%ADD39R,0.04331X0.03937*%
%ADD40R,0.03150X0.05118*%
%ADD41R,0.08268X0.11024*%
%ADD42R,0.02756X0.02362*%
%ADD43R,0.03500X0.02800*%
%ADD44R,0.02800X0.03500*%
%ADD45R,0.05512X0.06693*%
%ADD46C,0.04724*%
%ADD47R,0.03740X0.03543*%
%ADD48R,0.03740X0.03543*%
%ADD49R,0.07087X0.06299*%
%ADD50R,0.17500X0.26100*%
%ADD51R,0.08900X0.23700*%
%ADD52R,0.37800X0.08900*%
%ADD53R,0.18600X0.12500*%
%ADD54R,0.05300X0.15000*%
%ADD55R,0.08700X0.14600*%
%ADD56R,0.18300X0.06800*%
%ADD57R,0.03100X0.10500*%
%ADD58R,0.27600X0.08000*%
%ADD59R,0.20600X0.13700*%
%ADD60R,0.06700X0.23500*%
%ADD61R,0.10900X0.06800*%
%ADD62R,0.07900X0.07000*%
%ADD63R,0.14900X0.03900*%
%ADD64R,0.05900X0.18900*%
%ADD65R,0.06800X0.03800*%
%ADD66R,0.08500X0.03500*%
%ADD67C,0.07087*%
%ADD68C,0.15748*%
%ADD69R,0.05906X0.05906*%
%ADD70R,0.05906X0.05906*%
%ADD71C,0.01969*%
%ADD72C,0.01575*%
%ADD73C,0.02559*%
%ADD74C,0.02362*%
G04:AMPARAMS|DCode=75|XSize=157.48mil|YSize=118.11mil|CornerRadius=0mil|HoleSize=0mil|Usage=FLASHONLY|Rotation=0.000|XOffset=0mil|YOffset=0mil|HoleType=Round|Shape=Octagon|*
%AMOCTAGOND75*
4,1,8,0.07874,-0.02953,0.07874,0.02953,0.04921,0.05906,-0.04921,0.05906,-0.07874,0.02953,-0.07874,-0.02953,-0.04921,-0.05906,0.04921,-0.05906,0.07874,-0.02953,0.0*
%
%ADD75OCTAGOND75*%

%ADD76O,0.15748X0.11811*%
%ADD77R,0.62400X0.08800*%
%ADD78R,0.10500X0.18500*%
G36*
X198182Y122460D02*
X198158Y122447D01*
X196837Y121363D01*
X195753Y120042D01*
X194948Y118535D01*
X194451Y116900D01*
X194284Y115200D01*
X194451Y113500D01*
X194948Y111864D01*
X195753Y110358D01*
X196837Y109037D01*
X198158Y107953D01*
X199664Y107148D01*
X201300Y106651D01*
X203000Y106484D01*
X204700Y106651D01*
X206335Y107148D01*
X207842Y107953D01*
X209163Y109037D01*
X210247Y110358D01*
X210256Y110373D01*
X210741Y110252D01*
Y76539D01*
X210279Y76348D01*
X208021Y78606D01*
X197379D01*
X194026Y75253D01*
Y68547D01*
X197379Y65194D01*
X208021D01*
X210279Y67452D01*
X210741Y67260D01*
Y11848D01*
X210256Y11727D01*
X210247Y11742D01*
X209163Y13063D01*
X207842Y14147D01*
X206335Y14953D01*
X204700Y15449D01*
X203000Y15616D01*
X201300Y15449D01*
X199664Y14953D01*
X198158Y14147D01*
X196837Y13063D01*
X195753Y11742D01*
X194948Y10236D01*
X194451Y8600D01*
X194284Y6900D01*
X194451Y5200D01*
X194948Y3565D01*
X195753Y2058D01*
X196837Y737D01*
X198158Y-347D01*
X198281Y-413D01*
X198159Y-898D01*
X-6759D01*
X-6881Y-413D01*
X-6758Y-347D01*
X-5437Y737D01*
X-4353Y2058D01*
X-3548Y3565D01*
X-3052Y5200D01*
X-2884Y6900D01*
X-3052Y8600D01*
X-3548Y10236D01*
X-4353Y11742D01*
X-5437Y13063D01*
X-6758Y14147D01*
X-8264Y14953D01*
X-9900Y15449D01*
X-11600Y15616D01*
X-13300Y15449D01*
X-14935Y14953D01*
X-16442Y14147D01*
X-17763Y13063D01*
X-18847Y11742D01*
X-18917Y11612D01*
X-19402Y11733D01*
Y22720D01*
X-18912Y22818D01*
X-18494Y21810D01*
X-17798Y20902D01*
X-16890Y20206D01*
X-15834Y19769D01*
X-14700Y19619D01*
X-13566Y19769D01*
X-12510Y20206D01*
X-11602Y20902D01*
X-10906Y21810D01*
X-10469Y22866D01*
X-10319Y24000D01*
X-10330Y24086D01*
X-10210Y25310D01*
X-9828Y26569D01*
X-9208Y27729D01*
X-8456Y28646D01*
X-8355Y28728D01*
X-8370Y28744D01*
X-8370Y28744D01*
X-7350Y29764D01*
X-6850D01*
X-5730Y28644D01*
X-5745Y28628D01*
X-5745Y28628D01*
X-5644Y28546D01*
X-4892Y27629D01*
X-4272Y26469D01*
X-3890Y25210D01*
X-3769Y23986D01*
X-3781Y23900D01*
X-3632Y22766D01*
X-3194Y21710D01*
X-2498Y20802D01*
X-1590Y20106D01*
X-534Y19669D01*
X600Y19519D01*
X1734Y19669D01*
X2790Y20106D01*
X3698Y20802D01*
X4394Y21710D01*
X4831Y22766D01*
X4981Y23900D01*
X4831Y25034D01*
X4394Y26090D01*
X4790Y26394D01*
X20742Y10442D01*
X20742Y10442D01*
X21250Y10102D01*
X21503Y9933D01*
X22400Y9755D01*
X22400Y9755D01*
X26000D01*
X26897Y9933D01*
X27658Y10442D01*
X28167Y11203D01*
X28192Y11330D01*
X28531Y11838D01*
X28710Y12735D01*
X28531Y13633D01*
X28023Y14393D01*
X27262Y14902D01*
X26365Y15080D01*
X25467Y14902D01*
X24785Y14446D01*
X24783Y14445D01*
X23371D01*
X5746Y32070D01*
D01*
X5746Y32070D01*
X5746Y32070D01*
X5653Y32163D01*
X5320Y32597D01*
X5060Y33226D01*
X4976Y33863D01*
X4981Y33900D01*
X4988D01*
X4966Y34013D01*
X4831Y35034D01*
X4394Y36090D01*
X3698Y36998D01*
X2790Y37694D01*
X1734Y38131D01*
X600Y38281D01*
X-534Y38131D01*
X-1590Y37694D01*
X-2498Y36998D01*
X-3194Y36090D01*
X-3632Y35034D01*
X-3781Y33900D01*
X-3632Y32766D01*
X-3194Y31710D01*
X-2498Y30802D01*
X-1590Y30106D01*
X-534Y29669D01*
X487Y29534D01*
X600Y29512D01*
Y29519D01*
X637Y29524D01*
X1274Y29440D01*
X1903Y29180D01*
X2337Y28847D01*
X2430Y28754D01*
D01*
X2430Y28754D01*
X2430D01*
X2430Y28754D01*
X2430D01*
Y28754D01*
X2430Y28754D01*
Y28754D01*
D01*
D01*
X2430D01*
Y28754D01*
X3094Y28090D01*
X2790Y27694D01*
X1734Y28131D01*
X600Y28281D01*
X514Y28269D01*
X-709Y28390D01*
X-1969Y28772D01*
X-3129Y29392D01*
X-4046Y30144D01*
X-4128Y30245D01*
X-4128Y30245D01*
X-4144Y30230D01*
X-5579Y31665D01*
Y45635D01*
X-3935Y47278D01*
X3235D01*
X11507Y39007D01*
X11507Y39007D01*
X11871Y38764D01*
X11871Y38764D01*
X11871Y38764D01*
D01*
X11871Y38764D01*
X11871Y38764D01*
X12300Y38678D01*
X12300Y38678D01*
X46135D01*
X47807Y37007D01*
X47807Y37007D01*
X48171Y36764D01*
X48171Y36764D01*
X48171Y36764D01*
D01*
X48171Y36764D01*
X48171Y36764D01*
X48600Y36678D01*
X48600Y36678D01*
X49448D01*
Y36676D01*
X49465Y36678D01*
X49479D01*
X49789Y36550D01*
X49814Y36514D01*
X50404Y36119D01*
X51100Y35981D01*
X51796Y36119D01*
X52386Y36514D01*
X52781Y37104D01*
X52919Y37800D01*
X52781Y38496D01*
X52386Y39086D01*
X51796Y39481D01*
X51100Y39619D01*
X51186Y39714D01*
X51186Y39714D01*
X51581Y40304D01*
X51719Y41000D01*
X51581Y41696D01*
X51186Y42286D01*
X50596Y42681D01*
X49900Y42819D01*
X49204Y42681D01*
X48614Y42286D01*
X48589Y42250D01*
X48279Y42122D01*
X48265D01*
X48248Y42124D01*
Y42122D01*
X42589D01*
X42353Y42562D01*
X42381Y42604D01*
X42519Y43300D01*
X42381Y43996D01*
X41986Y44586D01*
X41396Y44981D01*
X40700Y45119D01*
X40004Y44981D01*
X39414Y44586D01*
X39019Y43996D01*
X38885Y43322D01*
X13759D01*
X6022Y51059D01*
Y58748D01*
X6024D01*
X6022Y58765D01*
Y58779D01*
X6150Y59089D01*
X6186Y59114D01*
X6581Y59704D01*
X6719Y60400D01*
X6581Y61096D01*
X6186Y61686D01*
X5596Y62081D01*
X4900Y62219D01*
X4204Y62081D01*
X3614Y61686D01*
X3219Y61096D01*
X3081Y60400D01*
X3219Y59704D01*
X3614Y59114D01*
X3650Y59089D01*
X3779Y58779D01*
Y58765D01*
X3776Y58748D01*
X3779D01*
Y50722D01*
X-4897D01*
X-5326Y50636D01*
X-5690Y50393D01*
X-5690Y50393D01*
X-7758Y48325D01*
X-8220Y48517D01*
Y69045D01*
X-4859Y72406D01*
X12642D01*
X13648Y72274D01*
X14714Y71832D01*
X15575Y71172D01*
X15614Y71114D01*
X16204Y70719D01*
X16900Y70581D01*
X17128Y70626D01*
X17842Y70331D01*
X18822Y70201D01*
X19802Y70331D01*
X20715Y70709D01*
X21498Y71310D01*
X22100Y72094D01*
X22478Y73007D01*
X22607Y73987D01*
X22591Y74107D01*
X22760Y75821D01*
X23295Y77584D01*
X24164Y79210D01*
X25167Y80432D01*
X25707Y80972D01*
X26119Y80696D01*
X25981Y80000D01*
X26119Y79304D01*
X26514Y78714D01*
X27104Y78319D01*
X27295Y78281D01*
D01*
D01*
D01*
D01*
X27326Y78230D01*
Y78230D01*
Y78230D01*
Y78230D01*
X27326Y78230D01*
X27424Y78154D01*
D01*
X27424Y78154D01*
D01*
X27455Y78140D01*
X27543Y77698D01*
X27417Y77065D01*
X27417Y77065D01*
X27417Y77065D01*
X27431Y77035D01*
X27357Y76858D01*
X27228Y75878D01*
X27357Y74898D01*
X27735Y73985D01*
X28337Y73202D01*
X29121Y72600D01*
X30034Y72222D01*
X31013Y72093D01*
X31993Y72222D01*
X32906Y72600D01*
X33690Y73202D01*
X34291Y73985D01*
X34670Y74898D01*
X34798Y75878D01*
X34670Y76858D01*
X34291Y77771D01*
X33690Y78554D01*
X32906Y79156D01*
X31993Y79534D01*
X31013Y79663D01*
X30991Y79660D01*
X30303Y79751D01*
X30147Y79815D01*
X30123Y79851D01*
X29860Y80028D01*
X29883Y80067D01*
X29871Y80076D01*
X29974Y80325D01*
X30239Y80502D01*
X30600Y80430D01*
X31296Y80569D01*
X31457Y80677D01*
X31516Y80663D01*
X31516Y80663D01*
X31516Y80663D01*
X31638Y80713D01*
X31667Y80701D01*
X31906Y80541D01*
X31937Y80502D01*
X32721Y79900D01*
X33634Y79522D01*
X34613Y79393D01*
X35593Y79522D01*
X36506Y79900D01*
X37290Y80502D01*
X37891Y81285D01*
X38269Y82198D01*
X38399Y83178D01*
X38269Y84158D01*
X37891Y85071D01*
X37290Y85854D01*
X36506Y86456D01*
X35593Y86834D01*
X34613Y86963D01*
X33634Y86834D01*
X32721Y86456D01*
X31937Y85854D01*
X31335Y85071D01*
X30957Y84158D01*
X30783Y84032D01*
X30600Y84069D01*
X29904Y83930D01*
X29314Y83536D01*
X28919Y82946D01*
X28781Y82250D01*
X28803Y82139D01*
X28562Y81779D01*
X28469Y81686D01*
X27800Y81819D01*
X27104Y81681D01*
X26828Y82093D01*
X31618Y86883D01*
X31960Y87395D01*
X32080Y88000D01*
Y105595D01*
X32755Y106270D01*
X39576D01*
X39721Y105791D01*
X39714Y105786D01*
X39319Y105196D01*
X39181Y104500D01*
X39319Y103804D01*
X39714Y103214D01*
X40304Y102819D01*
X41000Y102681D01*
X41696Y102819D01*
X42286Y103214D01*
X42311Y103250D01*
X42621Y103378D01*
X42635D01*
X42652Y103376D01*
Y103378D01*
X50235D01*
X51378Y102235D01*
Y81345D01*
X50881Y81296D01*
X50486Y81886D01*
X49896Y82281D01*
X49200Y82419D01*
X48504Y82281D01*
X47914Y81886D01*
X47519Y81296D01*
X47381Y80600D01*
X47519Y79904D01*
X47835Y79431D01*
X47835Y79431D01*
X47835D01*
X47875Y79336D01*
Y78949D01*
X40657Y71731D01*
X40562Y71692D01*
X40562Y71692D01*
X40562Y71692D01*
X40004Y71581D01*
X39414Y71186D01*
X39019Y70596D01*
X38881Y69900D01*
X39019Y69204D01*
X39335Y68731D01*
X39335Y68731D01*
X39335D01*
X39375Y68636D01*
Y66449D01*
X31981Y59056D01*
X31900Y59022D01*
X31900Y59022D01*
X31898Y59016D01*
X31290Y58895D01*
X30699Y58501D01*
X30305Y57910D01*
X30184Y57302D01*
X30178Y57300D01*
X30178Y57300D01*
X30144Y57219D01*
X23657Y50731D01*
X23562Y50692D01*
X23562Y50692D01*
X23562Y50692D01*
X23004Y50581D01*
X22414Y50186D01*
X22019Y49596D01*
X21881Y48900D01*
X22019Y48204D01*
X22414Y47614D01*
X23004Y47219D01*
X23700Y47081D01*
X24396Y47219D01*
X24986Y47614D01*
X25381Y48204D01*
X25492Y48761D01*
X25492Y48761D01*
X25492Y48761D01*
X25531Y48857D01*
X32068Y55393D01*
X32080Y55398D01*
X32093Y55385D01*
X32111Y55411D01*
X32151Y55428D01*
X32682Y55533D01*
X33272Y55928D01*
X33667Y56518D01*
X33772Y57049D01*
X33789Y57089D01*
X33815Y57107D01*
X33802Y57120D01*
X33806Y57132D01*
X41637Y64963D01*
X41925Y65393D01*
X42026Y65900D01*
Y68636D01*
X42065Y68731D01*
X42065Y68731D01*
X42065Y68731D01*
X42065Y68731D01*
X42381Y69204D01*
X42492Y69762D01*
X42492Y69762D01*
X42492Y69762D01*
X42531Y69857D01*
X50137Y77463D01*
X50425Y77893D01*
X50525Y78400D01*
Y79336D01*
X50565Y79431D01*
X50565Y79431D01*
X50565Y79431D01*
X50565Y79431D01*
X50881Y79904D01*
X51378Y79855D01*
Y75752D01*
X51376D01*
X51378Y75735D01*
Y75721D01*
X51250Y75411D01*
X51214Y75386D01*
X50819Y74796D01*
X50681Y74100D01*
X50819Y73404D01*
X51214Y72814D01*
X51804Y72419D01*
X52500Y72281D01*
X53196Y72419D01*
X53786Y72814D01*
X54181Y73404D01*
X54319Y74100D01*
X54181Y74796D01*
X53786Y75386D01*
X53750Y75411D01*
X53622Y75721D01*
Y75735D01*
X53624Y75752D01*
X53622D01*
Y91788D01*
X54100Y91933D01*
X54314Y91614D01*
X54904Y91219D01*
X55600Y91081D01*
X56296Y91219D01*
X56886Y91614D01*
X57281Y92204D01*
X57392Y92761D01*
X57392Y92761D01*
X57392Y92761D01*
X57431Y92857D01*
X58649Y94074D01*
X68036D01*
X68057Y94066D01*
X68598Y93704D01*
X69300Y93565D01*
X69803Y93665D01*
X75500D01*
X76202Y93804D01*
X76798Y94202D01*
X77196Y94798D01*
X77335Y95500D01*
Y103900D01*
X77196Y104602D01*
X76798Y105198D01*
X76202Y105596D01*
X75500Y105735D01*
X74798Y105596D01*
X74202Y105198D01*
X73804Y104602D01*
X73665Y103900D01*
Y97335D01*
X69400D01*
X68814Y97219D01*
X68698Y97196D01*
X68102Y96798D01*
X68030Y96725D01*
X58100D01*
X57593Y96625D01*
X57163Y96337D01*
X55557Y94731D01*
X55462Y94692D01*
X55462Y94692D01*
X55462Y94692D01*
X54904Y94581D01*
X54314Y94186D01*
X54100Y93867D01*
X53622Y94012D01*
Y102700D01*
X53536Y103129D01*
X53293Y103493D01*
X53293Y103493D01*
X51493Y105293D01*
X51129Y105536D01*
X50700Y105622D01*
X50700Y105622D01*
X42652D01*
Y105624D01*
X42635Y105622D01*
X42621D01*
X42311Y105750D01*
X42286Y105786D01*
X41780Y106124D01*
X41780Y106124D01*
X41780D01*
X41696Y106181D01*
Y106181D01*
X41705Y106270D01*
X104148D01*
Y106269D01*
X104157Y106270D01*
X104504D01*
X104654Y106169D01*
X105350Y106031D01*
X106046Y106169D01*
X106636Y106564D01*
X106817Y106833D01*
X107086Y107014D01*
X107481Y107604D01*
X107619Y108300D01*
X107533Y108733D01*
X107581Y108804D01*
X107719Y109500D01*
X107581Y110196D01*
X107186Y110786D01*
X106596Y111181D01*
X105900Y111319D01*
X105204Y111181D01*
X104614Y110786D01*
X104219Y110196D01*
X104081Y109500D01*
X104024Y109430D01*
X53976D01*
X53659Y109817D01*
X53735Y110200D01*
X53596Y110902D01*
X53198Y111498D01*
X52602Y111896D01*
X51900Y112035D01*
X26100D01*
X25514Y111919D01*
X25398Y111896D01*
X24802Y111498D01*
X22402Y109098D01*
X22004Y108502D01*
X21981Y108386D01*
X21865Y107800D01*
Y103900D01*
X22004Y103198D01*
X22402Y102602D01*
X22998Y102204D01*
X23636Y102078D01*
X23657Y102069D01*
X27325Y98401D01*
Y89315D01*
X17935Y79926D01*
X4064D01*
X3969Y79965D01*
X3969Y79965D01*
X3969Y79965D01*
X3496Y80281D01*
X2800Y80419D01*
X2104Y80281D01*
X1514Y79886D01*
X1119Y79296D01*
X981Y78600D01*
X1119Y77904D01*
X1514Y77314D01*
X2104Y76919D01*
X2800Y76781D01*
X3496Y76919D01*
X3969Y77235D01*
X3969Y77235D01*
Y77235D01*
X4064Y77275D01*
X16165D01*
X16325Y76801D01*
X16146Y76663D01*
X16112Y76619D01*
X15379Y76057D01*
X15318Y76032D01*
X14895Y75976D01*
Y75976D01*
X14882Y75954D01*
X14689Y75916D01*
X14307Y75660D01*
X13599Y75567D01*
X13533D01*
X13504Y75570D01*
Y75567D01*
X12566D01*
X12504Y75573D01*
Y75567D01*
X-5513D01*
X-6118Y75447D01*
X-6631Y75104D01*
X-10917Y70818D01*
X-11260Y70305D01*
X-11380Y69700D01*
Y39601D01*
X-12106Y39044D01*
X-13357Y38526D01*
X-14579Y38365D01*
X-14700Y38381D01*
X-15834Y38232D01*
X-16890Y37794D01*
X-17798Y37098D01*
X-18494Y36190D01*
X-18912Y35182D01*
X-19402Y35280D01*
Y110367D01*
X-18917Y110488D01*
X-18847Y110358D01*
X-17763Y109037D01*
X-16442Y107953D01*
X-14935Y107148D01*
X-13300Y106651D01*
X-11600Y106484D01*
X-9900Y106651D01*
X-8264Y107148D01*
X-6758Y107953D01*
X-5437Y109037D01*
X-4353Y110358D01*
X-3548Y111864D01*
X-3052Y113500D01*
X-2884Y115200D01*
X-3052Y116900D01*
X-3548Y118535D01*
X-4353Y120042D01*
X-5437Y121363D01*
X-6758Y122447D01*
X-6782Y122460D01*
X-6661Y122945D01*
X198061D01*
X198182Y122460D01*
D02*
G37*
%LPC*%
G36*
X178200Y65519D02*
X177504Y65381D01*
X176914Y64986D01*
X176519Y64396D01*
X176381Y63700D01*
X176519Y63004D01*
X176720Y62704D01*
Y61009D01*
X176711Y60944D01*
X176720D01*
Y43529D01*
X176602Y42935D01*
X176252Y42412D01*
X176214Y42386D01*
X175819Y41796D01*
X175681Y41100D01*
X175819Y40404D01*
X176214Y39814D01*
X176804Y39419D01*
X176993Y39382D01*
X177014Y39351D01*
X177604Y38956D01*
X178300Y38818D01*
X178996Y38956D01*
X179586Y39351D01*
X179981Y39941D01*
X180119Y40637D01*
X179981Y41333D01*
X179880Y41483D01*
Y43510D01*
X179892Y43597D01*
X179880D01*
Y60979D01*
X179940Y61280D01*
X179985Y61347D01*
X180004Y61337D01*
X180194Y61796D01*
X180262Y61897D01*
X180286Y61914D01*
X180681Y62504D01*
X180819Y63200D01*
X180681Y63896D01*
X180286Y64486D01*
X179696Y64881D01*
X179536Y64913D01*
X179486Y64986D01*
X178896Y65381D01*
X178200Y65519D01*
D02*
G37*
G36*
X130300Y80220D02*
X129527Y80066D01*
X128872Y79628D01*
X128434Y78973D01*
X128280Y78200D01*
X128400Y77595D01*
X128361Y77570D01*
X128328Y77519D01*
X128245Y77455D01*
X127738Y76795D01*
X127419Y76025D01*
X127311Y75200D01*
X127419Y74375D01*
X127738Y73605D01*
X128245Y72945D01*
X128905Y72438D01*
X129674Y72119D01*
X130500Y72010D01*
X131325Y72119D01*
X132095Y72438D01*
X132755Y72945D01*
X133262Y73605D01*
X133581Y74375D01*
X133689Y75200D01*
X133581Y76025D01*
X133262Y76795D01*
X132755Y77455D01*
X132672Y77519D01*
X132639Y77570D01*
X132481Y77675D01*
X132474Y77717D01*
Y77717D01*
X132431Y77735D01*
X132335Y77967D01*
Y78000D01*
X132308Y78139D01*
X132320Y78200D01*
X132166Y78973D01*
X131728Y79628D01*
X131073Y80066D01*
X130300Y80220D01*
D02*
G37*
G36*
X160600Y24516D02*
X150100D01*
X149788Y24454D01*
X149523Y24277D01*
X149346Y24012D01*
X149284Y23700D01*
Y14816D01*
X98200D01*
X97888Y14754D01*
X97623Y14577D01*
X97446Y14312D01*
X97384Y14000D01*
Y12726D01*
X97280Y12200D01*
X97384Y11674D01*
Y9523D01*
X97380Y9500D01*
X97384Y9477D01*
Y5200D01*
X97446Y4888D01*
X97623Y4623D01*
X97888Y4446D01*
X98200Y4384D01*
X160600D01*
X160912Y4446D01*
X161177Y4623D01*
X161354Y4888D01*
X161416Y5200D01*
Y14000D01*
Y23700D01*
X161354Y24012D01*
X161177Y24277D01*
X160912Y24454D01*
X160600Y24516D01*
D02*
G37*
G36*
X117300Y34619D02*
X116604Y34481D01*
X116451Y34379D01*
X116443Y34381D01*
X116418Y34376D01*
X116200Y34419D01*
X115504Y34281D01*
X114914Y33886D01*
X114519Y33296D01*
X114381Y32600D01*
X114519Y31904D01*
X114914Y31314D01*
X115078Y31204D01*
X114933Y30725D01*
X90864D01*
X90769Y30765D01*
X90769Y30765D01*
X90769Y30765D01*
X90296Y31081D01*
X89600Y31219D01*
X88904Y31081D01*
X88314Y30686D01*
X88311Y30683D01*
X88036Y30499D01*
X87707Y30433D01*
Y30426D01*
X65064D01*
X64969Y30465D01*
X64969Y30465D01*
X64969Y30465D01*
X64496Y30781D01*
X63800Y30919D01*
X63104Y30781D01*
X62631Y30465D01*
X62631Y30465D01*
Y30465D01*
X62536Y30426D01*
X52664D01*
X52569Y30465D01*
X52569Y30465D01*
X52569Y30465D01*
X52096Y30781D01*
X51400Y30919D01*
X50704Y30781D01*
X50114Y30386D01*
X49719Y29796D01*
X49581Y29100D01*
X49719Y28404D01*
X50114Y27814D01*
X50704Y27419D01*
X51400Y27281D01*
X52096Y27419D01*
X52569Y27735D01*
X52569Y27735D01*
Y27735D01*
X52664Y27775D01*
X62536D01*
X62631Y27735D01*
X62631Y27735D01*
X62631Y27735D01*
X63104Y27419D01*
X63800Y27281D01*
X64496Y27419D01*
X64969Y27735D01*
X64969Y27735D01*
Y27735D01*
X65064Y27775D01*
X87707D01*
Y27770D01*
X87742Y27775D01*
X88821D01*
X88904Y27719D01*
X89600Y27581D01*
X90296Y27719D01*
X90769Y28035D01*
X90769Y28035D01*
Y28035D01*
X90864Y28074D01*
X116500D01*
X117007Y28175D01*
X117437Y28463D01*
X117686Y28711D01*
X117807Y28736D01*
X118237Y29023D01*
X118525Y29453D01*
X118625Y29960D01*
X118633D01*
X118611Y30127D01*
X118625Y30200D01*
Y31092D01*
X118654Y31134D01*
X118754Y31641D01*
X118735Y31737D01*
X118981Y32104D01*
X119119Y32800D01*
X118981Y33496D01*
X118586Y34086D01*
X117996Y34481D01*
X117300Y34619D01*
D02*
G37*
G36*
X82200Y65089D02*
X81375Y64981D01*
X80605Y64662D01*
X79945Y64155D01*
X79438Y63495D01*
X79119Y62726D01*
X79010Y61900D01*
X79119Y61075D01*
X79438Y60305D01*
X79945Y59645D01*
X80605Y59138D01*
X81375Y58819D01*
X81461Y58808D01*
X81526Y58312D01*
X81405Y58262D01*
X80745Y57755D01*
X80238Y57095D01*
X79919Y56326D01*
X79811Y55500D01*
X79919Y54675D01*
X80238Y53905D01*
X80745Y53245D01*
X81405Y52738D01*
X82174Y52419D01*
X83000Y52311D01*
X83825Y52419D01*
X84595Y52738D01*
X85255Y53245D01*
X85762Y53905D01*
X85978Y54427D01*
X86457Y54282D01*
X86381Y53900D01*
X86519Y53204D01*
X86914Y52614D01*
X86950Y52589D01*
X87078Y52279D01*
Y52265D01*
X87076Y52248D01*
X87078D01*
Y52163D01*
X86786Y51968D01*
X86045Y51820D01*
X85768Y51876D01*
X85768Y51876D01*
X85716Y51839D01*
X85601Y51862D01*
X85565Y51855D01*
X85300Y51889D01*
X84474Y51781D01*
X83705Y51462D01*
X83045Y50955D01*
X82538Y50295D01*
X82219Y49525D01*
X82111Y48700D01*
X82219Y47875D01*
X82538Y47105D01*
X83045Y46445D01*
X83705Y45938D01*
X84474Y45619D01*
X85300Y45511D01*
X86125Y45619D01*
X86895Y45938D01*
X87555Y46445D01*
X88062Y47105D01*
X88381Y47875D01*
X88490Y48700D01*
X88455Y48965D01*
X88462Y49001D01*
X88439Y49116D01*
X88476Y49168D01*
X88476Y49168D01*
X88420Y49446D01*
X88568Y50186D01*
X88947Y50754D01*
X89003Y50797D01*
X88993Y50807D01*
X88993Y50807D01*
X88993Y50807D01*
X89236Y51171D01*
X89322Y51600D01*
X89322Y51600D01*
Y52248D01*
X89324D01*
X89322Y52265D01*
Y52279D01*
X89450Y52589D01*
X89486Y52614D01*
X89881Y53204D01*
X90019Y53900D01*
X89881Y54596D01*
X89486Y55186D01*
X88896Y55581D01*
X88248Y55710D01*
Y56210D01*
X88296Y56219D01*
X88886Y56614D01*
X89281Y57204D01*
X89419Y57900D01*
X89281Y58596D01*
X88886Y59186D01*
X88633Y59356D01*
X88730Y59846D01*
X89096Y59919D01*
X89686Y60314D01*
X90081Y60904D01*
X90219Y61600D01*
X90081Y62296D01*
X89686Y62886D01*
X89096Y63281D01*
X88400Y63419D01*
X87704Y63281D01*
X87402Y63079D01*
X87374Y63120D01*
X87234Y63027D01*
X86912Y62963D01*
X86755Y62994D01*
X86755Y62994D01*
X86696Y62955D01*
X86536Y62987D01*
X86421Y62964D01*
X85456Y63364D01*
X84500Y64097D01*
X84455Y64155D01*
X83795Y64662D01*
X83025Y64981D01*
X82200Y65089D01*
D02*
G37*
G36*
X5626Y119132D02*
X4646Y119003D01*
X3733Y118625D01*
X2950Y118024D01*
X2348Y117240D01*
X1970Y116327D01*
X1841Y115347D01*
X1970Y114368D01*
X2348Y113455D01*
X2950Y112671D01*
X3733Y112069D01*
X4646Y111691D01*
X5626Y111562D01*
X6606Y111691D01*
X7519Y112069D01*
X8303Y112671D01*
X8904Y113455D01*
X9282Y114368D01*
X9411Y115347D01*
X9282Y116327D01*
X8904Y117240D01*
X8303Y118024D01*
X7519Y118625D01*
X6606Y119003D01*
X5626Y119132D01*
D02*
G37*
G36*
X19379Y119100D02*
X11873D01*
Y111594D01*
X19379D01*
Y119100D01*
D02*
G37*
G36*
X145300Y118219D02*
X144604Y118081D01*
X144014Y117686D01*
X143619Y117096D01*
X143508Y116539D01*
X143508Y116539D01*
X143508Y116539D01*
X143469Y116443D01*
X139051Y112025D01*
X132800D01*
X132293Y111925D01*
X131863Y111637D01*
X130063Y109837D01*
X129775Y109407D01*
X129674Y108900D01*
Y104626D01*
X119074Y94025D01*
X116064D01*
X115969Y94065D01*
X115969Y94065D01*
X115969Y94065D01*
X115496Y94381D01*
X114800Y94519D01*
X114104Y94381D01*
X113514Y93986D01*
X113119Y93396D01*
X112981Y92700D01*
X113119Y92004D01*
X113514Y91414D01*
X114104Y91019D01*
X114800Y90881D01*
X115496Y91019D01*
X115969Y91335D01*
X115969Y91335D01*
Y91335D01*
X116064Y91374D01*
X118038D01*
X118229Y90913D01*
X108233Y80917D01*
X107772Y81108D01*
Y94785D01*
X108446Y95460D01*
X108446Y95460D01*
X108448Y95459D01*
X108458Y95472D01*
X108468Y95482D01*
X108778Y95611D01*
X108821Y95602D01*
X109517Y95740D01*
X110108Y96135D01*
X110502Y96725D01*
X110641Y97421D01*
X110502Y98117D01*
X110108Y98708D01*
X109517Y99102D01*
X108821Y99240D01*
X108125Y99102D01*
X107535Y98708D01*
X107141Y98117D01*
X107002Y97421D01*
X107011Y97378D01*
X106882Y97068D01*
X106872Y97058D01*
X106859Y97048D01*
X106860Y97046D01*
X106860Y97046D01*
X106500Y96686D01*
X106000D01*
X105873Y96813D01*
X105873Y96813D01*
X105879Y96819D01*
X105828Y96858D01*
X105229Y97457D01*
X105188Y97555D01*
X105081Y98096D01*
X104686Y98686D01*
X104096Y99081D01*
X103400Y99219D01*
X102704Y99081D01*
X102114Y98686D01*
X101719Y98096D01*
X101581Y97400D01*
X101719Y96704D01*
X102114Y96114D01*
X102704Y95719D01*
X103400Y95581D01*
X103423Y95585D01*
X103878Y95495D01*
X104284Y95224D01*
X104287Y95227D01*
X104287Y95227D01*
X104328Y95185D01*
Y80415D01*
X97907Y73993D01*
X97664Y73629D01*
X97578Y73200D01*
X97578Y73200D01*
Y66665D01*
X97083Y66170D01*
X96622Y66361D01*
Y74600D01*
X96622Y74600D01*
X96536Y75029D01*
X96293Y75393D01*
X96293Y75393D01*
X93993Y77693D01*
X93629Y77936D01*
X93200Y78022D01*
X93200Y78022D01*
X66342D01*
Y78025D01*
X65587Y78124D01*
X64884Y78416D01*
X64303Y78861D01*
X64286Y78886D01*
X63696Y79281D01*
X63000Y79419D01*
X62304Y79281D01*
X61714Y78886D01*
X61533Y78617D01*
X61033D01*
X60786Y78986D01*
X60196Y79381D01*
X59500Y79519D01*
X58804Y79381D01*
X58214Y78986D01*
X57819Y78396D01*
X57681Y77700D01*
X57819Y77004D01*
X58214Y76414D01*
X58804Y76019D01*
X59042Y75972D01*
X59092Y75922D01*
X59168Y75808D01*
X59187Y75827D01*
X59187Y75827D01*
X60057Y74957D01*
X60100Y74901D01*
Y74901D01*
X60100Y74900D01*
X60107Y74907D01*
X60471Y74664D01*
X60900Y74578D01*
X60900Y74578D01*
X91835D01*
X93178Y73235D01*
Y51303D01*
X93178Y51303D01*
X93264Y50874D01*
X93507Y50510D01*
X96910Y47107D01*
X96910Y47107D01*
X97274Y46864D01*
X97274Y46864D01*
X97274Y46864D01*
D01*
X97274Y46864D01*
X97274Y46864D01*
X97703Y46778D01*
X97703Y46778D01*
X123697D01*
X123697Y46778D01*
X124126Y46864D01*
X124490Y47107D01*
X128662Y51278D01*
X129738D01*
X129884Y50800D01*
X129714Y50686D01*
X129319Y50096D01*
X129181Y49400D01*
X129189Y49357D01*
X129061Y49047D01*
X129051Y49037D01*
X129037Y49027D01*
X129037Y49027D01*
X129039Y49025D01*
X126907Y46893D01*
X126664Y46529D01*
X126578Y46100D01*
X126578Y46100D01*
Y28562D01*
X121938Y23922D01*
X111800D01*
X111800Y23922D01*
X111371Y23836D01*
X111007Y23593D01*
X110354Y22940D01*
X110352Y22941D01*
X110342Y22928D01*
X110332Y22918D01*
X110022Y22789D01*
X109979Y22798D01*
X109283Y22659D01*
X108692Y22265D01*
X108298Y21675D01*
X108159Y20979D01*
X108298Y20283D01*
X108692Y19692D01*
X109283Y19298D01*
X109979Y19160D01*
X110675Y19298D01*
X111265Y19692D01*
X111660Y20283D01*
X111798Y20979D01*
X111789Y21022D01*
X111918Y21332D01*
X111928Y21342D01*
X111941Y21352D01*
X111940Y21354D01*
X112265Y21678D01*
X112842D01*
X113159Y21292D01*
X113081Y20900D01*
X113219Y20204D01*
X113614Y19614D01*
X114204Y19219D01*
X114900Y19081D01*
X115596Y19219D01*
X116186Y19614D01*
X116211Y19650D01*
X116521Y19779D01*
X116535D01*
X116552Y19776D01*
Y19779D01*
X122200D01*
X122200Y19778D01*
X122629Y19864D01*
X122993Y20107D01*
X129693Y26807D01*
X129693Y26807D01*
X129936Y27171D01*
X129936Y27171D01*
X129936Y27171D01*
X130022Y27600D01*
X130022Y27600D01*
Y42935D01*
X130625Y43539D01*
X130625Y43539D01*
X130626Y43537D01*
X130637Y43551D01*
X130647Y43561D01*
X130957Y43689D01*
X131000Y43681D01*
X131696Y43819D01*
X132286Y44214D01*
X132681Y44804D01*
X132819Y45500D01*
X132681Y46196D01*
X132286Y46786D01*
X131696Y47181D01*
X131000Y47319D01*
X130972Y47460D01*
X130974Y47450D01*
X131000Y47581D01*
X131696Y47719D01*
X132286Y48114D01*
X132681Y48704D01*
X132819Y49400D01*
X132681Y50096D01*
X132286Y50686D01*
X132116Y50800D01*
X132262Y51278D01*
X139635D01*
X143361Y47553D01*
X143361Y47553D01*
X143360Y47552D01*
X143866Y46892D01*
X144185Y46124D01*
X144288Y45337D01*
X144281Y45300D01*
X144419Y44604D01*
X144814Y44014D01*
X145404Y43619D01*
X146100Y43481D01*
X146796Y43619D01*
X147386Y44014D01*
X147781Y44604D01*
X147919Y45300D01*
X147781Y45996D01*
X147386Y46586D01*
X147348Y46612D01*
X147015Y47110D01*
X146996Y47090D01*
X146874Y47172D01*
X146793Y47293D01*
X146039Y48047D01*
X145980Y48124D01*
X145971Y48115D01*
X145842Y48244D01*
X146078Y48685D01*
X146100Y48681D01*
X146796Y48819D01*
X147386Y49214D01*
X147781Y49804D01*
X147919Y50500D01*
X147781Y51196D01*
X147386Y51786D01*
X146796Y52181D01*
X146100Y52319D01*
X146057Y52311D01*
X145747Y52439D01*
X145737Y52449D01*
X145727Y52463D01*
X145727Y52463D01*
X145725Y52461D01*
X143793Y54393D01*
X143429Y54636D01*
X143000Y54722D01*
X143000Y54722D01*
X127700D01*
X127700Y54722D01*
X127271Y54636D01*
X126907Y54393D01*
X126907Y54393D01*
X122735Y50222D01*
X101797D01*
X101480Y50608D01*
X101518Y50800D01*
X101395Y51419D01*
X101044Y51944D01*
X101056Y51956D01*
X101052Y51967D01*
X101048Y51977D01*
X101048Y51977D01*
X101022Y52003D01*
Y54435D01*
X103093Y56507D01*
X103093Y56507D01*
X103336Y56871D01*
X103422Y57300D01*
Y71235D01*
X137993Y105807D01*
X137993Y105807D01*
X138236Y106171D01*
X138322Y106600D01*
Y106600D01*
X138323D01*
X138322Y106607D01*
X138434Y106879D01*
X138486Y106914D01*
X138881Y107504D01*
X139019Y108200D01*
X138881Y108896D01*
X138856Y108934D01*
X139092Y109374D01*
X139600D01*
X140107Y109475D01*
X140537Y109763D01*
X145343Y114569D01*
X145439Y114608D01*
X145439Y114608D01*
X145439Y114608D01*
X145996Y114719D01*
X146586Y115114D01*
X146981Y115704D01*
X147119Y116400D01*
X146981Y117096D01*
X146586Y117686D01*
X145996Y118081D01*
X145300Y118219D01*
D02*
G37*
G36*
X153228Y115990D02*
X152249Y115861D01*
X151336Y115483D01*
X150552Y114881D01*
X149950Y114097D01*
X149572Y113184D01*
X149443Y112205D01*
X149572Y111225D01*
X149950Y110312D01*
X150552Y109528D01*
X151336Y108927D01*
X152249Y108549D01*
X153228Y108420D01*
X154208Y108549D01*
X155121Y108927D01*
X155905Y109528D01*
X156506Y110312D01*
X156885Y111225D01*
X157013Y112205D01*
X156885Y113184D01*
X156506Y114097D01*
X155905Y114881D01*
X155121Y115483D01*
X154208Y115861D01*
X153228Y115990D01*
D02*
G37*
G36*
X163228D02*
X162249Y115861D01*
X161336Y115483D01*
X160552Y114881D01*
X159950Y114097D01*
X159572Y113184D01*
X159443Y112205D01*
X159572Y111225D01*
X159950Y110312D01*
X160552Y109528D01*
X161336Y108927D01*
X162249Y108549D01*
X163228Y108420D01*
X164208Y108549D01*
X165121Y108927D01*
X165905Y109528D01*
X166506Y110312D01*
X166885Y111225D01*
X167014Y112205D01*
X166885Y113184D01*
X166506Y114097D01*
X165905Y114881D01*
X165121Y115483D01*
X164208Y115861D01*
X163228Y115990D01*
D02*
G37*
G36*
X176981Y115957D02*
X169476D01*
Y108452D01*
X176981D01*
Y115957D01*
D02*
G37*
%LPD*%
D10*
X130500Y78000D02*
G03*
X131341Y76272I2196J0D01*
G01*
X129659D02*
G03*
X130500Y78000I-1356J1728D01*
G01*
X23700Y103900D02*
Y107800D01*
X26100Y110200D01*
X51900D01*
X69300Y95400D02*
X69400Y95500D01*
X75500D01*
Y103900D01*
X130300Y78200D02*
X130500Y78000D01*
Y75200D02*
Y78000D01*
D11*
X-9932Y38769D02*
G03*
X-11907Y34000I4769J-4769D01*
G01*
X-14700Y36793D02*
G03*
X-9932Y38769I0J6744D01*
G01*
X24234Y81734D02*
G03*
X21025Y73987I7747J-7747D01*
G01*
X21673Y79173D02*
G03*
X19525Y73987I5187J-5187D01*
G01*
X13504D02*
G03*
X17265Y75544I0J5318D01*
G01*
Y72429D02*
G03*
X13504Y73987I-3760J-3760D01*
G01*
X17109Y73694D02*
G03*
X17405Y72316I1000J-506D01*
G01*
X14665Y73644D02*
G03*
X16765Y73991I691J2345D01*
G01*
X16679Y73722D02*
G03*
X15294Y74456I-1092J-386D01*
G01*
X17525Y75742D02*
G03*
X17108Y73907I884J-1165D01*
G01*
X17916Y73987D02*
G03*
X17066Y73634I0J-1203D01*
G01*
X16734D02*
G03*
X15884Y73987I-850J-850D01*
G01*
X16674Y72339D02*
G03*
X16080Y73113I-1230J-330D01*
G01*
X18822Y73987D02*
G03*
X17134Y72387I0J-1691D01*
G01*
X16734Y72234D02*
G03*
X12504Y73987I-4230J-4230D01*
G01*
X17795Y73295D02*
G03*
X16125Y73987I-1670J-1670D01*
G01*
X105350Y107850D02*
G03*
X105681Y109416I-1037J1037D01*
G01*
X104148Y107850D02*
G03*
X105634Y108466I0J2102D01*
G01*
X177334Y41266D02*
G03*
X178300Y43597I-2331J2331D01*
G01*
X179166Y63034D02*
G03*
X178300Y60944I2090J-2090D01*
G01*
X179166Y63034D02*
G03*
X178300Y60944I2090J-2090D01*
G01*
X178640Y62124D02*
G03*
X178774Y63139I-1159J669D01*
G01*
X18822Y76322D02*
X30500Y88000D01*
X105350Y107850D02*
X105800Y108300D01*
X32100Y107850D02*
X105350D01*
X30500Y106250D02*
X32100Y107850D01*
X30500Y88000D02*
Y106250D01*
X18822Y73987D02*
Y76322D01*
X178300Y40637D02*
Y63600D01*
X178200Y63700D02*
X178300Y63600D01*
X-14700Y34000D02*
X-9800Y38900D01*
Y69700D02*
X-5513Y73987D01*
X-9800Y38900D02*
Y69700D01*
X-5513Y73987D02*
X18822D01*
D12*
X-4937Y29437D02*
G03*
X600Y27143I5537J5537D01*
G01*
X-3912Y28412D02*
G03*
X600Y26543I4512J4512D01*
G01*
X-2888Y27388D02*
G03*
X600Y25943I3488J3488D01*
G01*
X-2643Y23900D02*
G03*
X-4937Y29437I-7830J0D01*
G01*
X-2043Y23900D02*
G03*
X-3912Y28412I-6381J0D01*
G01*
X-1443Y23900D02*
G03*
X-2888Y27388I-4933J0D01*
G01*
X-9163Y29537D02*
G03*
X-11457Y24000I5537J-5537D01*
G01*
X-10188Y28512D02*
G03*
X-12057Y24000I4512J-4512D01*
G01*
X-11212Y27488D02*
G03*
X-12657Y24000I3488J-3488D01*
G01*
X-14700Y27243D02*
G03*
X-9163Y29537I0J7830D01*
G01*
X-14700Y26643D02*
G03*
X-10188Y28512I0J6381D01*
G01*
X-14700Y26043D02*
G03*
X-11212Y27488I0J4933D01*
G01*
X88200Y51600D02*
G03*
X87340Y49001I2154J-2154D01*
G01*
X87356Y50756D02*
G03*
X86747Y48913I1527J-1527D01*
G01*
X85601Y50740D02*
G03*
X88200Y51600I445J3014D01*
G01*
X85513Y50147D02*
G03*
X87356Y50756I315J2137D01*
G01*
X86454Y61600D02*
G03*
X83658Y60442I0J-3954D01*
G01*
X85006Y61600D02*
G03*
X83234Y60866I0J-2506D01*
G01*
X83658Y63358D02*
G03*
X87903Y61600I4245J4245D01*
G01*
X83234Y62934D02*
G03*
X86454Y61600I3220J3220D01*
G01*
X82810Y62510D02*
G03*
X85006Y61600I2196J2196D01*
G01*
X83947Y57332D02*
G03*
X87600Y57900I1438J2783D01*
G01*
X83671Y56799D02*
G03*
X87019Y57319I1318J2551D01*
G01*
X83396Y56266D02*
G03*
X86439Y56739I1198J2318D01*
G01*
X83120Y55733D02*
G03*
X85859Y56159I1078J2086D01*
G01*
X4900Y58748D02*
G03*
X4416Y59916I-1652J0D01*
G01*
X5384D02*
G03*
X4900Y58748I1168J-1168D01*
G01*
X39600Y42200D02*
G03*
X40016Y43270I-1008J1008D01*
G01*
X40670Y42616D02*
G03*
X39600Y42200I-62J-1425D01*
G01*
X49448Y37800D02*
G03*
X50616Y38284I0J1652D01*
G01*
Y37316D02*
G03*
X49448Y37800I-1168J-1168D01*
G01*
X48248Y41000D02*
G03*
X49416Y41484I0J1652D01*
G01*
Y40516D02*
G03*
X48248Y41000I-1168J-1168D01*
G01*
X129832Y48232D02*
G03*
X130316Y49400I-1168J1168D01*
G01*
X131000Y48716D02*
G03*
X129832Y48232I0J-1652D01*
G01*
Y44332D02*
G03*
X130316Y45500I-1168J1168D01*
G01*
X131000Y44816D02*
G03*
X129832Y44332I0J-1652D01*
G01*
X116552Y20900D02*
G03*
X115384Y20416I0J-1652D01*
G01*
Y21384D02*
G03*
X116552Y20900I1168J1168D01*
G01*
X111147Y22147D02*
G03*
X110663Y20979I1168J-1168D01*
G01*
X109979Y21663D02*
G03*
X111147Y22147I0J1652D01*
G01*
X133600Y106548D02*
G03*
X133116Y107716I-1652J0D01*
G01*
X134084D02*
G03*
X133600Y106548I1168J-1168D01*
G01*
X137200Y106600D02*
G03*
X136727Y107705I-1528J0D01*
G01*
X137673D02*
G03*
X137200Y106600I1056J-1105D01*
G01*
X99900Y64800D02*
G03*
X99654Y63803I703J-703D01*
G01*
X99000Y64284D02*
G03*
X99656Y64556I0J928D01*
G01*
X105080Y96020D02*
G03*
X103400Y96716I-1680J-1680D01*
G01*
X104084Y97400D02*
G03*
X104356Y96744I928J0D01*
G01*
X107653Y96253D02*
G03*
X108137Y97421I-1168J1168D01*
G01*
X108821Y96737D02*
G03*
X107653Y96253I0J-1652D01*
G01*
X42652Y104500D02*
G03*
X41484Y104016I0J-1652D01*
G01*
Y104984D02*
G03*
X42652Y104500I1168J1168D01*
G01*
X98032Y61268D02*
G03*
X99200Y60784I1168J1168D01*
G01*
X98516Y60100D02*
G03*
X98032Y61268I-1652J0D01*
G01*
X100368Y58168D02*
G03*
X99884Y57000I1168J-1168D01*
G01*
X99200Y57684D02*
G03*
X100368Y58168I0J1652D01*
G01*
X99900Y51977D02*
G03*
X100245Y51145I1177J0D01*
G01*
X99555D02*
G03*
X99900Y51977I-832J832D01*
G01*
X86748Y61600D02*
G03*
X87916Y62084I0J1652D01*
G01*
Y61116D02*
G03*
X86748Y61600I-1168J-1168D01*
G01*
X86536Y61865D02*
G03*
X88017Y62167I376J1939D01*
G01*
X87833Y61217D02*
G03*
X86985Y61778I-1101J-743D01*
G01*
X86432Y56732D02*
G03*
X86916Y57900I-1168J1168D01*
G01*
X87600Y57216D02*
G03*
X86432Y56732I0J-1652D01*
G01*
X86196Y57089D02*
G03*
X86937Y58068I-790J1368D01*
G01*
X87414Y57241D02*
G03*
X86196Y57089I-429J-1520D01*
G01*
X85831Y56634D02*
G03*
X86939Y58077I-1189J2059D01*
G01*
X87423Y57239D02*
G03*
X86720Y57147I-240J-895D01*
G01*
X88200Y52248D02*
G03*
X87716Y53416I-1652J0D01*
G01*
X88684D02*
G03*
X88200Y52248I1168J-1168D01*
G01*
X63484Y78084D02*
G03*
X66342Y76900I2858J2858D01*
G01*
X63060Y77660D02*
G03*
X64893Y76900I1834J1834D01*
G01*
X60182Y77646D02*
G03*
X60900Y75700I2469J-195D01*
G01*
X59584Y77693D02*
G03*
X59980Y76620I1362J-107D01*
G01*
X144932Y51668D02*
G03*
X146100Y51184I1168J1168D01*
G01*
X145416Y50500D02*
G03*
X144932Y51668I-1652J0D01*
G01*
X146000Y46500D02*
G03*
X146375Y45927I626J0D01*
G01*
X145678Y45839D02*
G03*
X146000Y46500I-518J661D01*
G01*
X145416Y45300D02*
G03*
X144154Y48346I-4308J0D01*
G01*
X146016Y45300D02*
G03*
X145178Y47322I-2859J0D01*
G01*
X146616Y45300D02*
G03*
X146203Y46297I-1410J0D01*
G01*
X52500Y75752D02*
G03*
X52984Y74584I1652J0D01*
G01*
X52016D02*
G03*
X52500Y75752I-1168J1168D01*
G01*
X41000Y104500D02*
X50700D01*
X52500Y102700D01*
Y74100D02*
Y102700D01*
X122403Y22800D02*
X127700Y28097D01*
X111800Y22800D02*
X122403D01*
X109979Y20979D02*
X111800Y22800D01*
X143000Y53600D02*
X146100Y50500D01*
X127700Y53600D02*
X143000D01*
X59500Y77100D02*
Y77700D01*
X146000Y45400D02*
X146100Y45300D01*
X146000Y45400D02*
Y46500D01*
X140100Y52400D02*
X146000Y46500D01*
X128197Y52400D02*
X140100D01*
X123697Y47900D02*
X128197Y52400D01*
X97703Y47900D02*
X123697D01*
X94300Y51303D02*
X97703Y47900D01*
X94300Y51303D02*
Y73700D01*
X92300Y75700D02*
X94300Y73700D01*
X60900Y75700D02*
X92300D01*
X59500Y77100D02*
X60900Y75700D01*
X123200Y49100D02*
X127700Y53600D01*
X98200Y49100D02*
X123200D01*
X95500Y51800D02*
X98200Y49100D01*
X95500Y51800D02*
Y74600D01*
X93200Y76900D02*
X95500Y74600D01*
X63700Y76900D02*
X93200D01*
X63000Y77600D02*
X63700Y76900D01*
X85300Y48700D02*
X88200Y51600D01*
Y53900D01*
X83000Y55500D02*
X85200D01*
X87600Y57900D01*
X82200Y61900D02*
X82500Y61600D01*
X88400D01*
X128900Y27600D02*
Y43400D01*
X122200Y20900D02*
X128900Y27600D01*
X114900Y20900D02*
X122200D01*
X99900Y54900D02*
X102300Y57300D01*
Y71700D01*
X99900Y50800D02*
Y54900D01*
X99200Y57000D02*
X101100Y58900D01*
Y72197D01*
X96900Y62400D02*
Y64400D01*
X98700Y66200D01*
X96900Y62400D02*
X99200Y60100D01*
X100Y23900D02*
X600D01*
X-14700Y24000D02*
X-7900Y30800D01*
X127700Y46100D02*
X131000Y49400D01*
X128900Y43400D02*
X131000Y45500D01*
X127700Y28097D02*
Y46100D01*
X99900Y72703D02*
X106650Y79453D01*
X99900Y64800D02*
Y72703D01*
X106650Y79453D02*
Y95250D01*
X108821Y97421D01*
X105450Y79950D02*
Y95650D01*
X98700Y73200D02*
X105450Y79950D01*
X103400Y97400D02*
X103700D01*
X105450Y95650D01*
X98700Y66200D02*
Y73200D01*
X99000Y63900D02*
X99900Y64800D01*
X99000Y63600D02*
Y63900D01*
X101100Y72197D02*
X133600Y104697D01*
X137200Y106600D02*
Y108200D01*
X102300Y71700D02*
X137200Y106600D01*
X133600Y104697D02*
Y108200D01*
X13000Y41000D02*
X49900D01*
X-6700Y31200D02*
X600Y23900D01*
X-4400Y48400D02*
X3700D01*
X-6700Y46100D02*
X-4400Y48400D01*
X-6700Y31200D02*
Y46100D01*
X-7900Y30800D02*
Y46597D01*
X-4897Y49600D01*
X4197D01*
X12797Y41000D01*
X39600Y42200D02*
X40700Y43300D01*
X13294Y42200D02*
X39600D01*
X4900Y50594D02*
X13294Y42200D01*
X4900Y50594D02*
Y60400D01*
X3700Y48400D02*
X12300Y39800D01*
X48600Y37800D02*
X51100D01*
X12300Y39800D02*
X46600D01*
X48600Y37800D01*
D13*
X40700Y68731D02*
G03*
X40358Y69558I-1169J0D01*
G01*
X41042D02*
G03*
X40700Y68731I827J-827D01*
G01*
X41527Y70727D02*
G03*
X41184Y69900I827J-827D01*
G01*
X40700Y70384D02*
G03*
X41527Y70727I0J1169D01*
G01*
X24527Y49727D02*
G03*
X24184Y48900I827J-827D01*
G01*
X23700Y49384D02*
G03*
X24527Y49727I0J1169D01*
G01*
X56427Y93727D02*
G03*
X56084Y92900I827J-827D01*
G01*
X55600Y93384D02*
G03*
X56427Y93727I0J1169D01*
G01*
X31139Y56339D02*
G03*
X31501Y57214I-875J875D01*
G01*
X31986Y56730D02*
G03*
X31208Y56408I0J-1100D01*
G01*
X32792Y57992D02*
G03*
X32470Y57214I778J-778D01*
G01*
X31986Y57699D02*
G03*
X32861Y58061I0J1238D01*
G01*
X24527Y103073D02*
G03*
X23700Y103416I-827J-827D01*
G01*
X24184Y103900D02*
G03*
X24527Y103073I1169J0D01*
G01*
X3969Y78600D02*
G03*
X3142Y78258I0J-1169D01*
G01*
Y78942D02*
G03*
X3969Y78600I827J827D01*
G01*
X117300Y31631D02*
G03*
X116958Y32458I-1169J0D01*
G01*
X117642D02*
G03*
X117300Y31631I827J-827D01*
G01*
Y29960D02*
G03*
X115972Y32173I-2507J0D01*
G01*
X117300Y31626D02*
G03*
X116443Y33055I-1619J0D01*
G01*
X117429Y31641D02*
G03*
X116309Y32128I-889J-513D01*
G01*
X52569Y29100D02*
G03*
X51742Y28758I0J-1169D01*
G01*
Y29442D02*
G03*
X52569Y29100I827J827D01*
G01*
X62631D02*
G03*
X63458Y29442I0J1169D01*
G01*
Y28758D02*
G03*
X62631Y29100I-827J-827D01*
G01*
X64969D02*
G03*
X64142Y28758I0J-1169D01*
G01*
Y29442D02*
G03*
X64969Y29100I827J827D01*
G01*
X49200Y79431D02*
G03*
X48858Y80258I-1169J0D01*
G01*
X49542D02*
G03*
X49200Y79431I827J-827D01*
G01*
X68131Y95400D02*
G03*
X68958Y95742I0J1169D01*
G01*
Y95058D02*
G03*
X68131Y95400I-827J-827D01*
G01*
X90769Y29400D02*
G03*
X89942Y29058I0J-1169D01*
G01*
Y29742D02*
G03*
X90769Y29400I827J827D01*
G01*
X87707Y29100D02*
G03*
X89258Y29742I0J2193D01*
G01*
X144473Y115573D02*
G03*
X144816Y116400I-827J827D01*
G01*
X145300Y115916D02*
G03*
X144473Y115573I0J-1169D01*
G01*
X115969Y92700D02*
G03*
X115142Y92358I0J-1169D01*
G01*
Y93042D02*
G03*
X115969Y92700I827J827D01*
G01*
X114800D02*
X119623D01*
X131000Y104077D01*
Y108900D01*
X132800Y110700D01*
X139600D01*
X145300Y116400D01*
X23700Y103900D02*
X28650Y98950D01*
Y88766D02*
Y98950D01*
X18484Y78600D02*
X28650Y88766D01*
X2800Y78600D02*
X18484D01*
X116500Y29400D02*
X117300Y30200D01*
X89600Y29400D02*
X116500D01*
X89300Y29100D02*
X89600Y29400D01*
X63800Y29100D02*
X89300D01*
X51400D02*
X63800D01*
X58100Y95400D02*
X69300D01*
X55600Y92900D02*
X58100Y95400D01*
X40700Y65900D02*
Y69900D01*
X31986Y57214D02*
X32014D01*
X40700Y65900D01*
Y69900D02*
X49200Y78400D01*
Y80600D01*
X23700Y48900D02*
X32014Y57214D01*
X117300Y30200D02*
Y32800D01*
D14*
X4088Y30412D02*
G03*
X600Y31857I-3488J-3488D01*
G01*
X2643Y33900D02*
G03*
X4088Y30412I4933J0D01*
G01*
X24831Y12100D02*
G03*
X26365Y12735I0J2169D01*
G01*
X600Y33900D02*
X22400Y12100D01*
X26000D01*
D15*
X28207Y79593D02*
G03*
X31013Y78431I2807J2807D01*
G01*
X28589Y76678D02*
G03*
X27800Y80000I-3091J1020D01*
G01*
X29349Y76427D02*
G03*
X28718Y79082I-2469J815D01*
G01*
X30600Y82250D02*
G03*
X32086Y83539I0J1501D01*
G01*
X31522Y82250D02*
G03*
X32878Y83426I0J1369D01*
G01*
X32808Y81373D02*
G03*
X30692Y82250I-2117J-2117D01*
G01*
X28636Y79346D02*
G03*
X27951Y79436I-451J-781D01*
G01*
X28364Y80151D02*
G03*
X29258Y78986I1853J497D01*
G01*
X29202Y78244D02*
G03*
X27649Y79436I-2215J-1279D01*
G01*
X28797Y79003D02*
G03*
X27800Y79416I-997J-997D01*
G01*
X28384Y80000D02*
G03*
X28797Y79003I1410J0D01*
G01*
X28505Y78778D02*
G03*
X27649Y79436I-1222J-705D01*
G01*
X28364Y79849D02*
G03*
X28505Y78779I1362J-365D01*
G01*
X32010Y82250D02*
G03*
X31013Y81836I0J-1410D01*
G01*
Y82663D02*
G03*
X32010Y82250I997J997D01*
G01*
X32024Y81893D02*
G03*
X30892Y81744I-386J-1441D01*
G01*
X31106Y82542D02*
G03*
X31913Y81922I1151J665D01*
G01*
X31076Y82589D02*
G03*
X31808Y82326I556J396D01*
G01*
X34885Y82250D02*
X35613Y82978D01*
X30600Y82250D02*
X34885D01*
X31013Y75878D02*
Y76787D01*
X27800Y80000D02*
X31013Y76787D01*
D23*
X18822Y73987D02*
D03*
X34613Y83178D02*
D03*
X31013Y75878D02*
D03*
X35513Y92322D02*
D03*
X174016Y29947D02*
D03*
X155026Y20447D02*
D03*
X5626Y115347D02*
D03*
X163228Y112205D02*
D03*
X153228D02*
D03*
X133900Y20690D02*
D03*
D46*
X83000Y55500D02*
D03*
X82200Y61900D02*
D03*
X85300Y48700D02*
D03*
X88900Y42300D02*
D03*
X130500Y75200D02*
D03*
D67*
X-14700Y44000D02*
D03*
Y34000D02*
D03*
Y24000D02*
D03*
X600Y43900D02*
D03*
Y33900D02*
D03*
Y23900D02*
D03*
D68*
X-11600Y6900D02*
D03*
X203000D02*
D03*
X-11600Y115200D02*
D03*
X203000D02*
D03*
D69*
X174016Y19947D02*
D03*
X155026Y10447D02*
D03*
X133900Y10847D02*
D03*
D70*
X15626Y115347D02*
D03*
X173228Y112205D02*
D03*
D71*
X82100Y94600D02*
D03*
X79300Y97500D02*
D03*
X173300Y64600D02*
D03*
X159700Y73700D02*
D03*
X156100D02*
D03*
X103100Y33400D02*
D03*
X103000Y35600D02*
D03*
X9100Y15500D02*
D03*
X35800Y11900D02*
D03*
X21800Y120800D02*
D03*
X-1200Y109900D02*
D03*
X-1000Y120700D02*
D03*
X54000Y117300D02*
D03*
X49400Y117400D02*
D03*
X58600Y117200D02*
D03*
X45900Y87000D02*
D03*
X56700Y100500D02*
D03*
X63600Y117300D02*
D03*
X59537Y91937D02*
D03*
X107200Y73200D02*
D03*
X100600Y83000D02*
D03*
Y85900D02*
D03*
Y89100D02*
D03*
X127500Y85300D02*
D03*
X129400Y90400D02*
D03*
X145800Y106000D02*
D03*
X155600Y87600D02*
D03*
X155500Y90300D02*
D03*
X153600Y46100D02*
D03*
X123600Y40500D02*
D03*
X84800Y72700D02*
D03*
X80300D02*
D03*
X75400Y72900D02*
D03*
X57600Y40600D02*
D03*
X57100Y24900D02*
D03*
X106800Y51000D02*
D03*
X114800Y92700D02*
D03*
X145300Y116400D02*
D03*
X89600Y29400D02*
D03*
X69300Y95400D02*
D03*
X49200Y80600D02*
D03*
X52500Y74100D02*
D03*
X63800Y29100D02*
D03*
X51400D02*
D03*
X116200Y32600D02*
D03*
X117300Y32800D02*
D03*
X2800Y78600D02*
D03*
X51900Y110200D02*
D03*
X23700Y103900D02*
D03*
X31986Y57214D02*
D03*
X55600Y92900D02*
D03*
X75500Y103900D02*
D03*
Y95500D02*
D03*
X179000Y63200D02*
D03*
D03*
X178200Y63700D02*
D03*
X178300Y40637D02*
D03*
X177500Y41100D02*
D03*
X105350Y107850D02*
D03*
X105800Y108300D02*
D03*
X105900Y109500D02*
D03*
X16900Y72400D02*
D03*
Y73800D02*
D03*
X26000Y13100D02*
D03*
Y12100D02*
D03*
X146100Y45300D02*
D03*
Y50500D02*
D03*
X59500Y77700D02*
D03*
X63000Y77600D02*
D03*
X198300Y68600D02*
D03*
X202700Y68500D02*
D03*
X206700Y68600D02*
D03*
X206600Y72900D02*
D03*
X202700D02*
D03*
X198400Y73000D02*
D03*
X206600Y76600D02*
D03*
X202600Y76500D02*
D03*
X198400D02*
D03*
X88200Y53900D02*
D03*
X87600Y57900D02*
D03*
X88400Y61600D02*
D03*
X99200Y57000D02*
D03*
Y60100D02*
D03*
X41000Y104500D02*
D03*
X30600Y82250D02*
D03*
X27800Y80000D02*
D03*
X108821Y97421D02*
D03*
X103400Y97400D02*
D03*
X99000Y63600D02*
D03*
X137200Y108200D02*
D03*
X133600D02*
D03*
X109979Y20979D02*
D03*
X114900Y20900D02*
D03*
X131000Y45500D02*
D03*
Y49400D02*
D03*
X10300Y97800D02*
D03*
Y81400D02*
D03*
X-6100Y52100D02*
D03*
X-3800Y55000D02*
D03*
X69000Y117200D02*
D03*
X24200Y72700D02*
D03*
X26300Y62200D02*
D03*
X18100Y53400D02*
D03*
X49900Y41000D02*
D03*
X51100Y37800D02*
D03*
X40700Y43300D02*
D03*
X4900Y60400D02*
D03*
X23700Y48900D02*
D03*
X40700Y69900D02*
D03*
X46600Y91800D02*
D03*
X36800Y100000D02*
D03*
X36400Y69600D02*
D03*
X78800Y5900D02*
D03*
X85600Y5700D02*
D03*
X93700Y5500D02*
D03*
X16200Y4300D02*
D03*
X26000Y4000D02*
D03*
X36500Y3900D02*
D03*
X81300Y110700D02*
D03*
X-16700Y76800D02*
D03*
X-16800Y66800D02*
D03*
X-17200Y104300D02*
D03*
X94700Y117000D02*
D03*
X105300Y116900D02*
D03*
X115600Y116700D02*
D03*
X154400Y120600D02*
D03*
X174500Y120500D02*
D03*
X191300Y120800D02*
D03*
X184500Y110900D02*
D03*
X184400Y115900D02*
D03*
Y120800D02*
D03*
X191500Y115900D02*
D03*
X191700Y110900D02*
D03*
X191800Y101300D02*
D03*
X198900Y92000D02*
D03*
X203800D02*
D03*
X208500D02*
D03*
X199100Y87200D02*
D03*
X203900Y87100D02*
D03*
X208600Y87000D02*
D03*
X199300Y82200D02*
D03*
X204000Y81900D02*
D03*
X208600Y82000D02*
D03*
X198600Y57800D02*
D03*
X207400Y57400D02*
D03*
X207100Y49600D02*
D03*
X202800Y53600D02*
D03*
X189300Y51200D02*
D03*
X183900D02*
D03*
X207700Y39600D02*
D03*
X186600Y22200D02*
D03*
X194800Y21900D02*
D03*
X203100Y21700D02*
D03*
X193300Y1000D02*
D03*
X181000Y14100D02*
D03*
X157400Y1300D02*
D03*
X155200Y28000D02*
D03*
X146200Y28400D02*
D03*
X153800Y39200D02*
D03*
Y33400D02*
D03*
X163600Y73700D02*
D03*
X143600Y92700D02*
D03*
X145700Y101000D02*
D03*
X137900Y92700D02*
D03*
X132100Y93000D02*
D03*
X138100Y97000D02*
D03*
X138300Y102500D02*
D03*
X142300Y97000D02*
D03*
X134000Y97100D02*
D03*
X159700Y76400D02*
D03*
X163600Y76600D02*
D03*
X125500Y69900D02*
D03*
X125400Y64600D02*
D03*
X128000Y56700D02*
D03*
X106400Y57300D02*
D03*
Y64300D02*
D03*
X123200Y53300D02*
D03*
X121400Y64400D02*
D03*
X59200Y67600D02*
D03*
Y61400D02*
D03*
X59300Y55100D02*
D03*
X59400Y48300D02*
D03*
X67300Y48000D02*
D03*
X67400Y55100D02*
D03*
X67300Y61300D02*
D03*
Y67500D02*
D03*
X75500D02*
D03*
X75400Y61500D02*
D03*
X75300Y55100D02*
D03*
X75500Y48000D02*
D03*
X67600Y41600D02*
D03*
X85000Y67900D02*
D03*
X91800Y89600D02*
D03*
X91700Y83200D02*
D03*
X92300Y102000D02*
D03*
X58200Y3900D02*
D03*
X58100Y11700D02*
D03*
X64800Y17600D02*
D03*
X70100Y23000D02*
D03*
X-1200Y900D02*
D03*
X-1300Y8200D02*
D03*
X-6900Y21000D02*
D03*
Y16200D02*
D03*
X600Y97900D02*
D03*
X141900Y62200D02*
D03*
X131300Y64200D02*
D03*
X131400Y69900D02*
D03*
X198900Y49600D02*
D03*
D72*
X99900Y50800D02*
D03*
D73*
X99400Y12200D02*
D03*
X102600D02*
D03*
X105600Y12300D02*
D03*
X99500Y9500D02*
D03*
X102700D02*
D03*
X105700D02*
D03*
X102900Y6600D02*
D03*
X105800D02*
D03*
X99600D02*
D03*
D74*
X130300Y78200D02*
D03*
D75*
X202700Y71900D02*
D03*
D76*
X202800Y53600D02*
D03*
D77*
X129400Y9600D02*
D03*
D78*
X155350Y14450D02*
D03*
M02*
